/* XPM */
static char *_76c04a5fc554cb7cadeb4e3aeba5288enhU8GZfE5FDIa0r[] = {
/* columns rows colors chars-per-pixel */
"64 64 246 2 ",
"   c #1C6D12",
".  c #1D7512",
"X  c #1E7C12",
"o  c #3A6C13",
"O  c #297614",
"+  c #227D13",
"@  c #377715",
"#  c #6D570F",
"$  c #77570D",
"%  c #695810",
"&  c #56610F",
"*  c #476A14",
"=  c #5A6915",
"-  c #5B6619",
";  c #487416",
":  c #597814",
">  c #77650E",
",  c #6C720F",
"<  c #6A6815",
"1  c #756714",
"2  c #667517",
"3  c #77761A",
"4  c #6B7521",
"5  c #9C3D09",
"6  c #AB3B05",
"7  c #B33C07",
"8  c #BC3D05",
"9  c #C13F03",
"0  c #97480B",
"q  c #86530B",
"w  c #835B0D",
"e  c #8C5C0B",
"r  c #96560C",
"t  c #915711",
"y  c #A84809",
"u  c #B74707",
"i  c #A8550B",
"p  c #B8580A",
"a  c #B15D15",
"s  c #89640C",
"d  c #8B6B19",
"f  c #926B12",
"g  c #A6650B",
"h  c #B86709",
"j  c #B7780C",
"k  c #A96713",
"l  c #9E6C20",
"z  c #867823",
"x  c #9C7B27",
"c  c #A47224",
"v  c #B97B2C",
"b  c #C34205",
"n  c #C54A07",
"m  c #C54C06",
"M  c #D14C09",
"N  c #C55306",
"B  c #CA5406",
"V  c #CB5B06",
"C  c #CB5708",
"Z  c #D35B07",
"A  c #CC6206",
"S  c #CC6607",
"D  c #D36407",
"F  c #D26C06",
"G  c #D36308",
"H  c #DA6B08",
"J  c #D47206",
"K  c #D97607",
"L  c #DA7C07",
"P  c #D57408",
"I  c #DB7B08",
"U  c #C37A12",
"Y  c #1F8213",
"T  c #218513",
"R  c #2A8413",
"E  c #218A13",
"W  c #368C14",
"Q  c #289515",
"!  c #239B14",
"~  c #2C9C15",
"^  c #379617",
"/  c #359B15",
"(  c #3C9C16",
")  c #24A414",
"_  c #2BA315",
"`  c #26AE15",
"'  c #2AAB16",
"]  c #2EAB19",
"[  c #34A316",
"{  c #35A319",
"}  c #38A319",
"|  c #27B216",
" . c #29B617",
".. c #29BB18",
"X. c #37B418",
"o. c #488516",
"O. c #4B8A14",
"+. c #4B8A19",
"@. c #558918",
"#. c #459718",
"$. c #56941C",
"%. c #6E8718",
"&. c #728D15",
"*. c #549422",
"=. c #6A8622",
"-. c #748922",
";. c #779322",
":. c #878315",
">. c #918415",
",. c #BC840D",
"<. c #B9930E",
"1. c #A78B12",
"2. c #B58313",
"3. c #BBA110",
"4. c #8E8A27",
"5. c #988828",
"6. c #AC8A2B",
"7. c #B7872A",
"8. c #B09631",
"9. c #B7A534",
"0. c #CA8A0D",
"q. c #DC8206",
"w. c #DE8509",
"e. c #CA9A0C",
"r. c #D29D0B",
"t. c #C49514",
"y. c #E6880A",
"u. c #E49406",
"i. c #E49408",
"p. c #EC920B",
"a. c #EA9D08",
"s. c #F29C09",
"d. c #EC8311",
"f. c #EF9A19",
"g. c #F19C16",
"h. c #CBA30E",
"j. c #D7A50D",
"k. c #D8B00F",
"l. c #ECA507",
"z. c #EEAA06",
"x. c #E5A10A",
"c. c #EBA308",
"v. c #EDAD09",
"b. c #F3A407",
"n. c #F9A606",
"m. c #F3AC06",
"M. c #FAAD04",
"N. c #F2A30C",
"B. c #F3AB0B",
"V. c #EBB709",
"C. c #F4B405",
"Z. c #FCB402",
"A. c #F5BB06",
"S. c #FCBC02",
"D. c #F4B10A",
"F. c #F4BB09",
"G. c #F9BD0B",
"H. c #EFA21B",
"J. c #F2A718",
"K. c #EFB418",
"L. c #F4B816",
"P. c #C78E2D",
"I. c #C59933",
"U. c #C7A534",
"Y. c #D7AC37",
"T. c #CBB83A",
"R. c #F1A622",
"E. c #F1AB23",
"W. c #F2B728",
"Q. c #E2BA39",
"!. c #F3BD32",
"~. c #EBC709",
"^. c #EACA0D",
"/. c #F4C206",
"(. c #FCC401",
"). c #F6CC06",
"_. c #FCCB02",
"`. c #F4C409",
"'. c #FCC40D",
"]. c #F5CE09",
"[. c #FCCA0D",
"{. c #F7D306",
"}. c #FCD302",
"|. c #FDDC01",
" X c #FBD40A",
".X c #F6D908",
"XX c #FAC412",
"oX c #FBCC12",
"OX c #F8C31A",
"+X c #F7CA19",
"@X c #FAD414",
"#X c #F8D714",
"$X c #FAD31B",
"%X c #FADA1C",
"&X c #FDE302",
"*X c #FDED02",
"=X c #F8E40A",
"-X c #FDEA0C",
";X c #FDF102",
":X c #FCF10B",
">X c #FCE919",
",X c #FCF118",
"<X c #D1C439",
"1X c #F4C526",
"2X c #F3C52B",
"3X c #FAD424",
"4X c #F8DB26",
"5X c #FADC2D",
"6X c #E7C73D",
"7X c #F4C334",
"8X c #F5CD36",
"9X c #EED034",
"0X c #F6D334",
"qX c #F7DC3B",
"wX c #F8D938",
"eX c #FBE626",
"rX c #FBE42D",
"tX c #FCF224",
"yX c #FCF32B",
"uX c #FAE434",
"iX c #FCEC35",
"pX c #F6E23A",
"aX c #F9E43E",
"sX c #FCED3C",
"dX c #FDF333",
"fX c #FCF33D",
"gX c #DDA840",
"hX c #D9B445",
"jX c #E5BA47",
"kX c #EBC947",
"lX c #EED541",
"zX c #F3DB43",
"xX c #F5D944",
"cX c #F8E342",
"vX c #FAEC43",
"bX c #F8E648",
"nX c #FDF445",
"mX c #FEF847",
"MX c #FCF44B",
"NX c #FAE956",
"BX c #FCF353",
"VX c #FCF45C",
"CX c #FDF85A",
"ZX c #F8ED60",
"AX c #FBF365",
"SX c #FCF570",
/* pixels */
"` ` ` ` | ` ) X . X ) | ) Y ) ) T ) | ` | ` ' ' ] } } *.*.; *.; *.*.; *.$.o @ ^ ] ] T ` ) T ) ..T ) ` ` ` ` ` ` ` ` | ` ` ` ` | ",
"` | ` ` ` ` | ) ) ) ` | ` ! Y ) ) | | ` ` ` ' ] } #.*.*.*.4 =.-.4 -.4 =.=.: ; ; O O ~ ] ` ) X ` | T ` ` ` ` ` ` ` ` ` | | ` ` ` ",
"| ` ) T ) ` ) X ) ` ` ` ` Y ` Y ) ) ) { ( *.-.-.8.4.9.9.9.<X<X<X<XT.<XT.T.9.9.9.5.4.-.$.#.Q O ) | ) ` ` ` ` X ) ` ` ` ` | | | ` ",
"` ) Y ` Y ! X   X ) ` ` ) Y ..Y ! T + R +.- z 5.8.Y.hXjXkXkXlX9XxXxXxX9XkXjXhXhX7.7.z =.*.@ O ~ | ` ` ` | ) . X ) ` ` ` ` ) ` ` ",
"` ) Y ..X Y ` X ` E ) ) X ) | O O 2 %.2.t.k.9XpXVXBXCXmXMXmXMXmXnXmXmXmXmXmXmXmXnXvXzX6XY.6.c @.*.] ] ` ` ) X ` Y ) ` ` ) X ) ` ",
") X ) ` X ) ` Y ) | E ! Y ) ~ @ O.z f t.k.^.rXaXMXMXMXMXMXMXmXmXnXnXnXnXmXmXnXMXnXvXcX6XQ.U.8.;.;.^ ( ] ' ` Y ) | Y ) ` ` . Y ! ",
") Y ) Y ) ) Y ! T ` | E ) / ; d f k.k.=X-X:XdXfXMXMXMXMXmXMXmXmXmXnXmXnXnXnXnXnXmXnXmXnXnXvXcXY.U.z < W _ ` ) X Y | Y ` ) X ) Y ",
"Y ! ) X ! Y ) ` ` ` ' _ ( &.&.3.3.{..X:X:X:XyXfXMXMXmXMXMXmXMXmXnXnXnXnXnXnXnXnXnXnXnXmXnXvXnX6XkX9.5.4 +.[ ' ! Y ..X ! X X Y ` ",
"| Y ) ) Y ) ` ` ` ` | } @.>.,.^..X;X;X;X:X:XdXfXMXMXMXMXMXMXnXnXmXnXnXnXnXnXmXnXnXnXnXnXnXnXfXnXnX6XY.c 4 o._ T ) | X X ! ` ) Y ",
"| ` ` ` ` ` | ` ) ' O.&.1.k.~.*X&X;X;X;X;X:XdXfXMXMXMXMXmXMXnXnXnXnXnXnXnXnXnXnXmXnXnXmXmXnXnXnXnXbXqX6X8.x @.o ` ) X E Y X Y ) ",
"` | | ` ` ` | ) T ~ @.:.,.~.=X;X;X;X;X;X;X:XdXfXMXMXmXmXMXmXMXnXnXmXnXmXmXmXmXmXnXnXmXnXnXnXnXnXMXnXvXzXU.7.: o.) Y . Y ) ) ` ` ",
"` ` | ) ) ) ` ) * = 2.h.=X&X;X;X*X;X*X;X;X;XyXdXMXvXxXlX!.W.W.R.R.J.R.W.W.7XwXqXnXnXmXnXnXnXnXMXnXnXnXnXzXzX7.5.#.^ ) ) ` | ` ` ",
"| ` ) X X X ) ! = %.0.k.=X*X;X;X*X;X*X;X;X*XtXiXcXqX8X7XW.R.R.f.f.f.J.R.E.W.2X8XcXsXnXnXnXnXnXnXnXsXnXnXcXcXI.6.@.#.' ` ` ` ` ` ",
"` ` Y ! ! ! @ o g ,..X=X;X;X*X;X;X;X;X;X*X*X+X1Xf.f.d.p.p.g.g.J.R.J.f.g.s.d.d.d.f.R.8XcXMXmXmXnXnXnXnXvXvXfXqX6Xl z { ] ) Y ) ` ",
"` ` ) X X + o.@.<.e.&X*X;X*X;X*X;X;X*X-X=X XL.L.J.J.N.N.N.K.W.7X7X7X!.W.J.N.f.f.f.f.W.8XwXvXnXnXsXnXnXnXnXnXzXxX7.x +.( ` X ) | ",
"` ` ` ` _ ~ < t k.~.;X*X*X;X;X;X;X;X*X|.`.z.s.p.B.D.XXoX#XrXcXVXAXAXZXNXqX$X'.G.N.s.d.f.E.qXvXnXnXnXnXnXvXnXnXvXQ.I.3 ; | Y ) ` ",
"` ` ` ) [ O.>.j ~..X;X*X;X*X;X;X;X*X}.F.m.N.C.D.^.+X4X5XuXsXvXBXBXBXVXAXNXbXwXwX1XL.B.J.f.W.!.sXnXnXnXnXvXnXnXvXqXQ.c -.( T ) | ",
"` ` ) Y ^ @.1.0..X-X*X*X;X*X*X;X;X|.{.b.N.b.G.(.#X#XuXaXbXMXMXnXnXmXBXAXAXAXNXNX5X3XXXD.s.f.J.pXaXnXnXnXnXnXvXvXvX6Xv -.; ~ ` | ",
"| ) Y ! = d h.V.&X*X&X*X*X*X*X*X*Xm.D.B.Z.(.(._.eXrXMXMXMXmXnXmXnXmXMXMXMXBXCXVXAXNX5X1XG.N.N.W.2XnXvXnXnXvXMXvXBXbXjX8.4 ( | ` ",
"` ) X ~ = f h.^.*X*X*X*X*X;X;X&X=XB.B.B.G.(._._.eXrXnXMXMXMXmXnXnXmXmXnXMXMXCXCXSXZX5X3X[.B.J.J.W.vXnXnXMXvXMXvXBXNXkX8.3 ( ` ` ",
"| ) O +.:.U V.|.&X&X;X*X*X;X*X/.`.n.C._.(.(.}.}.,XyXnXnXnXnXbX0X0X0XqXvXnXnXnXnXVXBXqX3X_.[.oXJ.x.9XqXmXMXMXBXVXAXZXZXhXv $.( ] ",
"` ' ~ * >.0.F.=X&X*X*X*X*X*X&X/.A.M.C.(.(.(.}.{.,XtXnXnXnXaXpX9X2X2X0XaXvXnXnXnXVXBXxX3X[.[.'.B.B.!.0XnXMXMXBXBXZXZXZXhXv $.^ | ",
"` | / < 1.x.].&X*X&X&X*X*X&X.XC.m.S.(.(.(.(.}.{.:X,XfXfXMX9X1Xv.v.v.K.2XqXmXmXmXCXBXcX3X[.[.[.XXG.J.7XbXbXBXBXBXVXVXAXkXgX-.@.' ",
"` | ( 3 <.v.{.&X&X&X*X*X*X.X XC.D.(.(.(.(.(.}.{.:X:XyXdXnXrX3XXXXXF.L.1X0XcXaXcXbXbXqX3X[.[.[.'.XXJ.1XcXMXBXBXBXBXBXZXkXgX3 2 | ",
"` ' #.d t.A.{.&X&X*X&X*X*X X`.F.Z.(.(.(.(.S._. X*X:X,XyXnXiX4X#X#X[.+XL.2X0X0X0XxX0X0X$X[.'.[.'.'.L.L.wXbXMXBXBXBXBXBXxXjX5.1 ! ",
"` _ ; f e.).|.&X&X&X&X&X*X].F.S.S.(.(.(.(.(./.F.*X-X:X,XyXdXsXrXrX%X$XOXOXK.K.K.L.W.OXoXoX[.[.'.'.G.OX8XcXBXvXMXMXMXBXNXkXx d ' ",
"` _ * i e.).|.&X&X&X&X*X*X].F.S.S.(.(.(.(.S.F.F.:X;X;X,XtXdXnXsXiXeX%XOXL.B.B.B.B.D.XXoX[.'.oX'.'.G.L.2XaXMXMXMXMXMXBXxXkXx z ] ",
"` { ; k r.{.|.&X&X&X&X&X&X).A.(.S.(.S.(.(.S.C.C.V.~.=X*X:X,XtXfXnXnXnXfXvXiXeX4X XoX[.[.[.[.'.'.XXG.XX1XqXMXMXvXNXvXMXbXbX6.l ] ",
"| ~ ; k j.{.|.|.&X&X&X&X&X).A.S.(.S.S.(.(.S.Z.C.V./.=X&X*X,XtXfXfXnXnXnXsXsXrX4X#XoXoX[.[.[.'.'.XXG.XX1XqXvXMXMXvXMXnXNXxX7.l { ",
"| { $.h j.{.|.&X&X&X&X&X&X_.(.S.S.(.S.(.(.S.(.S.n.b.l.D.`.{..X,XtXfXfXnXmXnXnXnXrX4XoX[.oX'.[.'.'.'.XXOXuXvXMXnXMXMXvXbXbXv c { ",
"` / $.k r.{.|.|.|.|.&X&X&X_./.(.S.(.S.S.S.S.(.(.C.m.n.D.V.`.`.$X%XrXiXsXnXnXnXnXiXrX$XoX'.'.'.'.'.G.XX+XuXvXMXvXvXMXvXbXxX7.a ^ ",
"` { O.k j.).}.|.|.&X&X&X|._.(.S.S.S.S.(.(.S.S.S.S.S.Z.C.b.b.s.z.K.^.3XiXfXnXmXmXnXsX4XoX[.'.'.'.'.'.'.$XuXnXvXnXMXvXnXbXcXP.a ^ ",
"` { O.g r.).}.|.|.|.|.&X&X}.(.S.S.S.S.S.S.S.(.(._.{._._.).A.Z.m.D.D.L.+XeXyXdXdXnXfX5X$X'.'.'.'.'.G.XX3XuXnXvXnXsXsXdXrX4XU a ^ ",
"` ~ ; k e.).}.|.|.|.&X|.|._._.S.S.S.S.S.S.S._._.|.&X|.|.|.).(.C.C.b.B.F.].,XyXyXnXfXuX$X'.'.'.'.G.'.oX3XuXnXfXsXsXiXrX>X#Xj a / ",
"T Q ; r 0.A.}.|.|.|.|.&X&X}._.S.Z.S.S.S.S.S._.).;X;X;X;X;X|.}.S.A.Z.A.F.{.-X*X:X,X>X%X[.S.G.S.G.G.S.'.$XeXeX>X>X-X-X-X X/.U i } ",
"| R O.r 0.A._.}.}.|.|.|.|.}._.S.Z.S.S.S.S.S.).).;X;X;X;X;X|.{./.S.S././..X*X;X;X:X:X.X).S.S.S.G.S.S.'.#X>X>X-X*X-X&X&X{./.j i X.",
"| _ #.e 0.l./.|.|.|.|.|.|.|.}.S.S.Z.S.S.S.Z._.].;X;X;X;X;X*X&X|.{.).|.&X*X;X*X;X*X&X{.(.Z.S.Z.Z.Z.S.(.|.&X&X&X&X&X&X&X).m.h r [ ",
"` ` #.e j a.A.}.}.}.}.|.|.}.}.S.S.S.S.Z.Z.S.(.).;X;X*X;X;X*X&X|.|.|.|.&X*X;X;X;X*X=X_.S.Z.Z.Z.Z.Z.S._.|.&X&X&X&X&X&X&X/.l.g r ' ",
"` ` } > j q.C.}.}.|.}.|.|.|.|.(.(.Z.Z.S.Z.Z./.).:X;X;X;X;X;X;X;X*X;X;X;X;X;X;X;X.X}.S.Z.Z.Z.Z.Z.Z.(.}.&X&X&X&X&X&X&X&XV.q.g e ' ",
"` | ( < g H m._.}.}.}.}.}.|.|.].[.S.Z.Z.S.Z.C.C.|..X=X*X;X;X;X;X;X*X;X;X*X*X=X=X`.A.C.S.Z.Z.Z.S.S.}.}.&X&X&X&X&X&X&X.Xl.K f s ' ",
"| ` / & g Z s.(._.{.}.}.}.|.|.}.}.S.S.Z.Z.Z.m.l.A./.=X&X*X;X:X;X;X;X;X;X*X*X{.].v.m.Z.Z.Z.Z.Z.Z.S.|.|.&X&X&X&X&X&X&X).i.G f , ' ",
"` ` _ o.q u q.z._.}.}.}.}.}.}.|.}.[.'.Z.Z.Z.Z.M.n.n.m.D.A.]..X*X;X;X*X.X).C.v.m.M.C.Z.Z.Z.Z.Z.(._.|.&X&X|.&X&X&X&X{.v.I m , @.` ",
"| ` _ #.> u L c.)._.}.}.}.}.}.}.{. X[.Z.Z.Z.Z.M.s.s.s.s.l.`.{.*X;X;X&X{./.l.b.s.M.Z.Z.M.Z.Z.Z._.}.&X|.&X&X&X&X|.&X{.l.P m , O.' ",
"` ) + ~ 2 r V H D.S._._._.}.}.}.|. X.X$X'.C.Z.Z.Z.Z.M.M.n.N.N.z.v.m.v.m.n.M.M.Z.Z.M.Z.Z.Z.[.}.|.|.&X&X|.&X|.&X&X/.v.H h i O.[ ` ",
"` _ . + : e h Z l.D._._._._.}.}.}. X X$XXX`.Z.Z.Z.Z.M.M.n.m.b.b.B.B.n.m.C.M.Z.Z.Z.Z.Z.S.S._.}.|.|.&X&X|.&X|.&X{.V.c.D h r O._ ` ",
"` ) X ` @ : i n y.y.(.(._._._._.}.}. X>X%X%X`.G.M.Z.M.M.Z.M.n.n.n.n.n.M.M.Z.M.Z.M.Z.S._.}.|.|.|.|.|.|.|.|.&X}.].y.L M i , / ` ` ",
"` ) X ) ( * e u H y.C.A._._._._._._.}.#X#X#XoX`.A.Z.Z.C.Z.M.m.b.n.n.M.M.M.Z.Z.Z.S.S.(._.}.|.|.|.|.|.|.&X|.|./.A.L P m s & / ` ` ",
"` | ) + _ [ $ 0 C D u.B.(.(._._._._._._._.}. X X).'.G.Z.C.Z.Z.M.M.M.M.M.Z.Z.Z.S.(._.|.}.|.{.|.|.|.|.|.|.|.{.c.u.D V y , o ) ` ` ",
"` ` ` . Y _ : $ u B K y.b.A.(.(.(._._._._._._.}._._.[._.(.(.S.S.S.S.S.(.(.(._._.}.}.}.}.}.|.}.|.|.|.}.|./.v.w.L B p $ @.O ) ` ` ",
"| ` ) X ` E ; & u b Z K i.C.(.(.(._.(._._._._._.}._.}._._._.[._._._.[._.[._.}.}.}.}.}.}.}.}.|.}.}.|.}.}.v.a.K H b u , #.Y ) ` ` ",
"` ` ) Y ) | R Q $ 0 b B D q.i.S.S.(.(.(.(.(._._._._._._._._._._._._._._._.}.}._.}.}.}.}.}.}.}.}.}.).A.a.y.P Z N 0 > / R ) ` | ` ",
"` ` ` ) T ` ` T , w u n V K q.m.C.(.(.(.(.(.(.(._._.(._._._._._._._._.}._._._._.}._.}.}._.}.}.}.}.A.v.i.L D B m $ 1 _ _ ` ` | ` ",
"` ` ` ` ) ` | ) @ o.0 y n B V P K m.B.C.A./.(.(.(.(.(.(._.(._._._._._._._._._._._._._.}.}._.}.V.v.q.I H Z C y q ( / ) ` ` ` ` ` ",
") Y ! ` | ` ) Y _ O > 0 u n N F F a.l.m.C.Z.S./.(.(.(.(._.(.(.(._.(.(.(.(._._._._._._.(./.C.V.u.i.K H D V u s > / / Y ` ` | ` | ",
") X X ) ` ` ) Y ..+ W & 0 7 b C V w.y.x.a.N.Z.S.(.(.(.(.(.S.(.(.(.(.(.(.(._.(._._._.(.A.V.i.w.H H H Z B u y ; W ) X . ) ` ` ` | ",
") X ` E ) ) Y ) | X O ; , t y m m F K L y.y.i.u.m.m.C.C.S.S.S.S.S.(.S.(.S.S.A.C.m.z.a.i.w.L L H D C N u q , @ W E | X ` ` ` ` ` ",
") Y ) | Y ) Y ) ) . Q + @ # 0 u 8 B V D S F K K u.u.l.z.C.C.Z.A.S.A.A.C.C.C.z.l.i.u.K J F D G G V b u 0 : O.. X )  .E ) ` ) Y ) ",
") ) Y `  .Y ) ) X . X ! Q o o.> q 8 u n B V A A S F J J L L q.q.q.q.q.q.L L J J F F S D A C B b u q $ * / . . ! E ) ) ` ) Y ! Y ",
"Y ) ) ` | ` ` ` ) ) ) Y ) R W % > 6 7 b n B B V V V A A S S F F F P F J F S S S A V D A Z B n 8 u $ % W ! Y ! Y ` E ) ` ) X )  .",
"| E ) ` ` | ` ` ) Y ! X  ...Y ! R * = e 0 8 8 9 m m V N V V V V V V V V V V V V B B b b 8 0 0 @.: O _ E ) ) ) E ..Y ! E  .X Y ) ",
" .| Y ` ) ) ) | ) . Y ) | | ) Y ` o * > e 0 y u u u N N m B N B B B B B N N N N p u u i y > > O.W + ) | E ) ) ) ) . X ) | Y ! Y ",
"| | ) ) X X Y ) ! X | Y ) ` ) Y  .Y _ R W W % > r 5 6 7 8 9 9 b 9 b 9 8 8 8 6 u 0 r > , O.@ ~ ` ` ) T ` ` X Y ) X X ) ` E ) ` ) ",
"` | ) Y ! ! ! Y X X ) | Y ! X ) ` Y _ | R W o O.= % > $ $ q e s e s e q s $ > $ , : O.O.^ . Y ) ` ` ) ` ` Y ) ) Y ) ` ` ` ` ` | ",
"| | | ) X . X ! ` ` Y |  .X . ! Y ! T ` | E ) ) X   X ! ) _ ` ` ` ` ) Y  .X X ` T ) | ` ) X ) T ) ` | | ` ) ` ` ) ` ` ` ` ` ` ` "
};
