/* XPM */
static char *_3b519d824af419697bd16f60470da0ajJmGLNHIv3cavFAN[] = {
/* columns rows colors chars-per-pixel */
"64 64 136 2 ",
"   c #0C0D0C",
".  c #110F0C",
"X  c #0E140D",
"o  c #0F1B0D",
"O  c #17130C",
"+  c #1F170C",
"@  c #101B0F",
"#  c #131313",
"$  c #171817",
"%  c #1C1C1C",
"&  c #281C0B",
"*  c #11240E",
"=  c #122B0E",
"-  c #12330E",
";  c #133A0E",
":  c #132B10",
">  c #1E221D",
",  c #143310",
"<  c #163C11",
"1  c #36250A",
"2  c #39260A",
"3  c #242424",
"4  c #272828",
"5  c #2C2C2C",
"6  c #2F3030",
"7  c #343434",
"8  c #373837",
"9  c #383837",
"0  c #3B3B3B",
"q  c #482F0A",
"w  c #53370B",
"e  c #5B3C0A",
"r  c #623F08",
"t  c #16460F",
"y  c #174C0F",
"u  c #17520F",
"i  c #164510",
"p  c #184713",
"a  c #164B10",
"s  c #184A13",
"d  c #185411",
"f  c #1A5C11",
"g  c #1A6211",
"h  c #1C6C12",
"j  c #1D7512",
"k  c #1E7C12",
"l  c #207E14",
"z  c #3D403D",
"x  c #754A07",
"c  c #7A4E08",
"v  c #454545",
"b  c #474847",
"n  c #484847",
"m  c #4B4B4B",
"M  c #4D524C",
"N  c #545454",
"B  c #575857",
"V  c #5C5C5C",
"C  c #636363",
"Z  c #676867",
"A  c #6B6B6B",
"S  c #6B706A",
"D  c #747474",
"F  c #7B7B7B",
"G  c #845307",
"H  c #895606",
"J  c #8F5A08",
"K  c #935C06",
"L  c #A36605",
"P  c #A76805",
"I  c #AF6D04",
"U  c #B77204",
"Y  c #C47A04",
"T  c #CD7E03",
"R  c #1F8113",
"E  c #1F8A12",
"W  c #208613",
"Q  c #218A13",
"!  c #229314",
"~  c #239B14",
"^  c #239C14",
"/  c #239E14",
"(  c #259E16",
")  c #23A114",
"_  c #24A114",
"`  c #24A314",
"'  c #25A316",
"]  c #24A414",
"[  c #24A714",
"{  c #25A715",
"}  c #25A814",
"|  c #25A914",
" . c #26AA15",
".. c #26AA16",
"X. c #26AB16",
"o. c #25AD14",
"O. c #25AE14",
"+. c #26AF15",
"@. c #26AC16",
"#. c #27AE17",
"$. c #26B115",
"%. c #27B216",
"&. c #27B317",
"*. c #28B317",
"=. c #28B417",
"-. c #28B917",
";. c #29BB18",
":. c #2AC217",
">. c #D68402",
",. c #DC8803",
"<. c #E78E01",
"1. c #EF9401",
"2. c #F49600",
"3. c #808080",
"4. c #848484",
"5. c #868686",
"6. c #888E87",
"7. c #8C8C8C",
"8. c #929292",
"9. c gray58",
"0. c #959595",
"q. c #9C9C9C",
"w. c #A0A09F",
"e. c #A4A4A4",
"r. c #AEAEAE",
"t. c #A8B9A6",
"y. c #B3B4B3",
"u. c gray73",
"i. c #C3C3C3",
"p. c gray79",
"a. c #D3D4D3",
"s. c #E1E1E1",
"d. c #E5EDE3",
"f. c #EFEFEF",
"g. c #F0F1F0",
"h. c #FFFFFF",
/* pixels */
"+.+.+.+.+.+.{ k j k [ +.[ R / [ R [ $.+.+.+.+.+.+.+.+.+.{ l $.W ) { k  .+.j j ) =.=.R  .{ R ) -.R ) +.$.+.+.+.+.+.+.+.+.+.+.+.+.",
"+.+.+.{ +.+.+.) ) { o.$.o./ W ) [ +.+.+.+.+.+.+.+.+.+.o.~ W { $.Q ~ k { ) k ! k k k ) $.o.) R [ =.E  .+.+.o.[ o.+.+.+.+.+.+.+.+.",
"+.+.) W ` +.) R ) +.+.+. .W +.R ] { ] ] o.[ o.+.+.+.o.) W ! W +.$.W / ` l f i = @ * y / $./ k [ $.[ o.+.+.{ R ) o.+.+.+.+.+.+.+.",
"+.{ W +.R ~ R h R ) o.o./ W -.k / R k R ~ R [  .+.$.[ R +.Q `  . .k ! a @   % 5 7 5 $ # k R j [ +.+.+.+.+.{ j R _ o.+.+.o.[ o.+.",
"o.) W -.k k  .k  .Q _ [ R { +.j k ~  .+.k j *.Q ) +.{ R ;.k / Q ! < X # 6 n m m m m m 5   ! R { +.+.+.+.+.[ k  .W ) +.+.[ k _ o.",
"[ k ) +.W `  .R { $.Q / k  .) R ! R k R / l { $.R ) { +.$.j f -   > n B m m m m m m m m 4 * k { +.o. .o.+.[ k [ +.E ) +.[ j R ) ",
"/ R ) R / ` W ~ W +.$.W ) [ R / k ~ ) { +.` W +.=.k R k ; X $ 6 N N N N B N m m m m m m v $ d $.+.[ k ) o.o.[ k R +.W { ) k _ W ",
"R / [ k ~ R ` +. .+.$.[ o.o. .[ j R { +.+.{ { +.] i *   4 b V V V m m m V V N m m m m m m 0 # { +.[ j R ) o.o.~ W -.k ~ R j W +.",
"=.W [ _ R ) o.+.+.+.o.+.+.+.$.[ l  .W { { l l < . % 8 V V V V V V m m N V V V m 3 v m m m m # g o.[ k ` W / [ W { $.j k ~  . .R ",
"$. .o.o.[ o.+.+.[ o.+.+.+.+.o./ l { *.h d X # 5 b V V V V V V V V V V V V V V 7 3 m m m m m 5 : +.{ k k ~ W ~ W { / k ! R k R ) ",
"$.$.$.o.$.$.+.] W / o.$.+.+._ W W s > . % z B V V V V V V V V V V V V V B V n   m m m m m m n   Q { ` k  .$.R [  .k j k / [ [ $.",
"o.o.o.[ )  .+.{ j k _ o.+./ d ,   > 0 N V V V V V V V V V V V V V V V N V N $ . 4 B m m m m m 3 a Q -.l { $. .o.+.{ { { o.$.$.$.",
"$.o._ R k k ` / l  .Q W t   $ 7 m V V Z D A V V V V V V V V V V V V V m V 6 . Y O m N m m m m 9 O ~ $.W [ +.+.o.[ o.$.o.$. .o.$.",
"$.[ R / / ~ R k k ! p   3 n V V C D 4.9.F V V V V V V V V V V V V V m V N   r 2.c 3 V m m m m m X h E { o.+.o._ R [ o.$.[ k [ $.",
"$.o.) R k k ~ { W X > m V V V D 9.8.3.A V V C V V V V V V V V V V N N V % & <.2.,.  N N m m m m 4 : ` { o.+.[ W $.Q [  .[ k [ +.",
"o.$.o.[ { ` k d # 0 V V A A V Z C V V V V V V V V V V V V V V V V m V v   K 2.2.2.q 0 V m m m m v   Q Q / +.[ W ;.W / Q ;.R ) o.",
"o.$.$. .o.$.! o 7 V C 4.7.Z V V V V V V V V V V V V V V V V V V N B V $ w 2.2.2.2.G 5 V B m m m m $ d +.E ) ]  .$.j k [ $.R  .$.",
"$.o.) R _ o.y % V C 7.9.D V V V V V V V V V V V V V V V V V V V m V 0   >.2.2.2.2.L % V V N m m m 7 X  .=.k R ] k j / o.R | +.$.",
"$.[ l ~ R [ @ z V 7.9.3.V V V V V V V V V V V V V V V V V V V N V N # r 2.2.2.2.2.I $ V V B m m m m X W ] k / { R / o.o.[ o.+.+.",
"+.[ k / k Q   N D 9.9.Z V V V V V N N V V V V V V V V V V V V N V 3 & >.2.2.2.2.2.L % V V V m m m m 3 d R / +.+. .+.$.+.+.+.+.+.",
"$.[ R ) _ j   N F 9.4.V V V V V V V N m m N m N V V V V V V N B 9   K 2.2.2.2.2.2.c 4 V V V v 5 7 m 0 X / +.+.+. .o.+.+.+.+.+.+.",
"+.o.) R  .l   n 3.9.4.V V V V V V V V V V V V V V V V V V V N N     G 2.2.2.2.2.2.2 z V V 8   % # 7 m # W +.+.` R ) [ +.+.+.+.+.",
"+.+.[ R =.-.= 7 F 9.4.V N v m V V V V V V V V V V V V V V V V $     e 2.2.2.2.2.Y # N V 9 m i.5 v # v 3 < +.{ R $.Q [ [ [ o.o.+.",
"+.+.o. .$.$.f % F 9.7.V 7 >     # % 4 7 0 v N V V V V V V V 3       e 2.2.2.2.2.& 7 V m 0 g.h.A V % 5 0 X ` / W -.k ~ k k R ) o.",
"+.o.[ o.o.o./   V 9.9.C V V V N #                       O   .       L 2.2.2.<.e 3 V N v f.h.h.4.m n # n # g k { $.k k ~  . .R  .",
"+.[ k _ o.o.) = 0 9.9.S V V V V 3       J U U P K G G x e & # .   r <.<.T H & 3 B V 7 f.h.h.h.f.0 V % 7 4 = R { ` j ! R k R [ o.",
"+.[ j W [ [ R h % 9.9.3.V V V V 7       x 1.2.2.2.2.2.1.T   N m % .       > v V V 5 a.h.h.h.h.a.5 V 0 % v   Q  .R j k ) [ [ o.o.",
"+.[ k  .Q ~ R ! O F 9.7.V V V V N       G 2.2.2.2.2.2.2.e 5 V V V V N N V V V V 7 B h.h.h.h.h.f.% V B # v $ f +. .{ [ o.+.+.+.+.",
"+.[ k { $.W )  .< m 9.9.A V V V V v   1 T 2.2.2.2.2.1.G # N V V V V V V V V V 0 % 5 s.h.h.h.h.s.% V V 4 5 6 @ $.+.+.+.+.o. .$.o.",
"+. ._ W  .=.R / d % 9.9.D V V V V V m # q P T 2.<.Y x # N V V V V V V V V V v V y.4 4 Z a.h.h.4.9 V V 0 $ n   W [ +.+.+.) R o.o.",
"+.+.o./ W _  .[ j X D 9.3.V V V V V V B 0 %       # 3 N V V V V V V V V V 0 m s.i.5 V 0 3 4 0 9 V V V B   v % y _ o.+.{ W $.R o.",
"+.+.[ R +.W [ ) k - v 9.8.V V V V V V V V V V N N B V V V V V V V V V V 6 D h.h.s.4 V V V V V V V V V V $ 9 9 = W [ +./ k $.k / ",
"+.+.) R ;.k ~ k j f # 7.9.Z V V V V V V V V V V V V V V V V V V V V 0 % A f.h.h.a.5 V V V V V V V V N V 3 6 m O E Q / j h k k ` ",
"]  .R ) $.k k ~ X.` X A 9.F V V V V V V V V V V V V V V V N v 7 %     q.h.h.h.h.r.5 V V V V V V V 7 B $ % 3 m > d $.k h j  .E { ",
"R ~ R { ) k ! R j W p 7 9.7.V V V n 6 4 4 4 5 7 7 5 4 $ #   4 C q.V % v h.h.h.h.4.7 V V V V V V V 4 g.s.z 5 m 7 o ` k ! k { =.&.",
"$.E )  .k j R  .W ( W # 7.9.C N % # 4 3 9.7.F Z D 4.S % a.g.h.h.h.C z 7 Z h.h.h.B v V V V V V V V 4 f.h.4.4 m n   k W { ` W +.:.",
"$. .+.o.| ]  .$. .{ +.o C 9.D % 6 V B % f.h.h.h.h.h.i.  a.h.h.h.h.N v V 5 0 s.h.M B V V V 0 % $ N 7 s.h.B 7 m m 3 ; ] +.+. .+.$.",
"+.+.+.$.$.$.+.+.{ k / f 0 9.F   B V V 5 e.h.h.h.h.h.e.5 N h.h.h.h.n n V V N 0 N m V V V N 4 d.t.$ 9 9.h.% m m m 0   ~ +.+.+.+.+.",
"+.+.+.o.{ ] ] +.{ j k E # 7.D $ V V V n n h.h.h.h.h.9 N % u.h.h.h.0 N V V V V V V V V V 4 w.h.h.6.$ 9.y.3 m m m m % f +.+.+.+.+.",
"+.$.o.) R k k / / k { Q : A 4.  B V V V > u.h.h.h.h.3 V m 3 u.h.h.$ B V V V V V V V V V 7 s.h.h.h.m > > v m m m m 6 = +.+.+.+.+.",
"+.+. .R ~ / ~ k k k { $.a 7 9.$ m V V V m 3 g.h.h.y.v V V m $ 0 0 5 V V V V V V V V V N b h.h.h.h.a.  7 m m m m m z   $.$.+.+.+.",
"+.+.$.) R k k ~  ./ Q  .Q   6.v 9 V V V V v A s.s.3 V V V V V m m V V V V V V V V V V b B h.h.h.i.> 7 B m m m m m m   ) $.+.+.+.",
"+.o.| o.o.] ) R j W ~ +. .# B Z 3 V V V V V N 5 4 N V V V V V V V V V V V V V V V V V z M y.6.m $ z B m m m m m m b   ] +.+.+.+.",
"+.] k ) o.$.o.) k  .W  .+.f 4 6.# N V V V V V V V V V V V 7 $ 5 V V V V V B m 9 5 % #   # $ 5 v N N B m m m m m m 7 o +.+.+.+.+.",
"o.[ j W / $.+.) W *.l / { /   F 6 0 V V V V V V V V V V m 5 a.F $ N V m 5 # # 4 7 z m N V V V V V V m m m m m m v # f $.+.$.+.+.",
"o._ l [ E ) ] R ! W h j l { : m V 3 V V V V V V 6 > v V 0 A h.h.4.$ % # 6 v V V V V V V V V V V V N m m m m m 0 $ ; ] $.] $.+.+.",
"$.[ R { $.W / k k  .k Q l h f # 4.$ n V V V V 0 D s.4 b 6 q.h.f.C $ 7 V V V V V V V N V V V V V N m m m m z 4   u $.$.] k | +.+.",
"+.o.) R  .$.R ! W ;.k W  .k ! # V V $ B V V V $ s.h.i.# % p.p.5 3 N V V V V V V V N m N V V V N m m m 0 %   = Q E | |  .k ] +.+.",
"+.+.[ j l [ / k _ +.j _  .k k t 6 9.5 4 V V m v h.h.h.D $ F   0 V V V V N N V V V m m V V V N m v 7 $ X t k R ;.k ~ E ;.R ] $.+.",
"+.+.[ k +.Q ~ R / k j ~ W [ { !   F 4.% 4 B 0 A h.h.f.4.  > m V V V V V N V V V V V V N m m v 5 X X f R ~ {  .+.j k  .-.R  .+.+.",
"$.o.[ l [ $.W / [ j h W ~ +.+._ = 0 9.3.7   # 3 5 3 $ 3 n m m B V V V V V N m m m m m m 8 %   ; k R +.=.k k ) k k /  .R ) +.+.+.",
"+.$.o._ W o.=.W ) / k  .W ) { l g % D 4.V B v v m N V V M m m m B N m m m m m m m m 5 # X f j ) +. .$. .R ) ] R ) +.o.] o.+.+.+.",
"o. .o.$. .o.$./ W ~ k [ =.Q ~ R / X v V V V V V V V V V N m m m m m m m m m m v 4 # X t ~ k / o.+.+.$.+.) [ $.{ o.o. .o.+.+.+.+.",
"_ R _ o.+.+.[ R +.W ~ k {  .W )  .< % V D F C V V V V V N v m m m m m m m 0 %   ; k k ) { j k / +.+.+.+.) E ) +.o.) R [ +.+.+.+.",
"[ j Q ) o.o.) W -.l ~ k k W / o.$.! X m 3.9.7.V V V V V m m m m m m b 5 $ o u E [ W / { +./ j R ) +.+.{ R $.Q  .[ R j [ +.+.+.+.",
"_ k  .W ) [ R _ $.j k /  . .W [  .~ t # Z 4.F V V V V m m m m m 0 >   = j  .+.{ R  .E R [ / k  .W { +./ R -.R / W $.k [ +.o.[ o.",
"[ W [ *.W / R [ _ k ! k k k ) o.` R j * 5 V V V V B m m m 0 5 #   , f  .Q ` +./ W ;.k ! k k k { =.W ~ k _  .j k _ -.R  .o.) R ) ",
"_ _ W o.*.W _  .W j k / / k [ _ Q =.k ! * % v m n 8 6 3     ; f j j k { $.Q / k _  .k R ~  ._ W o. .k k ) k k ! W { { +.[ R / R ",
"W / [ o.$.[ o.o.[ / / k  .W ~ R / =.R { ! , * X X # : a u j j k ~ { ` W +.+.k k ) R ) _ R k R _ [ k k ~ [ k ~ R $.Q { +.[ k _ ;.",
"*.Q [ o.o.$.$.o.[ k ~ W *.:.W ! R k ~ +.+.` k W +.E { { k ` R ~ l k W / +.{ W / [ R [ o.[ [ [ o.[ k  .Q ) [ [ W ;.W ! Q ;.k k _ ",
"*.$.W [ { [ [ $.{ j W / $.$._ R  .j R ` o.+./ R ;.k /  .k E +.+.] { { +.{  . .+.o.[ o.+.o. .o.$.[ W _ $.Q _ [  . .j k [ $.W ~ k ",
"o.$.[ [ W k k / ~ k  .W ) o.) E ;.R  .Q )  .k ) $.k k )  .+.Q { $.+.+.` Q ` +.{ o.+.$.+.[ R _ o.o._ W $.$.k R _ k k ) [ Q { o.[ ",
"$.o. .W ! / ! W k k { $.W ~ k [ +.R { $.E ~ k  .` j ! R k R )  .$.$.{ R $.k ~ W _ $.+.+.[ j k _ o.o. .+.[ R ) [ k _ o.o. .o.+.+.",
"o.+.+./ k j k ~ +. .W $.$.k j / R ~ R $.$.R / { k h k / ] ] +.+.+.+.` W ;.j k +.R [ +.+.[ k  .W [ +.+.+.o.[ o.o. .o.+.+.+.+.+.+."
};
