/* XPM */
static char *fc7e9e221c5f4529c6e95627ac7b4ecchgqEaf4vGdlzd0ha[] = {
/* columns rows colors chars-per-pixel */
"64 64 231 2 ",
"   c #1C6E12",
".  c #1D7512",
"X  c #1E7C12",
"o  c #386E13",
"O  c #277514",
"+  c #2C7215",
"@  c #237D13",
"#  c #2E7C14",
"$  c #377616",
"%  c #327C13",
"&  c #4F5B0F",
"*  c #525C0E",
"=  c #595C0F",
"-  c #4D5E11",
";  c #794E0E",
":  c #6C590E",
">  c #775A0D",
",  c #59620E",
"<  c #476812",
"1  c #586915",
"2  c #487516",
"3  c #577C17",
"4  c #676C0F",
"5  c #78670E",
"6  c #64710F",
"7  c #686F11",
"8  c #796B12",
"9  c #697915",
"0  c #787517",
"q  c #697E24",
"w  c #A93E09",
"e  c #B93B06",
"r  c #864C0B",
"t  c #974709",
"y  c #8C540C",
"u  c #8C5B0C",
"i  c #94540B",
"p  c #9A5508",
"a  c #A4450A",
"s  c #AB4B09",
"d  c #BA4B06",
"f  c #B74A08",
"g  c #A9540B",
"h  c #B3570C",
"j  c #906D13",
"k  c #9B6A1A",
"l  c #817A17",
"z  c #B77A0D",
"x  c #A7651E",
"c  c #AC7C13",
"v  c #B07111",
"b  c #8D7C23",
"n  c #AB7927",
"m  c #C44406",
"M  c #C44A04",
"N  c #C94B07",
"B  c #CB5407",
"V  c #CB5B06",
"C  c #C75708",
"Z  c #D25F07",
"A  c #CC6306",
"S  c #CE6508",
"D  c #D36507",
"F  c #D36B07",
"G  c #D66708",
"H  c #CA750D",
"J  c #D47207",
"K  c #D77608",
"L  c #DC7B09",
"P  c #1F8113",
"I  c #208513",
"U  c #2B8415",
"Y  c #218A13",
"T  c #388A13",
"R  c #3C8C14",
"E  c #219413",
"W  c #239B14",
"Q  c #2B9C15",
"!  c #379817",
"~  c #349C15",
"^  c #3A9B15",
"/  c #24A414",
"(  c #2CA415",
")  c #26AD15",
"_  c #2AAC16",
"`  c #2DAA18",
"'  c #32A417",
"]  c #27B216",
"[  c #28B417",
"{  c #28B917",
"}  c #29BB18",
"|  c #498A17",
" . c #538817",
".. c #489719",
"X. c #55931A",
"o. c #69851A",
"O. c #79841A",
"+. c #57A11F",
"@. c #758D24",
"#. c #2AC217",
"$. c #828A14",
"%. c #BE840F",
"&. c #AA8612",
"*. c #BA9510",
"=. c #868524",
"-. c #948728",
";. c #8E982F",
":. c #97962C",
">. c #B7942D",
",. c #B48C30",
"<. c #9DA22D",
"1. c #A1A62E",
"2. c #BBA230",
"3. c #C0860E",
"4. c #DC8206",
"5. c #DD8409",
"6. c #D5980D",
"7. c #E28C06",
"8. c #E5870A",
"9. c #E18C09",
"0. c #E59407",
"q. c #EA9A08",
"w. c #F2990A",
"e. c #F19C0A",
"r. c #ED8B10",
"t. c #EF9817",
"y. c #F09E17",
"u. c #D9AB0C",
"i. c #D9B80C",
"p. c #D1AA12",
"a. c #EDA405",
"s. c #EBA907",
"d. c #EAA409",
"f. c #F4A506",
"g. c #F5AD06",
"h. c #FAAD03",
"j. c #F9A906",
"k. c #F2A40A",
"l. c #F3AC0B",
"z. c #EDB407",
"x. c #E9B609",
"c. c #F4B306",
"v. c #FCB302",
"b. c #F5BB05",
"n. c #FCBC02",
"m. c #F2B20A",
"M. c #F9B70E",
"N. c #F4BD0A",
"B. c #FABD0B",
"V. c #F2A616",
"C. c #F1A31C",
"Z. c #F3B818",
"A. c #D4A839",
"S. c #DDB738",
"D. c #EFAA22",
"F. c #F0A320",
"G. c #F1AB22",
"H. c #F2B526",
"J. c #F3BB2B",
"K. c #E5B33A",
"L. c #EBC70B",
"P. c #F4C206",
"I. c #FCC302",
"U. c #F5CB06",
"Y. c #FCCC01",
"T. c #FCC40C",
"R. c #F4C809",
"E. c #FCC90D",
"W. c #F6D306",
"Q. c #FCD402",
"!. c #F6DC06",
"~. c #FDDB01",
"^. c #FBD40C",
"/. c #EDC91B",
"(. c #FBC412",
"). c #FBCC12",
"_. c #F6C41B",
"`. c #F9CB1C",
"'. c #FAD715",
"]. c #FBD41C",
"[. c #FDE302",
"{. c #FDED02",
"}. c #F8E30A",
"|. c #FCEC0C",
" X c #FDF002",
".X c #FCF10A",
"XX c #FBE817",
"oX c #FCF118",
"OX c #DAC33A",
"+X c #E9C925",
"@X c #F4C62A",
"#X c #F9D726",
"$X c #E5C33D",
"%X c #F5C733",
"&X c #F5CD34",
"*X c #EDD43E",
"=X c #F7D737",
"-X c #F7DA3A",
";X c #FBE727",
":X c #FBEC25",
">X c #FAE12D",
",X c #FCF223",
"<X c #FBF42A",
"1X c #F8E436",
"2X c #FBEA32",
"3X c #FAE43E",
"4X c #FCEC3B",
"5X c #FDF333",
"6X c #FCF23D",
"7X c #D3AF46",
"8X c #DCB641",
"9X c #E3BF4B",
"0X c #EACA45",
"qX c #EFD241",
"wX c #F3DA42",
"eX c #F6DB43",
"rX c #EDCB50",
"tX c #F6E442",
"yX c #F8E441",
"uX c #FAEC43",
"iX c #FAE54A",
"pX c #F9E94A",
"aX c #FDF445",
"sX c #FEF846",
"dX c #FDF44B",
"fX c #FBEC54",
"gX c #FBEE5A",
"hX c #FCF352",
"jX c #FCF35B",
"kX c #F9EE61",
"lX c #FCF465",
/* pixels */
") ) ) ] ) ] / X . X / ] / P / / P / ] ) ] ) ] ) ] ) ) ] / X ] P / / X / ] . X W ] ] P / / P / { P / ] ] ) ] ) ) ) ) ) ) ] ) ) ] ",
") ] ] / ) ) ) / / / ) ] ) W P / / ) ] ] ] ) ) ) ) ) ] ) / P / ] P W P / / . E P X X / ) ] / P ] ] P / ] ) ) ) ) ] ) ] ) ) ] ] ) ",
") ] / I / ) / X / ) ] ) ) P ) P / / ) ) ) / ) ] ) ] ) / P W P ] { P / / P . X / / P / ) ] W . / ] / ] ] ) / P / ) ) ) ) ) ] ) ) ",
"] / P ) P W P   X / ) ) / P } P W P X P W P / ) ) ) / P { P / ] ) X / P W / / / P ] P / / P . / ] ) ] ) ) / . P / ) ) ] ) / ) ] ",
") / P } X P / I / Y / / P / ] . X W ) / X X [ P / ) / P #.P W P #.P / / P / ) / P #.P W P ] P / ) ] ) ] ) / X / Y / ) ) ) P / ) ",
"/ X / ) X / ) P / ] Y W P / / X E X X P W P / [ P / / / ) . X / { P / ] ] E / / / / . P ) ] P / ) ) / ) ) ) P / ) Y / ) / . X / ",
"W P / P / / P W P ] ] Y / / P W P W / / ) / P ) { X P / X . / / P / / P ) { X P / X . / ) P / ) ) / P / ) ) / P P ) P / / X / I ",
"P / / X W P / ) / ] ] / ] ) ) / . P / ) ) ) ) [ ) X W / P / ) ) / ] / / ) / P / / P / ) ] ) ] ] ) / . P / ) ) W P { P W X . I ) ",
") Y ) / P / ) ] ] ] ) ) ) ] ) ) X / E / / @ / } / / X W ) [ _ / P { I / / / / ) ) / ] ) ] ) / ] ) / X / I / / P / ] . P W / ) I ",
"] / ) ) ) ) ) ) ) ) ) ) ) ) ) / P / ] I W P / / I W O $ ....X.X.2 +.2 | 2 # U Q ) ) ) ] ) / P / ) / X X W Y W P / / . E P X I / ",
") ) ) ) ) ) ) / P / ) ) ) ) / P W I / . X Q ( $ 2 X.q ;.;.;.<.:.1.1.:.:.;.;.@.3 ..! ( _ ) P _ Y / ) / X / ) Y / / P . P / / / ) ",
") ) ) / / ) ) ) . X / ) ) ) P ) Y / / P / Y ~  .@.b ,.7X8X0XqXwXwXeXqXrX$X7X>.,.b 3 ..` / P } @ W Y { P ) ] / ) ) ) / / ) ] ) ) ",
"] ) / P X P / W X ) Y / ) W P } P / ] ~ X.o.c p.%X1XhXdXdXhXsXsXaXaXsXsXsXaXaXpXeXS.>.-. .! ` . X / ) I ) ) ) ) ) ) ) ) ) / ) ) ",
") ) P W W W X X X / ] Y W P / ] P Q ~ O.&.p.L.}.>XaXdXdXdXdXsXsXaXaXsXaXsXsXaXaXpXiX*XOX>.=.1 + / / I / ) ) ) / I / ) ) / I ) ) ",
") ) / P X X E ) / P / ] X . W Y ' 2 o.*.i.L.{..X<X6XdXdXdXdXsXaXsXaXaXaXaXaXsXaXaXaXaXtX$X2.-. .~ P / / ) ) / I ) E / ) / X / ) ",
") ) ) / / / P X P W P W P / / P ..8 z W..X.X X.X,X6XdXdXdXdXaXsXaXaXaXsXaXaXaXaXaXaXaXaXaXqXA.,.| . ) E / ) / I { P E E { P ) ) ",
") ] ) / ) ) ) / / / . P W / # 3 &.u.}. X X X X.X,X6XsXdXdXsXsXaXaXaXsXsXsXaXaXaXaXaXaXaXuXaXuXwXn 0 ..] P ) / ) )   X / { P ) ) ",
") ) / P / ) ) ) ) / X / P ! < &.i.[.{. X X{.{. X,X5XdXyXeX&XJ.J.G.H.J.J.&X3XuXuXsXsXaXaXaXaXaX4X$X2.l ^ ` X P / X . W ) P / ) ) ",
"] / P W P ) ) ) / . X / ` 3 O.u.!.{.{. X X{. X{.XX=X&XJ.H.G.F.C.y.F.C.C.G.J.%X=XuXaXaXsXaXaXuXaXuXS.>.o.~ X / / P / ) ) / ) ] ) ",
") ) X W P / ) / @ . W Y ..$.3.!.{. X X{. X X X}.'.Z.y.t.r.e.C.C.G.G.C.y.r.r.t.F.%XtXuXaXaXaXaXaXuXiXS.n 2 Q ) ] ) ) ) _ ] ] ) ) ",
") / P / / P E Y [ X / ( l *.R.{.{. X X{. X{.}.c.e.w.l.B.).).tXfXlXlXfX3X`.T.l.w.r.F.&XuXaXaXaX6XaXaXyXK.b | ` _ / ) ) ] ] ) ) ] ",
") ) / P / P X / [ I (  .c u.}.{.{.{.{. X{.W.c.f.g.B.).#X>X3XdXdXjXhXjXgXfXeX&X`.m.V.D.J.uXaXaXaXaXuXuXeX,.O.! / P / ) ) ) ] ) ) ",
") ) / I ] { P / P / ' 9 6.L.[.{.{. X{.{.~.P.k.g.n.R.'.1XuXdXdXaXaXaXjXjXjXhXpX-X`.l.d.C.=XuXaXaXuXuXdXpXA.-.| P ] P / / / / ) ] ",
") ) ) ) ) ) / / P ( X.k x.!.{.{.{.{.{.}.N.l.g.I.Y.W.;X6XdXdXaXaXaXaXaXsXdXjXlXkX=X).B.V.G.-XuXaXaXaXdXhXrX2.0 I #.P W P P P / ) ",
") ) ) ) ) ] ) P ) $ o.H W.[.{.{.{.{.{.b.c.g.Y.I.Y.W.,X6XsXsXuX-X&X&XuXaXaXaXhXhXeX).E.(.k.@X-XaXaXhXjXjXkX7Xk ! _ . . W / ) P ) ",
") ) P / ) ) / P #.o 8 6.~.[.[.{.{.{.}.c.n.n.I.I.Q.~..X5X6XaX+X+XZ.Z.@X-XsXaXdXjXeX).E.E.M.Z.%XdXhXdXjXjXlX9X,.| Q . E P P P / ] ",
") / . X W / P / ) 1 c x.[.[.{.[.{.}.W.h.n.I.I.I.Y.~..X,X5XaX#X/.Z.N.H.@XyX4XpXiX-X).E.E.B.Z.J.eXdXhXhXjXkXrX7X9 # . P / / / ) ) ",
") / P / Y W P / P 6 c P.~.[.[.{.{.!.P.n.n.I.I.I.I.W.{.oX<XaX#X].'.^._.+X&X&X&X&X#X).E.E.(.M.Z.=XdXdXdXhXjXrX7X0 ~ / / ) ] ] ) ) ",
") ) P / ) Y W / @ 9 z W.~.[.[.{.[.W.N.I.n.I.I.n.b.N.{.{.oX,XaX4X>X;X).Z.l.l.l.l.(.).T.E.T.B.Z.@XdXdXdXdXfXiX9Xj ..) ) ] ) ) ) ] ",
") ) / I ) ) Y / + 8 %.^.[.[.[.[.[.Q.b.n.n.I.I.I.n.m.N.}..X.X<X5XaXaX4X4X1X].`.).E.).E.T.T.B.(.@XdXdXdXfXdXiX0Xk .._ ) ] / P / ) ",
") ) ) W Y / / / + $.z Q.~.[.[.[.}.~.b.I.I.I.I.I.b.c.c.P.U.!.XX;X5X6XaXaX6X2X>X].).E.E.T.(.T.(._.dXuXuXdXdXiXqXx ../ ) / P ) P / ",
") ) ) I ) P ) W + l 3.Q.~.~.~.[.[.~.n.n.n.n.n.n.I.n.j.f.z.P.!.XX:X6XaXaXaXaX2X>X).E.E.T.T.T.(.`.uXuXdXuXaXpXqXx 2 ( ) / X ] P / ",
") ] / P { X W P + l %.Q.~.[.~.[.[.Q.I.n.n.n.I.n.n.I.n.c.h.f.e.k.z./.2X5XaXdXaX4X#XE.E.T.B.T.(.].uXuXaXuXuXuX*Xx X.U W .   . X / ",
") / P / ] . X W ~ 0 z U.Q.~.~.~.[.~.I.n.n.n.n.n.I.Y.~.~.~.W.P.n.l.f.Z.).oX5X6X6X>XE.E.T.B.T.(.#XaX6XaX4X5X>X/.h X.' X . . ) I / ",
"P W P / / X E P O 5 z P.Q.~.~.~.~.Q.I.n.n.n.n.n.I.W.{.[.[.[.Y.b.v.g.N.^.|.oX,X,X>XT.I.B.B.B.(.].2X;X:X:XXX}.L.h  .( X E P / { ] ",
"] P W ) X . X ) @ 7 v b.Q.~.~.~.~.~.Y.n.n.n.n.n.I.Q. X X X XW.Y.I.I.P.W.{.{..X|.^.B.n.n.n.n.E.^.XX|.|.[.[.U.x.a 1 Q P ) / P ] #.",
"] ) ) ) / ) / ] ( 6 v a.Q.Q.~.~.~.~.Q.n.n.n.n.v.P.W. X X X X[.~.Q.Y.!.{. X X X}.Y.n.v.n.v.v.I.~.{.[.[.[.[.U.d.p | ( ) ) ) ) ) ] ",
") ) ) ) ) ) ) ] / , j 7.Y.Q.Q.~.~.~.~.I.n.v.v.v.n.U..X X X X X{.{.{. X X X X}.!.n.v.v.v.v.I.Q.[.[.[.[.[.[.b.5.y ..) ) ) ] ) ) ) ",
"] ) ) ) / ) / ) ) - u G P.Y.Q.Q.Q.~.Q.Y.b.n.v.v.c.b.W.[.{. X X X X{. X{.{.}.U.P.v.v.v.v.n.Y.Q.[.[.[.[.[.~.s.H 5 ^ ) ) ] ) ) ) ] ",
") ) ) / P X X / / < 8 B c.I.Y.~.Q.Q.~.^.Y.n.v.v.v.g.m.U.W.!.{.{. X X{.[.W.R.c.g.v.v.v.v.n.Q.[.[.[.[.[.[.R.5.C 7 % / ) ) ] ] ) ) ",
"] ) / P W W W P @ + 9 d 7.b.Y.Y.Q.Q.Q.~.^.E.v.v.v.h.e.w.e.g.W.[. X X!.P.a.f.j.h.v.v.v.v.Q.~.[.[.[.[.[.[.s.K d < ( Y ) ) ) ) ) ) ",
") ) ) / P X X W / / 2 p G q.I.Y.Y.Q.Q.Q.Q.'.).n.v.v.v.h.j.j.s.g.m.c.z.g.j.v.h.v.v.v.I.Y.~.[.~.~.~.~.!.P.L h p % ] P ) ) ) ) ) ] ",
"] ) ) ) ) / / X . P T 8 C L q.Y.Y.Y.Y.Q.Q.^.].'.T.c.v.h.h.h.j.j.f.j.g.j.h.v.v.v.v.I.Y.~.[.~.~.[.[.~.U.d.G g : Q ) P / ) ] ) ) ] ",
") ) X / ) ) ) / . ) U 2 s A 8.b.I.Y.Y.Y.Q.^.'.'.).P.v.c.h.v.j.j.j.j.h.h.h.v.v.n.I.Q.~.~.~.~.~.~.~.W.c.4.B p * / P / ) ) ) ] ) ) ",
") / . P / ) ) W P [ @ ! i h Z q.n.I.Y.Y.Y.Y.Y.Q.Q.^.E.T.B.v.v.h.h.h.v.h.v.n.I.Y.Q.~.~.~.~.~.~.~.~.z.5.G f : T / P / ) ) ) ) ) ) ",
") / X ) Y / / P E P . . = i m G 9.s.I.I.I.Y.Y.Y.Y.Y.Y.Y.Y.Y.I.I.I.I.I.Y.Y.Q.Q.Q.Q.Q.~.Q.~.Q.~.W.d.8.G N > | P / ) ) ) ) ) ) ) ] ",
") ) X / ] Y W X X _ X E o : t N F 4.a.I.I.I.I.I.Y.Y.Y.Y.Y.Y.Y.Y.Y.Y.Y.Y.Y.Q.Q.Q.Q.Q.Q.Q.Q.Q.P.s.5.G C a 2 ^ . P / ) ) ) P / ) ] ",
") ) / X ) ] P E P } X @ / < > f B F L g.b.n.I.I.I.I.Y.Y.I.Y.Y.Y.Y.Y.Q.Y.Y.Y.Y.Y.Q.Q.Y.Q.Y.b.a.7.G B s 5 ^ @ X ) Y / / ) X ) ] ) ",
") ) ) . P / / P / ) X W ) O o t d M V K q.c.b.b.I.T.I.Y.I.I.Y.I.Y.Y.Y.Y.Y.Y.Y.Y.Y.Q.Y.Y.c.7.L G B f r T P W I { @ W Y { P / ) ] ",
") ) / X ) Y W X W X . W P / / R r s m V J 7.q.f.c.n.I.I.I.I.I.I.I.I.I.I.I.I.Y.I.I.z.q.7.J G Z B t 7 ^ Y W / ) ) . X / ] P ) ] ) ",
") ) ) X / ] Y W / X   X W ) ) ~ < 8 a M V F K 4.7.0.a.g.b.n.n.n.n.n.n.b.n.c.z.a.0.4.L F G B d s 6 o ' ] X P / X . / / I / ) ) ) ",
") ) ) / Y ) ) Y / W X ) Y / / X ~  .; a d B V A A J 4.7.0.q.a.s.f.a.a.a.a.0.5.4.K S D Z V d a 5 ^ ( ) ) X / / X / ) ) ) ) ) ) ] ",
") ) ) ) ) ) ) W Y W P / ) Y W P / W + > t e m M V V V A A A S J J J J S S A A A S Z B N e r 4 ~ ] ] ) ) ) / ) ) ) ) / ) ] ) ] ) ",
"/ P W ) ) ) ) P ) P W X / ) P / ) P . X T 6 y f e m M C C V V C V V V A V V B B m e w y  .o . W ) ) ] ) / I / ) ) / P ) ) ) ) ] ",
"/ X X / ) ) / P { X E X X P W ) ) / W / ( ^  .4 ; t s d d M M M M M M d d d f g i > 1 | ' W . P / ) ) / P ] Y / / X . / ) ) ) ] ",
"/ X ) Y / / P / ) X X W ) ) Y ) ) / P ) / P W ! < 3 : > r r t p p p t t u u 5 7 , ..% @ / W . ) Y / ) / I { P W Y ] P / ) ) ) ) ",
"/ P / ] Y W X / / X E P X X / ) / P X ) / . X W X ) ' % % < & * * * &  .< T ( Q P { P E P X X / ) Y W X W ) . X / { P / ) / I W ",
") / I ) ] I / ) X . X W W X / / Y [ X / / X ) Y E Y ) ) P W W W X . X ) ] Y W P / ) X X W / / I ) ) . X W X X E I / ) ) ) X W I ",
"P / / ) ] ) ) ) / / W P ) Y W P W ] I / / X / ) Y W ) ) . X . X W / / P ) ) X X / P / / P P P / ) X X W ) P W P ] Y ) ) ) X / { ",
"] Y / ) ) ) ] ) ) X W P ) { Y E @ X W ) ] / P P _ I / / X / P W P X P / ) ) P W / P / ) / / / ) / X ) Y W ) / P { P E Y { . X / ",
"] ] I ) / / ) ) ) . P W ) ] / P ) . P / ) ) W P } P W ) @ I ) ) / ) / ) ) ) ) ) ) ) ) ) ) ) ) ) / P / ) Y / ) ) ) . X / ] I W P ",
") ] / / P X X / W . ) Y / ) / P } P _ Y / / X / ) X P W ) ) Y ) ) ) ) / P / ) / ) ) ) ) / P W ) ) / I ) ) X X / X X / ) I / ) / ",
") ) ) P W W W X . @ / [ Y W P / ) P ) ] Y W P ) / . E P X P / ) ) ) ) P ) P W Y / ) ) ) / . P / ) ) ) ) ) X W / X W ) ) ) ) ) ) ",
") ) ) / . . X / ] ) I ) ) X . W P W X ) ] P W / X   X W / ) ) ) ) ) / P } . X ) P ) ) ) / P ) P ) ) ) ) ) ) ) ) ) ) ) ) ) ) ] ) "
};
