/* XPM */
static char *_d7f2c1e666840eff5a967aca8996793oeutn0RzRQGHeGtw[] = {
/* columns rows colors chars-per-pixel */
"64 64 109 2 ",
"   c #1F1F1F",
".  c #242425",
"X  c #282727",
"o  c #282827",
"O  c #252629",
"+  c #2B2A2B",
"@  c #2F2E31",
"#  c #302F33",
"$  c #2F3031",
"%  c #323233",
"&  c #383837",
"*  c #35343A",
"=  c #38373C",
"-  c #37393D",
";  c #3A3A3D",
":  c #363441",
">  c #393645",
",  c #363940",
"<  c #3B3B43",
"1  c #3D3B4A",
"2  c #403F47",
"3  c #413D4D",
"4  c #433F51",
"5  c #3E4145",
"6  c #3E4048",
"7  c #414246",
"8  c #44444C",
"9  c #46494D",
"0  c #494B4E",
"q  c #454254",
"w  c #494654",
"e  c #464A54",
"r  c #4A4A54",
"t  c #474558",
"y  c #494659",
"u  c #464B5A",
"i  c #4A4C5C",
"p  c #514C5E",
"a  c #4C515E",
"s  c #51535E",
"d  c #54585F",
"f  c #4E4F62",
"g  c #514F61",
"h  c #4E5162",
"j  c #555364",
"k  c #585566",
"l  c #545963",
"z  c #595A65",
"x  c #555668",
"c  c #5A5768",
"v  c #565A6B",
"b  c #5A5C6C",
"n  c #575E70",
"m  c #585F71",
"M  c #615D6E",
"N  c #5B616F",
"B  c #5B6273",
"V  c #5F6779",
"C  c #656565",
"Z  c #6C6C6C",
"A  c #616574",
"S  c #686575",
"D  c #626876",
"F  c #646778",
"G  c #646B7B",
"H  c #696C7C",
"J  c #6F7070",
"K  c #6B717F",
"L  c #747475",
"P  c #777779",
"I  c #77787A",
"U  c #79797A",
"Y  c #676E80",
"T  c #696E80",
"R  c #6B7282",
"E  c #6E7789",
"W  c #717685",
"Q  c #717885",
"!  c #7E7E80",
"~  c #707688",
"^  c #737A8B",
"/  c #797D8C",
"(  c #767E90",
")  c #7F8081",
"_  c #7C828E",
"`  c #778092",
"'  c #7B8495",
"]  c #7C8698",
"[  c #818283",
"{  c #808695",
"}  c #838A96",
"|  c #838B9A",
" . c #898E9B",
".. c #87909F",
"X. c #8D939E",
"o. c #959595",
"O. c #9C9C9B",
"+. c #8790A0",
"@. c #8992A2",
"#. c #9096A1",
"$. c #929AA7",
"%. c #959CA9",
"&. c #A4A4A4",
"*. c #A7A7A8",
"=. c #AAAAAA",
"-. c #AFAEB0",
";. c #B0AFB1",
":. c #B3B2B3",
">. c #BBBBBB",
/* pixels */
"O.O.o.o.o.o.o.o.o.o.o.o.O.O.O.O.O.O.O.O.O.O.O.O.O.O.O.O.O.O.O.O.O.o.O.O.O.O.O.O.O.&.O.O.O.O.O.O.O.O.O.O.O.O.&.&.&.&.&.&.&.*.&.Z ",
"O.[ U ! ) ) ) ) ) ) [ [ [ U L P L U U [ ) ) [ [ ) [ [ [ [ ) [ [ [ ) [ [ ) [ [ [ [ [ [ [ ) [ ) P L L U [ [ [ [ [ [ ) [ [ U [ :.Z ",
"o.I X.#.#.#.#.#.#.#.#.#.X.0 @ @ $ + 8 _ _ _ _ _ _ _ { _ _ _ _ _ _ _ _ _ _ _ _ { { _ _ _ _ _ ! & + $ 0 }  .| | | } }  ._ q r ;.J ",
"O.I X.%.$.$.$.$.$.#. .@.X.s ; o + ; s _ _ } ] } ' ' _ ) _ ^ ) _ ' { } _ } } _ _ / Q / / Q _ R 6 % o 8 } | | | | ] ' _ Q 2 r ;.L ",
"O.I X.%.@.@.@.@.@.` R R K R D # $ K _ _ _ _ _ _ _ _ D N N N N B / _ _ _ _ _ _ K N N N N N N N B a o 6 ' ' ' ' ' G B B v 1 w ;.P ",
"&.U X.$.@...@.| } / R H H R D % % E _ _ Q Q E Q Q Q A b z N N A K Q K E Q Q Q D N N N N N N N x r + 7 ' ( ^ ( E V B B v 1 w ;.P ",
"&.U #.$.@.@.@.' R R T R T T D & & Q _ _ Q N N N N N l j z k b N N N N N N N N N N N N N N N v r 7 + 9 ' R n B B n n m x < w ;.L ",
"&.U @.#.' / / W H H K R R D b & & Q / K G N N N N N z b k d c z z b N N b b z z b N N N N N b i 7 $ 9 ' R n n n n B m b 1 w ;.L ",
"&.U #. .T T S S S H R R H M s % & Q Q N N N N B N N N N z k d k k z N b k s k j d b N N N N b r 1 @ 8 ' E m m m B n m v 1 w ;.L ",
"&.P #. .H H S S H H T F F c j % & Q Q B N N N N N N N N z c c b z b N N z z d k M c N N N j s w 7 $ 8 ' T m B m n v c x > y ;.L ",
"&.P X. .S S S S H R H b c c j % & Q Q N N N N N N N b N N N N b N N N N N z k z N N N b b w q w 2 @ 9 ' R n n m x g g g < w ;.L ",
"&.P #.@.T S M b M b M b j c s * & Q Q N N N N N N N s p i i r p p i i a N N b b N s i p r w w w 2 $ 1 V V n c x v b m v 1 q ;.L ",
"&.P X. .T S k k k k j j c k p % ; Q Q N N N N N N b i w q q q w 8 q q p b N b N N i w w q w w w 2 # < v m B v j n m m v 1 w ;.L ",
"&.P X.| M M k k k k k M c c s # % N D N N B N N l i w w q w w w w w 8 w i p p i p w q w w w q w 2 + - B m m m b m m j y > w ;.L ",
"*.U #.} c k k k k k k k k j s @ $ a x b b b b b s w w w w w w w w w q w w w 8 w w 8 w w w q w w 1 o - x v m n v n v y 4 > w ;.L ",
"*.U #.} c k c c k c k k k M s @ + + - w r r r w w q w w w w w w w w w w w w q w w w w q 8 w w w 1 o o $ > t q t t t w 4 > w ;.J ",
"*.U } ! g g j s j s j j s p i @ o o % 3 q q 8 8 8 8 q 8 q 8 8 8 q 8 8 q 8 q w t q w w w w w q q 1 o o o - 4 1 4 3 3 q 3 : q =.L ",
"=.Z & % + # * % % % % % % # + o X o + + + + + + $ $ % $ # # $ % % # + + + ; w e w w w w w w 8 # + o o o o + @ # + + + o . & =.L ",
"=.Z o @ 7 7 8 8 w 8 w y 8 7 7 7 7 7 , o X X % < < 5 6 6 2 6 5 5 1 5 , * X * 6 1 2 2 2 2 2 3 < + o o $ 5 6 7 8 8 8 6 $ o   % -.L ",
"*.Z @ 2 / ' ' ' ( ' ' ( ' ' ` ' ' ' D o X X e H G G G G D G G G G D H l X O + o o + @ # + X O O o o 5 ` ` ` ' ' ' ` 6 .   & =.L ",
"*.J 8 l ` ] ' ' ] ] ] ] ( | ( ^ E ^ D , * o e G Y G G G V B B B B B B l # $ O # 7 8 9 8 y 8 7 8 6 5 h ` ] ] ( ^ E E e * . % -.L ",
"*.I { | ' ' ' ] ( ( ( ] ] ( ( V B B m B i o e G G G G G h a a a a a u a h 1 O d ' ' ' ' ( ( ' ( ` ' ' ' ' ] R m B B B h . % -.L ",
"*.I } { R T H T Y ( ] ] ( ( T v v m v h e + r G G G B v h i r u a u a u 6 > + l ] ' ' E E T ~ ( ] ' ` Y K H V m B B B x o % =.L ",
"*.I } ' m b g v m E ] ( ( Y n j x m l w 1 $ u Y G G x u r r t t u h u e > * + l ' ' ' G m m m ( ' ] ^ B x j x B n B B l o $ -.L ",
"*.I } _ m m v m m Y T Y H M c v x g f 4 2 + r G A x a i t t u u h u h u > # @ v ' E Y V n v b T Y E Y B m c m m B n x y O % =.L ",
"&.I } ' m m m m m m m x j j j n n t 4 4 2 $ r K z w w w t u u f u h h 6 > : + l ' Y n n n j j n n m n m m m m m n n f 1 O # =.L ",
"*.I } / f y y x m m m f i y y i y t 4 t 1 $ u G x w i i u u 6 6 u h 6 1 > * $ l ' V m x x j j c v m m m x y f y u f 4 1 . % -.L ",
"*.I } Q t 4 4 f m m m y 4 4 4 4 4 4 t 4 7 $ u G b e i i f u 1 > u 6 > > > # $ l ' G m x g j j j x m m m f 4 4 4 1 t q 1 . & =.L ",
"=.U } Q w 4 4 y f y f t 4 4 4 t t 4 w 4 3 X 1 x a i f u 6 1 > > 1 > > > > # O u G B B n n b v y y f f y y 4 t q w 4 4 3 . % =.L ",
"*.U  .Q 4 w w 4 4 4 4 4 t 4 4 w t 4 4 3 > X - u u u u u 1 > > > > > > > , # O 6 x v n n v n v t 4 4 4 4 4 q 4 q 4 t 4 3 . # =.L ",
"=.U } Q t 4 w 4 4 4 t 4 4 4 t 4 4 4 3 @ + X + @ * 1 1 > > > > > > > > : + + + + # 3 t 4 t t t 4 t 4 4 4 q q 4 4 4 t w 3 . & ;.L ",
"*.U _ K 4 4 4 3 4 4 4 3 4 4 4 4 4 4 > o X + + X @ : : : > > > > > > > * o O + O X > 4 4 3 3 4 4 4 4 4 4 3 4 4 3 4 4 3 > . % =.L ",
"=.J ; & % $ + + @ + + + + @ # % # + o . X o X . o o + $ % + % + $ + o o o o o o o + + @ + + + $ % $ + + o + + o + + + o . % =.L ",
"*.J 0 0 9 9 7 & o o o < 8 9 0 r 0 9 9 8 8 8 8 8 9 8 0 r r 0 r r 0 e 8 8 8 8 8 8 8 % o o + < 6 8 8 8 8 7 6 1 7 6 2 7 7 6 X ; -.L ",
"=.U ' ..{ { ' d o o o K @... . ...+.@.....@. .@.| @.| @.....+.+.+.....+.......+.| 9 X X $ R ^ ^ ^ ^ ^ ^ ^ ^ ^ ^ ^ ^ ' / 1 w ;.L ",
"=.U } } / _ _ a O & 9 / @.@.@.@.+.| ' | ] } | @.@.@.| | ] } | { ' ] { } } ] | ' / 7 o ; e R ^ R R R R R R R ^ / ^ R / W 3 w -.L ",
"=.I } ' D D D w . z @.@.@.@.@.@.| W R R R R ' @.@.+.^ T T R R T S S S H R R R A k * X N ^ ( E n v v v v v v R } K B D N 1 w :.L ",
"=.I } { A A z 6 o z @.@.@.' ( ' ` R H R H H W / / / R R F A A A M S S H R G A b k = + D ^ F B x x v x l h h b H D V D N 1 w ;.J ",
"=.U } _ F b i , o z @.@.@.^ T T H K R R H S S S S S H R M k k k k M T T T S k k k ; # D ~ g f f h x x p h p p p N D D B < w ;.L ",
"=.U } _ k j i ; o d ' ` ' W H F D A F R S M M M M M A A c k k k k b A A A b k k k ; + x F x h h h u u t w t i p j j j p > w ;.L ",
"=.U } Q p r r < . r R K T R H c k k b T H c k k k k k k k k k k k k k k k k k k k * o i v x x v f 1 1 4 1 3 t g 3 3 1 1 > y ;.L ",
"*.P ] / r w # @ X 8 M m M M b c k k k M b k k k k k 3 % * * & ; ; ; < = ; ; ; ; & + o 1 u y 6 f 4 4 4 4 4 3 4 q 4 3 4 4 > t ;.L ",
"&.P { ! p 2 + X X 2 k l j k k k k k k k j k k k l l * o X X o o $ % @ @ $ $ @ @ o o o > 1 4 1 1 4 1 4 1 4 1 8 1 1 4 1 1 > w ;.J ",
"&.J 9 5 # # X + X # * - ; ; ; ; ; ; ; ; ; < ; ; - * + o X # N D D Z G G G G G G D < o + # # # $ # # # * # @ $ $ # @ # @ O ; ;.L ",
"&.Z + o # % % % * $ # - & * - - & - - ; = = = & * $ $ o $ < ^ ] ' ] ] ' ] ] ] ' ' r $ + o o o o + # % * % % $ % $ % o o   # =.L ",
"O.Z + < W ^ ~ ^ ^ E ^ E ^ ^ ^ ^ ^ ^ ^ ^ ^ ^ ^ ^ E Q 5 o N ^ ' ' ] ' ' ] ' ' ' ' ' ^ E 5 o o o o : m D B B B B B B B ; X   * -.L ",
"&.Z & e ' ] ] ' ' ' ' ' ] ' ' ] ' ' ' ( ( ' ` ` ` _ 5 + D ] ' ' ' ' ' ' ' ' ' ( ` ` ` 9 @ o o + 6 G H G V V G G G D < o   & =.L ",
"O.L / ' ' ' ' ' ' ' ] ' ' ' ' ' ' ] ^ B V B B D B B 5 $ G ] ' ' ' ] ] ' ' ' ] E V B B v h $ $ N V G H G N h N G x h i 8 . % -.L ",
"O.L {  .] ( ( ( E E ^ ( ] ( ] ^ ^ ^ R v v n n n c n > # G ' ' ' ~ ^ ( ] ( ^ ~ Y n m m v h $ % A G G G B x a v B h u u 6 O * -.L ",
"O.L { | ( ^ m m m m m ^ ] ] ( V m m n k j j j j n n > # G ] ' ` Y Y ] ( ] T g v m n m i q $ & B G G B h u a u h 6 h h u O * =.P ",
"O.L { ..' ^ m m m v n T ~ ~ ~ m m b v j j c g g j k > # D ' ] ( m V ~ ~ ~ S j c m m m i 1 % & B V B v a i i i i h a u 6   & =.I ",
"o.L } | ] ^ m n j j j j j j c m n j j j c m g 4 q 4 = # G ] ' ' m c k k j j j j g m m i q % & A B h a a i w w w u u 1 :   & =.P ",
"O.L } } R G m c j j j g j c c m m v v n x j f 4 4 4 * % G ' R Y m c g c v v v v c x f t 4 % * B B u i i i i u y t u 1 * . % ;.P ",
"O.L } ` B B m v j j j g j b m m m m m m x 4 4 y q q * # G ( B B k g g c m m m m m i 4 4 4 % & B B r w w i i i y u f 1 :   % =.P ",
"O.L ] _ v c v c c g p p p f f m n f f j f 4 4 4 t 4 = % H ` V v x x g g m v f j f f 4 t 4 $ & B B i e 3 6 6 t u q 6 1 :   % -.U ",
"O.P } _ l g j v Y g 4 4 4 4 t n v f 4 4 4 4 t 4 4 4 * # D ` V b m x 4 y n f 4 4 4 4 4 4 8 $ * B B a e > > > 6 f 1 > , - . & =.L ",
"O.L } { m b m g t q 4 t 4 4 t y p 4 4 4 t 4 t 4 q q * + j Y m m f y 4 t y t 4 4 w 4 w 4 4 @ @ h f 1 1 > > > 1 1 1 > > :   # ;.P ",
"&.L { / m m m j 4 4 4 4 t 4 4 4 q 4 w 4 4 w 4 4 4 4 @ + i m m c y 4 t 4 4 t 4 t 4 q 4 4 4 @ @ t t > > > > > : > > > > : . # =.P ",
"&.Z 8 q p i y 4 q q q t 4 4 t 4 4 q q q 4 4 w 4 > $ + o * , w y t 4 t 4 4 4 t 4 q q 4 & @ X @ 1 1 > > > > > > > > > # +   & =.I ",
"&.Z + + 3 3 3 3 1 4 1 4 4 4 4 4 3 3 3 2 4 4 4 3 * O o o . + 2 2 1 4 1 4 4 4 4 4 3 3 3 @ . O X * : : * : : : - & > : + O   % =.P ",
"*.Z + X .   . . . . . . . . . . . .   . . . . . .           . . . . . . . . . . .   .         .     O       . . . .       % -.L ",
"*.U ; & % % % % % # # * # # # # % % % % % $ % % % % % % % @ % % # % # # # # # # % % % % % $ % % % % % % % % % % % % % $ $ 7 -.U ",
"=.>.:.-.=.=.=.=.*.=.*.*.*.*.*.*.*.*.=.*.*.=.*.=.*.=.*.=.*.=.*.=.=.=.*.*.=.*.*.*.*.=.=.*.*.=.=.*.=.=.=.*.=.*.*.*.*.*.*.*.=.=.:.L ",
"U U ! ! ! U U U U U U U ! P ! ! U U U U U P U U U I I P U U U U U U U U U U U U U U U U U U I I I I U I U U U U U U U L U U P C "
};
