/* XPM */
static char *_d7a9742780e4bf7ebaf3f002685a561MEbzGDibydebpwbI[] = {
/* columns rows colors chars-per-pixel */
"64 64 206 2 ",
"   c #1C6E12",
".  c #1D7512",
"X  c #1E7C12",
"o  c #376E12",
"O  c #237B15",
"+  c #2B7C16",
"@  c #367917",
"#  c #5D5E12",
"$  c #7C580E",
"%  c #6E5B15",
"&  c #50610F",
"*  c #56760F",
"=  c #456915",
"-  c #526E17",
";  c #526A18",
":  c #5A7515",
">  c #79620F",
",  c #686715",
"<  c #736510",
"1  c #6C701A",
"2  c #727212",
"3  c #76741B",
"4  c #AE3C07",
"5  c #BB3C06",
"6  c #B23908",
"7  c #C03F03",
"8  c #9C4109",
"9  c #954C0D",
"0  c #9C4A0B",
"q  c #8B550C",
"w  c #94540D",
"e  c #8C5913",
"r  c #975913",
"t  c #A74708",
"y  c #B44D09",
"u  c #A55D10",
"i  c #8C6E1A",
"p  c #976F14",
"a  c #B1600D",
"s  c #A86A15",
"d  c #B36619",
"f  c #AE7113",
"g  c #AF7816",
"h  c #B27510",
"j  c #897521",
"k  c #A87925",
"l  c #B37929",
"z  c #C54205",
"x  c #C94D06",
"c  c #C64508",
"v  c #D14C09",
"b  c #CB5506",
"n  c #CB5C06",
"m  c #CA5308",
"M  c #CD5D09",
"N  c #D35A08",
"B  c #CC6306",
"V  c #CF6807",
"C  c #D46307",
"Z  c #D26B06",
"A  c #DA6E07",
"S  c #D46409",
"D  c #DB6C09",
"F  c #D37006",
"G  c #D77908",
"H  c #C67710",
"J  c #1F8113",
"K  c #208613",
"L  c #218A13",
"P  c #378E18",
"I  c #229413",
"U  c #2D9517",
"Y  c #239B14",
"T  c #2C9B16",
"R  c #369916",
"E  c #24A414",
"W  c #26AD15",
"Q  c #2BAB16",
"!  c #2EA518",
"~  c #2CAC19",
"^  c #35A117",
"/  c #38A41B",
"(  c #27B216",
")  c #28B417",
"_  c #28B917",
"`  c #29BB18",
"'  c #478915",
"]  c #578617",
"[  c #528915",
"{  c #548A1C",
"}  c #47951A",
"|  c #44971A",
" . c #608214",
".. c #4F8F21",
"X. c #5E9022",
"o. c #688922",
"O. c #718921",
"+. c #2AC217",
"@. c #B98311",
"#. c #8F8326",
"$. c #B7802A",
"%. c #B79030",
"&. c #CB8A0F",
"*. c #DF890A",
"=. c #C48710",
"-. c #E38908",
";. c #EE890D",
":. c #E49409",
">. c #ED930A",
",. c #E69D09",
"<. c #E89A08",
"1. c #F39D07",
"2. c #F09B0A",
"3. c #EC8311",
"4. c #EF9A13",
"5. c #EF9B1B",
"6. c #F29D17",
"7. c #DFAE0F",
"8. c #DEB312",
"9. c #EEA606",
"0. c #E5A10A",
"q. c #ECAA08",
"w. c #EFAD0B",
"e. c #F3A407",
"r. c #F9A405",
"t. c #FBAD03",
"y. c #F2A20B",
"u. c #F2AB0B",
"i. c #F6AC08",
"p. c #EDB308",
"a. c #EEBC0C",
"s. c #F5B405",
"d. c #FCB302",
"f. c #F5BD06",
"g. c #FCBC02",
"h. c #F4BB09",
"j. c #FABE0C",
"k. c #F1A61B",
"l. c #D5963C",
"z. c #D7AB39",
"x. c #EFAE23",
"c. c #F1A824",
"v. c #F3BB2F",
"b. c #E5B33A",
"n. c #EFC006",
"m. c #FDC401",
"M. c #F4CB07",
"N. c #F6CC06",
"B. c #FCCC02",
"V. c #F3C609",
"C. c #FDC40D",
"Z. c #FCCB0D",
"A. c #FCD302",
"S. c #FDDC01",
"D. c #F6D609",
"F. c #FAD20A",
"G. c #F7DD08",
"H. c #F9C211",
"J. c #FCCC11",
"K. c #F7CA1A",
"L. c #FAD413",
"P. c #F9D817",
"I. c #FDE302",
"U. c #FDED02",
"Y. c #FAE509",
"T. c #FDF102",
"R. c #FDF10C",
"E. c #FDE718",
"W. c #FBF11B",
"Q. c #EFC423",
"!. c #F3C526",
"~. c #FADA26",
"^. c #E6C33F",
"/. c #F5CC35",
"(. c #F6D235",
"). c #F8D835",
"_. c #F7D53C",
"`. c #FCE628",
"'. c #FCF222",
"]. c #FEF32C",
"[. c #F9E435",
"{. c #FDEC39",
"}. c #FDF536",
"|. c #FDF43C",
" X c #E6BB45",
".X c #EAC646",
"XX c #EFD341",
"oX c #F3DB43",
"OX c #F5D846",
"+X c #F7E343",
"@X c #F8E343",
"#X c #FAEC43",
"$X c #FAEC4B",
"%X c #FDF345",
"&X c #FDF645",
"*X c #FEF846",
"=X c #FDF34B",
"-X c #FDF64A",
";X c #FEF84D",
":X c #FBE853",
">X c #FDF354",
",X c #FDF55D",
"<X c #FDF85A",
"1X c #F6EB61",
"2X c #FCF365",
"3X c #FCF570",
/* pixels */
"W W ( W W ( E X . X E ( E J E E J W W W W W W ( W ( W ( E X ) J E E . W W . . E ( ( J E E J E _ L Y ( ( W W W W W W ( W ( ( W ( ",
"W ( ( E W W W E E E W W W Y J E W W W W W ( W W W W W W E J E ( J Y J E E . I J X X E ( W E J W ( L E ( W W W W ( W W ( W W W W ",
"( W E K E W E X E W ( ( W J ( J E E W E W W W E W W W E J Y J W _ J E E J . J E Y J Y W W Y X E ( E W ( W E X E W W W W W W ( W ",
"W E K W K Y X   X E W W E J ` J Y J X J Y J W W W W W J W I E W W X E J Y E E E J ( L W E J . E ( W ( W W E . J E W ( W ( W W W ",
"W E J ` X J W K E L E E X E ( . X Y E W J . _ J E W W J +.J Y J +.J E E J E ) E J _ J Y L ( J E ( W W W W W X W L E W W W J E W ",
"E X E W J E E J E ( L Y J E E J I J X J Y X W ) J E E E E . J E ) J E ( ) J E E W W . X E ( J W W W E W W E J E W L E W E . J E ",
"E J E J E E J Y L ( ( L E E J Y J Y E E W E J ( _ X J Y X . E E J E E J W ( J J Y X . Y W L Y W ( E J E W W E J J W J E E X E J ",
"J Y E X Y J E W E W W W ( ( E E . J E ( W E E ( W J Y W J E W W E W W E W W J Y W J E W W W ( ( W E . J E W W Y J +.J I X . L W ",
"W L W E J E W W ( ( W ( W W ( W X ~ J E W J W ) W Y J Y E W W W J ) J W E E E W ( E ( ( ( W E ( W E X E L E E X E ( . J Y E W L ",
"( E W W W W W W W W W W W ( W Y J W ) J I J E E J E . J E W W Y J +.J Y X X J E W W ( W ( E J E W E . X I L Y J E E . I J X J E ",
"W W W W W W W W X Y W W W W E L Y J E . J E E J X Y J E J E E J E ( . X Y W W X E W W W E J ( J W W E X E W L E E J . J E W E W ",
"W ( W E W E W W . J E W W W J W J E E J W J E E W E J E ( I Y J E E . I X X X X ) J E ( W J ` J Y L _ J W ( W W W W E E W W W W ",
"W W E J X J E Y X W L E W Y K _ J E W W W W J E ( W Y J W ( J E E J . J Y E E X E ) J E E W W . X E W J W W W W W W W W W E W W ",
"( W K I Y Y X X X E ( L Y J E W J E W E X J ( J E E J Y W ( W W W E E W ( ( W E J W ( X J E X . E E L E W W W E L E W W E J W W ",
"W W E J X X Y E E J W W X X Y L W J Y J I J ` J E J ) @ ..o.o.O.o.o.X.| ! W ( W W W W X E E J E E J E E W W E J W L W W E X E W ",
"W W W E E E J X J Y J Y J E Y J ` X .   X E ( X P 1 #.%.z..XXXoXoXXX.Xz.%.#.{ ! ( W W E W W E ( E X W I E W W J _ J Y L _ J W W ",
"W ( W W W W E E E E . J Y E J E W J I X E I U , g 8.[.>X;X;X;X*X%X%X*X%X#XoXb.#.{ E Y J E ( ( E X J E ( L E E E W . X E W J W W ",
"( W E J E W W W W E X W J Y J E J E E J E | p 7.Y.R.|.=X-X-X%X*X*X-X*X%X%X%X%X@Xz.j @ O E W W E J ( L W W X J E X X E W L E W W ",
"W E J I J E W ( E . X W _ J E E J Y J Y - @.D.R.T.R.|.-X-X-X%X%X%X*X;X*X%X%X%X%X%X^.$.= O E E O E ( E W E J E W J E W W W W W W ",
"( E J E J E W E J . Y J ( ( J E E J E ] =.Y.T.U.T.R.|.-X-X-X-X%X%X-X*X*X%X*X%X%X%X*XoXl | J Y K E K E E J E W W E W W W W W W W ",
"W E J E E X Y L ( J E E W ( E W W W [ =.Y.T.T.T.T.T.}.#X_.v.c.5.5.c.v._.-X-X%X%X*X%X|.OXl | K Y E J I K E W W W W W W W W W ( W ",
"W W E J W J . E ( J E ( W ( ( W W | h G.T.T.U.T.T.Y.!.6.;.>.4.k.k.4.;.3.5./.-X%X%X%X%X*X_.k / K E Y J E W W W E L E W W W ( ( W ",
"W W E J ( _ J E J E ( ( ( W ( W ! i a.U.U.T.T.T.I.u.>.i.Z.L.+X2X2X:XL.j.y.;.c.#X%X%X%X#X%Xb.3 ! E X Y W W W W J W L E E E W W W ",
"W ( W W ( ( E E J E W E E E ( E ; &.U.U.U.U.T.I.y.e.C.L.[.$X=X*X-X2X2X:X~.H.>.c.{.%X%X%X%X$X$...E . J E W W E J ( J I J J L E W ",
"W W W W W W E J W J Y J . J E T w V.U.U.T.U.U.u.i.m.B.`.-X-X%X%X-X%X>X<X3X).J.2.x.=X%X#X=X>X X% X X W L E E J E W X X I W W L E ",
"( E J E W W E L _ X J W . I X = H I.I.U.U.U.f.i.m.m.A.'.%X%X#X(.(.#X%X%X<X[.Z.J.y./.=X=X>X,X1Xl T J E W L Y J E E X I J X J E W ",
"( E . J E E X E W X E E X X Y 1 0.I.I.U.U.G.i.m.m.m.A.R.|.=XQ.u.w.!.-X-X<X@XZ.Z.j.k.$X>X>X>X2Xl.= E L W W L E E J . J E E W W W ",
"W E X E L Y J E J E E L E E X q n.I.U.I.U.V.d.m.m.m.D.T.W.%X`.L.Z.K./._._.(.Z.Z.Z.i._.;X>X=X>X X2 W E W W W W W E E E W W W W W ",
"( E J E W L Y E X Y L E W E X s N.I.I.I.U.f.g.m.m.g.h.Y.T.'.%X{.`.K.u.i.u.H.J.Z.C.j.!.=X=X=X>XOXi ~ ( ( W W W W ( W W W W E W W ",
"( W E L E ( L E . X Y W W E + f A.I.I.I.I.f.g.m.m.m.s.h.U.R.'.%X%X%X{.~.J.J.J.C.C.C.!.$X$X=X$XOXp / W W W W J E W ( W W E L E W ",
"W W W Y L E W E X E L E E J T h A.S.I.I.I.m.g.m.g.g.m.r.9.V.Y.W.|.%X%X%X`.Z.Z.C.H.C.K.#X=X%X=XOXs ^ ( W W E . J E W W E L W L E ",
"W ( E L W J E E X E ( L Y J T a F.S.S.I.S.m.g.g.g.m.g.g.s.e.2.w.K.{.%X-X-X~.C.C.C.C.K.#X%X$X=X+Xd ^ ( E W E J W L E W Y J W J E ",
"W W E J ` J Y J X J W ( J E T u N.S.S.I.I.m.g.g.g.g.B.S.S.G.m.s.e.a.W.].|.[.C.C.C.j.~.-X#X{.].P.a ^ E J E Y J E ( L Y .   X . E ",
"W E J E ( . . Y E W J E W E + r f.A.S.S.S.B.d.g.g.g.D.T.T.T.A.g.g.f.Y.T.R.E.g.g.g.g.L.E.R.Y.I.V.y T J Y J J Y I ( ( X . . W K E ",
"J Y X E E . I J . J E W W E X w 9.A.A.S.S.A.g.g.g.d.N.T.U.T.I.D.B.I.T.T.U.B.d.d.d.g.S.I.I.I.U.q.0 T E J I Y E W W E X I K E ` ( ",
"( L E W J . J W J E W ( W ( Y $ -.A.A.S.S.S.m.d.g.d.M.T.T.T.T.T.T.T.T.T.G.g.d.d.d.B.I.I.I.I.I.-.e J E Y . . X X K Y J W E K W +.",
"W W W W E W E W W E ( ( W W W # N m.B.A.A.S.A.g.d.d.r.h.I.U.T.T.T.U.U.N.u.d.d.d.g.S.I.I.I.I.M.C 2 K Y J . X Y E E W E W W W W ( ",
"W W W W ( ( W ( E X E W ( W W ' y 1.B.A.A.A.S.J.d.d.d.1.2.u.D.U.T.F.9.2.s.d.d.d.B.I.I.S.I.I.0.x [ X X Y E W L E ( ( ( ( W W W W ",
"W W W W E E E W E . X E W W E K 9 D g.B.B.A.A.G.P.s.d.d.t.r.e.u.u.i.t.d.d.d.d.B.S.I.S.I.I.n.A t U X I X . X E W W W W W ( W W ( ",
"( ( W E J X J E E X E L E ( Y J  .c -.m.B.B.A.F.P.P.f.t.t.d.r.r.r.t.d.d.d.g.A.S.I.S.S.I.A.-.b < X   . I X . E E K E W ( W ( W W ",
"W ( E K I Y Y J X X E ( L Y J E ^ 8 N <.m.B.B.B.B.A.F.Z.g.s.t.t.t.t.d.g.B.A.S.S.S.S.S.S.<.C t R Y . . J ( X Y L W L E ( ( ( W ( ",
"W W W E J X J I E E J ( ( X . E K : 5 N :.C.m.m.B.B.B.A.B.N.B.B.N.B.B.A.A.A.A.A.S.A.A.,.A z % E Y X W L ( K Y J ) J E W ( W W W ",
"( W W W E E E J X J Y ( E X E E X T $ z B *.g.m.m.m.m.B.B.B.B.B.B.B.A.B.A.A.A.A.A.N.:.D v q U X X X E ( L I X E W J E ( W ( ( W ",
"W W X E W W W E X ( J E ( W E X Y E o 9 c n G i.s.m.m.m.m.B.m.B.B.B.B.B.B.B.B.A.p.G D M 8 o X Y W E L E ( X . E J E W W ( W W ( ",
"W E . J E W W E K ) O Y E W E . + E E @ 0 z n G <.u.g.m.m.m.m.m.m.m.B.m.B.m.w.*.A D x t P E E X X X W K Y J Y E J W W W W W W W ",
"W E X W L E E J I K . . X E Y X E L E E P 9 7 b C Z F :.9.s.d.g.f.g.s.9.:.G Z S C z 9 | W E W E I K _ O J W J E W W W W W W ( W ",
"W W J E ( L Y X X E X I X . X X E ( L Y X U < 6 7 b n n n V Z Z Z Z V B B C M x 5 $ ^ W E L E W X E W X E E . J E W W E J E W ( ",
"W W E J E ( J I K _ X X W X E E K W ( O   . O ' q 6 y x b n n b n n n n m z 5 9 [ Q _ L W W L I X E J E E J . W L E W W X E ( W ",
"W ( W . J E E J E W X E W X X J Y J E J Y . X E Q ' < 8 t 5 7 7 z 5 5 4 8 > [ W W ( W _ ( W ( K . W K Y K Y K _ O Y I ` J E ( ( ",
"W W E X W L I J E X . I K E E Y J W J E Y . E L E E J T R = & * *  .= R O E E ( W E J W E L E W K E ( L Y E W W . X E ( J E ( W ",
"W W E J E W L Y E .   X Y W W E J ` J Y J . J E L Y J E E . I X X X . X . Y J ( L Y E E L ( L E E K W ( X X E X X E E L E W W W ",
"( W W E L W W L E Y X W L E E J E ( . X Y W W L E L E W X . J Y X I Y Y . X X E W I Y J E W K E W W ( E X E E J E E ( E W W W ( ",
"W W W W E W ( E L Y X W ( L Y J E E X I J J J E W E W W E E E ( E J . J Y W Y L W ( X X E X Y E W W ( W E E W E W W E W ( W W ( ",
"E J Y W W ( E J W K I J E W K E E J . X E E E E K E ( ( ( ) ( E E E Y E J J J E W E J Y E X X E W W W W E L E W W E J W W ( ( W ",
"E X X E W ( E J _ J I X X J Y W W E E E W W ( E . K E E E E E J X J X E E E E W E J Y E W Y . J E W ( E J W L W E J . E W W W W ",
"E X W L E E J E ( . X I W W K W W E X W E X E E X E L Y J . . Y W E . X E W W W J ( L J E Y X W L E W E L _ J Y L W X W W W W W ",
"E J W W L Y X W E X I X X X E W E K . E E X K Y K E ( L I X . X . . . W L E W Y K _ X I J X X E ( L I J E W . X E _ J E W E J E ",
"W E J W W K E W X . J Y Y X E E L ) X E E X E L I K W W J Y Y I . . X W ( L Y J E W X X Y E E L W W X X Y X X I L E W W W X Y J ",
"J E W W W W W W E E Y J W L I L Y ) J W E J E W K Y W W . X . X Y W Y J W ( X X E J E E J J J E W X . I E J I K W L W W W X E _ ",
"( L E W W W W W W X I K W _ L I X X Y ( ( E X J W K W E X Y K Y J X J E W W J Y E J E W E E E W E X W L E W E J _ J I L _ . X E ",
"( ( L W E E W W E . J Y W ( E K W X X E W ( Y J _ O Y E X K W W W E E W E W W E W E W ( W W W W E J E ( L E E W W . X E ( J Y J ",
"W W E E J X X E Y X W L E W E K ` J E L E E J E ( X J E W W L W W W W E L E ( E W W ( W E J Y W W E J W W X J E X . E W L E W E ",
"W W W J Y Y Y X X X W ( L I X E W J E ( L Y X E E . I J J J E W W W E K W J Y L E W W W E . X E W W W W W X E E X E W W W W ( W ",
"( W W Y . . X E W W J W ( X . Y J Y J W ( J E E X   X Y E E W W W ( E K _ X X W K W W W E J W K W W ( W W W W W E W ( W W W W ( "
};
