/* XPM */
static char *dabe3d2044494d7eafa79a9d2ac1da90fyOuyoJ03ArMxdx3[] = {
/* columns rows colors chars-per-pixel */
"64 64 135 2 ",
"   c None",
".  c #07090C",
"X  c #0C0C0C",
"o  c #110F0C",
"O  c #14110C",
"+  c #0F1012",
"@  c #131313",
"#  c #1A1917",
"$  c #151719",
"%  c #17181A",
"&  c #1C1C1B",
"*  c #20170B",
"=  c #261C0D",
"-  c #2A1F0F",
";  c #241D12",
":  c #2D210D",
">  c #36250C",
",  c #3F2A08",
"<  c #20201F",
"1  c #232323",
"2  c #262728",
"3  c #2B2B2B",
"4  c #2F3030",
"5  c #333333",
"6  c #3C3C3C",
"7  c #422C09",
"8  c #482F09",
"9  c #493009",
"0  c #533507",
"q  c #5D3C07",
"w  c #523508",
"e  c #593908",
"r  c #613E07",
"t  c #3F403F",
"y  c #654107",
"u  c #6E4606",
"i  c #634008",
"p  c #6A4408",
"a  c #764B06",
"s  c #7B4E07",
"d  c #724908",
"f  c #434444",
"g  c #484847",
"h  c #474748",
"j  c #474849",
"k  c #4B4B4B",
"l  c #4F504F",
"z  c #50504F",
"x  c #4F5050",
"c  c #535353",
"v  c #575857",
"b  c #575858",
"n  c #5C5C5C",
"m  c #636363",
"M  c #6C6C6C",
"N  c #737373",
"B  c #7C7C7C",
"V  c #855406",
"C  c #8A5705",
"Z  c #8F5904",
"A  c #905A06",
"S  c #985F05",
"D  c #9C6104",
"F  c #A06404",
"G  c #A86904",
"H  c #AB6A04",
"J  c #AD6B04",
"K  c #B36F03",
"L  c #BC7403",
"P  c #BE7502",
"I  c #C37903",
"U  c #C47902",
"Y  c #C67B02",
"T  c #C77B02",
"R  c #C47A02",
"E  c #C87C03",
"W  c #CA7D02",
"Q  c #CE7F02",
"!  c #CA7D03",
"~  c #D28102",
"^  c #DE8901",
"/  c #DF8901",
"(  c #DF8A01",
")  c #DD8801",
"_  c #E08A01",
"`  c #E48C01",
"'  c #E98F00",
"]  c #ED9200",
"[  c #EE9200",
"{  c #EB9100",
"}  c #F29400",
"|  c #F29500",
" . c #F39500",
".. c #F39600",
"X. c #F49600",
"o. c #F59600",
"O. c #F59700",
"+. c #F69700",
"@. c #F79700",
"#. c #F39600",
"$. c #F79800",
"%. c #F79800",
"&. c #F89800",
"*. c #FA9900",
"=. c #F89800",
"-. c #808080",
";. c #818181",
":. c gray51",
">. c gray52",
",. c #868686",
"<. c #848484",
"1. c gray54",
"2. c #8D8D8D",
"3. c #8F8F8F",
"4. c #8A8A8A",
"5. c gray57",
"6. c #939393",
"7. c gray58",
"8. c #959595",
"9. c gray59",
"0. c #979797",
"q. c #949494",
"w. c #9A9A9A",
"e. c #A5A5A5",
"r. c #A9A9A9",
"t. c #B6B6B6",
"y. c #BABABA",
"u. c gray77",
"i. c gray80",
"p. c #D4D4D4",
"a. c #DDDDDD",
"s. c #E5E5E4",
"d. c gray92",
"f. c gray95",
"g. c #FEFFFE",
/* pixels */
"                                                                                                                                ",
"                                                                                                                                ",
"                                                                          X X X X X                                             ",
"                                                                    X o @ 1 3 5 4 1 @ X                                         ",
"                                                                . + ; 4 f k k k k k 6 # o                                       ",
"                                                            X @ 3 j c z k k k k j k k 5 @                                       ",
"                                                      X + & 5 k c x c b z k k k k k k k 3 X                                     ",
"                                                X X @ 3 f v n n k j x n n z k k k k k k f @                                     ",
"                                            X o 1 6 c n n n n n k j c n n n z 5 t k k k k 2 o                                   ",
"                                      o + & 4 k b n n n n n n n n b n n n n 6 @ t k k k k 6 +                                   ",
"                                X X # 3 f v n n n n n n n n n n n n n b n k $ 4 z k k k k k < X                                 ",
"                          X X @ 1 6 z n n n n n n n n n n n n n n n c b v 2 . 4 c k k k k k 5 X                                 ",
"                      X @ & 5 k b n m m n n n n n n n n n n n n n b z n 6 o e ; h c k k k k h #                                 ",
"                X X & 5 h c n m N :.:.m n n n n n n n n n n n n n c b c % 7 _ u 1 b k k k k k 3 X                               ",
"              X & 6 c n n M :.3.6.-.m n n n n n n m n n n n n n v c n 4 O H *.U ; k c k k k k 6 @                               ",
"            @ 3 c n n n m :.:.N m n n n n n n n n n n n n n n b z b k + r [ @.' 0 5 n z h k k h ; X                             ",
"          @ 6 n m N -.m n n n n n n n n m n n n n n m n n n n c c n 1 = E $.} $.C 1 n v k h j k 5 .                             ",
"        X 5 n m ;.5.N n n n n n n n n n n n n n n n n n n n b z n f @ V $.} $.$.K & c n z k k k f $                             ",
"      X & c m ,.9.B n n n n n n n n n n n n n n n n n n n n c v c & , ( } } } $.T ; c n c k k k k 2 X                           ",
"      X 5 m B 9.2.m n n n n n n n n n n n n n n n n n n n b c b 5 O H $.} $.o.$.W ; k n n z k k k 5 +                           ",
"      X 6 M 3.9.N n n n n n n c c c b b n n n n n m n n n c c k $ r ] } $.} ..$.P & c n n b k k k h $                           ",
"      X 6 N 7.6.M n n n n n n b x k x c c c b n n n n n v c v 1 O P *.} } $.} $.D ; b n n k 3 1 6 k 3 X                         ",
"      X 5 N 9.6.m n n n n n n n n n n n n n n n n n n n b b 5 X o H $.......} } q 4 n n h & @ 1 $ t t o                         ",
"      X & M 6.6.M c t 6 f x c b n n n n n n n n n n n n n 6 X X . C $.....} $.T - h n k & X o f 2 1 h & X                       ",
"        @ n 7.7.M k 5 1 % @ % ; 2 4 5 f j x c c b b c c t @ X X . A O.O.O.O.' e 2 n c & X     5 k % 6 4 X                       ",
"        X t 3.9.B n n v c 5 o . . X o o + + + $ $ $ $ + X X X X * I O.| O.` u & k n 1 X       1 c 2 2 6 @                       ",
"        X 1 ,.9.,.n n n n c @ X X X d J S C s p r q e 7 X @ X X s _ ( ~ D 8 < k n 5 X         @ c j $ 6 ; X                     ",
"          @ M 0.3.m n n n b 1 X X X r @.@.@.@.o.@.} } a 1 k 3 & : > > : < 4 c n 6 @           @ f n 1 4 5 X                     ",
"          X k 9.7.M n n n n t o X . r *.@.@.o.o.o.@.I = f n n c k f f l c n m h @             X 6 n 6 & 6 @                     ",
"            2 3.9.B n n n n b 3 . > ! *.} o.o.@.@.) 8 3 n n n n n n n n n n k % X             X 5 n z & 6 2 X                   ",
"            @ M 9.,.n n n n n c 2 : Z Q [ } } ' E 0 1 c n n n n n n n n n l < X @ &           @ h n n 2 2 5 o                   ",
"            X h 9.6.M n n n n n b 6 ; - 8 r e 8 ; 2 z n n n n n n n n n k < @   1 k 3 & O @ @ 5 v n n 6 & f @                   ",
"              1 1.9.N n n n n n n n c j 6 5 5 6 k n n n n n n n n n n h & X     < v n z g h l v n n n l & 6 2 X                 ",
"              @ M 9.<.n n n n n n n n n n n n n n n n n n n n n n x 3 @         < v n n n n n n n n n v & 5 6 X                 ",
"              X f 8.3.m n n n n m n n n n n n n n n n n n n z t 3 % l t.g.g.g.u.2 v n n n n n n v 6 5 g < 4 g &                 ",
"                1 ,.9.M n n n n x x x x x c c k k g f 5 2 & 1 5 % & t.g.g.g.g.y.3 v n n n n n n g +   O O 3 k 2 X               ",
"                o M 8.B n n 6 1 % & 2 2 1 & 1 1 1 @ 5 c N w.i.a.f 2 6 i.g.g.g.w.2 n n n n n n n k @     X 3 k 6 @               ",
"                X t 7.1.n 3 & 5 5 t p.p.i.y.u.i.t.& 9.g.g.g.g.d.6 k 6 6 t.g.g.m 6 n n n n h 6 c c $     X 5 k k & .             ",
"                  1 <.7.c $ k n c 5 p.g.g.g.g.g.u.& k f.g.g.g.s.5 k n 6 1 f h & c n n n t X X 1 k 1     @ 6 k k 4 X             ",
"                  o m 0.k 1 n n n 2 6.g.g.g.g.g.w.1 1 r.g.g.g.a.5 c n n c 6 4 k n n n c 2 :.    2 1     & g k k f @             ",
"                  X 6 6.k 2 n n n f t s.g.g.g.g.n 6 f 6 a.g.g.p.3 c n n m n n n n n n f h f.g.  o @ o X 4 k j k k 1 X           ",
"                    & :.n 1 n n n v 3 ,.g.g.g.u.3 z n 4 h u.f.r.2 v n n n n n n n n n 4 5 g.g.    X X & g k k k k 5 X           ",
"                    X m N & c n n n k 2 w.g.  & 4 n n n 5 3 6 3 f n n n n n n n n b b 1     g.    o @ f l g j k k f O           ",
"                    . 5 :.1 f n n n n h & X   & z n n n n v g z n n n n n n n n n n v <         X % f c k k k g k h %           ",
"                      & B 6 4 m n n n n k 5 1 f n n n n n n n n n n n n n n n n n b k $     X O 1 f v k k k g k k f @           ",
"                      X c m & b n n n n n n n n n n n k 2 2 t n n n n n v k 6 3 2 < & @ $ 1 4 f l c c k g k k k k 6 @           ",
"                      X 3 B ; j n n n n n n n n n n n 3 B e.f 4 v n g 3 & & & 2 5 t f l c n n v b b k g k k g k h & X           ",
"                        @ M t 3 n n n n n n f 1 6 b v 2 u.g.a.c 2 1 # 2 f l n n n n n n n n n n n l k k k k k f 1 X             ",
"                        X h M & x n b n n j 4 7.t 6 z 5 a.g.s.m @ 3 k n m n n n n n n n n n n n c k k k k h 5 @ X               ",
"                          1 :.5 3 n n n n 2 6.g.u.4 4 k f.t.6 1 g n n n n n n n c k c n n n n c k k k t 3 @ X                   ",
"                          X n N ; t n n x 5 a.g.g.7.+ m B 1 4 v n n n c c n n n c g c n n c z k g 6 1 + X                       ",
"                          X 2 1.n % 6 n f x f.g.g.p.3 @ 1 h n n n n n c n n n n n c n v c k f 5 & X X                           ",
"                            @ m 6.z % 1 1 f e.3.M 5 1 5 k c n n n n n n n c c c c x k k 6 2 # X X                               ",
"                            X 5 1.,.z 5 1 < & < 3 t z z k k c n n c c l k k k k k f 5 1 @ X                                     ",
"                              $ n M n n b b n n n m v k k k k z k g g k k k k h 3 & + X                                         ",
"                              X 6 n m m n n n n n n b k j k k k k k k k k 6 1 @ X X                                             ",
"                              X & n :.3.N n n n n n v k k g k k k k h 5 ; + .                                                   ",
"                                X 6 B 9.2.m n n n n k k k k k k f 3 & X X                                                       ",
"                                  & c B M n n n n l k k g f 6 1 @ .                                                             ",
"                                  X < k n n n n k g f 5 2 $ X X                                                                 ",
"                                    X @ 3 6 6 5 1 & @ X X                                                                       ",
"                                        X X X X X X                                                                             ",
"                                                                                                                                ",
"                                                                                                                                "
};
