/* XPM */
static char *result[] = {
/* columns rows colors chars-per-pixel */
"64 65 163 2 ",
"   c #32312E",
".  c #3B352C",
"X  c #3F3829",
"o  c #373737",
"O  c #393836",
"+  c #413727",
"@  c #443A27",
"#  c #4A3D24",
"$  c #433A29",
"%  c #1C6D12",
"&  c #1D7512",
"*  c #1E7C12",
"=  c #227F14",
"-  c #247819",
";  c #3C5D38",
":  c #3C5C36",
">  c #296B20",
",  c #356D2E",
"<  c #2C7423",
"1  c #3C6935",
"2  c #3D6339",
"3  c #3D6938",
"4  c #377330",
"5  c #3A7C34",
"6  c #3D7536",
"7  c #55441F",
"8  c #5B451C",
"9  c #7C5F05",
"0  c #7D5708",
"q  c #7F590C",
"w  c #634917",
"e  c #684D15",
"r  c #654B1C",
"t  c #684E1C",
"y  c #6F5117",
"u  c #6D5018",
"i  c #755515",
"p  c #785615",
"a  c #7C5811",
"s  c #73551D",
"d  c #785618",
"f  c #47690F",
"g  c #4E6E10",
"h  c #4D7415",
"j  c #567113",
"k  c #666419",
"l  c #534221",
"z  c #594621",
"x  c #5F522E",
"c  c #535B2A",
"v  c #5B543C",
"b  c #5B5336",
"n  c #664D20",
"m  c #6D5524",
"M  c #67522B",
"N  c #675A2B",
"B  c #605432",
"V  c #5A6C23",
"C  c #407A26",
"Z  c #4A732A",
"A  c #426D3B",
"S  c #44723E",
"D  c #437B3D",
"F  c #4D4E4D",
"G  c #524F4C",
"H  c #485746",
"J  c #4C504B",
"K  c #52504B",
"L  c #545547",
"P  c #535353",
"I  c #5D5D5D",
"U  c #4A6247",
"Y  c #456840",
"T  c #4A6B45",
"R  c #567452",
"E  c #5F775C",
"W  c #557A51",
"Q  c #60635F",
"!  c #61725F",
"~  c #636363",
"^  c #666B65",
"/  c #686C67",
"(  c #6C6C6C",
")  c #667F64",
"_  c #697B67",
"`  c #6C746B",
"'  c #70766F",
"]  c #717E6F",
"[  c #737373",
"{  c #7C7C7C",
"}  c #767975",
"|  c #815705",
" . c #865901",
".. c #895C01",
"X. c #855D0C",
"o. c #885F0C",
"O. c #825B11",
"+. c #8C610A",
"@. c #946301",
"#. c #9B6701",
"$. c #9D6901",
"%. c #916308",
"&. c #A36D01",
"*. c #1F8113",
"=. c #208613",
"-. c #218A13",
";. c #258A18",
":. c #3F8A15",
">. c #219313",
",. c #239C14",
"<. c #299E1B",
"1. c #339315",
"2. c #24A414",
"3. c #26AD15",
"4. c #27A318",
"5. c #29A31A",
"6. c #2CAF1C",
"7. c #32A319",
"8. c #27B216",
"9. c #28B417",
"0. c #28B917",
"q. c #29BC18",
"w. c #2D8523",
"e. c #2D8B22",
"r. c #328E25",
"t. c #34822A",
"y. c #3C872D",
"u. c #2E9222",
"i. c #319324",
"p. c #339728",
"a. c #3B972F",
"s. c #379C2B",
"d. c #2FA021",
"f. c #30A122",
"g. c #428C0F",
"h. c #4D8D16",
"j. c #508716",
"k. c #419314",
"l. c #4C9116",
"z. c #488B3F",
"x. c #44863C",
"c. c #488641",
"v. c #479341",
"b. c #638060",
"n. c #6A9E63",
"m. c #748572",
"M. c #7F7F80",
"N. c #7F8080",
"B. c #848484",
"V. c #8C8C8C",
"C. c #939393",
"Z. c #9B9B9B",
"A. c #8FB18B",
"S. c #A5A5A5",
"D. c #A9A9A9",
"F. c #ADB1AD",
"G. c #B3B3B3",
"H. c #BABABA",
"J. c #C4C4C4",
"K. c #CCCCCC",
"L. c #D3D3D3",
"P. c gainsboro",
"I. c None",
/* pixels */
"3.3.3.8.3.3.3.* & * 2.8.2.*.2.2.=.4.3.3.8.3.8.3.8.3.3.3.4.=.8.=.,.2.* 2.8.& * ,.8.8.*.3.2.*.2.0.*.2.8.8.3.3.8.3.3.8.3.8.3.3.3.8.",
"3.8.3.2.3.3.3.,.2.2.3.3.3.,.=.4.5.x.P P P P P P P I P P P P 5 6.;.,.=.2.2.& >.*.* * 2.3.3.2.*.3.9.*.2.8.8.3.2.8.3.3.8.3.3.8.3.3.",
"3.3.2.-.2.3.,.= 2.3.8.8.2.=.a.U U m.V.P { Z.C.Z.Z.Z.Z.{ P V.' T T < 4.,.*.& * 2.,.* 2.3.3.2.& 2.8.2.3.8.3.2.*.2.3.3.3.3.8.8.8.3.",
"8.2.=.3.*.,.=.% * 2.3.s.3 ; b.C.G.D.C.P B.D.S.S.G.K.G.B.P Z.Z.V.V.! A ; r.2.2.2.=.3.-.3.2.* & 2.8.8.3.3.8.2.& *.2.3.8.3.3.2.3.3.",
"3.2.*.q.* *.3.= d.A S ) V.D.C.{ L.J.C.P B.G.K.G.G.P.G.B.P Z.D.S.[ M.V.B.! S D 5.=.q.* ,.-.9.*.2.3.8.8.8.3.2.* 2.-.2.3.3.2.*.2.3.",
"2.* 2.3.* 2.3.< A P V.D.D.H.S.B.V.M.( P ~ { V.M.} V.{ ~ I [ [ } M.C.D.J.Z.} K A ;.3.& * 2.9.*.2.3.3.2.3.8.2.* 2.2.-.2.8.2.& * 2.",
",.*.2.*.2.4.5 ) } { C.Z.D.S.C.[ G G I G G P K P P P P I ~ P P P [ C.G.J.Z.M.{ R 5 , - 2.3.*.2.3.3.3.*.g.h.h.j.h h l.=.2.2.* 2.=.",
"*.,.2.*.;.T ' S.H.S.{ { M.B.} ( ( ( I ~ ~ ~ I I ~ I ~ ~ ~ ~ ~ ( ( { B.B.[ m.S.A.n.' c.<.3.3.4.u.:.:.f 9 @.@.@.@.@.9 f 1.* & =.3.",
"9.-.2.e.R [ V.H.H.V.V.{ ~ P ( B.B.[ ~ ~ I ~ ~ ~ ~ ~ ~ ~ I ~ [ B.C.{ I P [ V.V.Z.S.V.W t.p.p.C M 9  .@. .#.&.&.&.#. . .k :.k.7.=.",
"9.5.a.` C.C.( B.B.~ I [ V.^ ~ ~ ~ ~ ~ I I I ~ I ~ ( ( ( ( ~ ~ ^ M.V.M.~ I ~ ~ B.{ P z.x.v L m  ...@.#. .#.&.&.&.#. ...+.+.9 j 1.",
"4.c.` H.D.C.C.( ( C.V.V.V.~ ~ ~ ~ ~ I ~ ~ ~ I ~ [ C.C.C.C.( ~ ~ ( ~ ~ I { V.C.( I J v N  ... ...$.&.$. .#.&.&.&.#. .#.&.$...9 9 ",
"H m.C.~ ~ I P { V.V.( ( ^ ~ [ V.~ ~ ~ ~ ~ ( ~ ~ ~ ( ( ( ( ( ~ ^ V.{ ~ ~ ~ [ V.V.[ J i +.$.&.@...&.&.#. .#.&.&.&.#. .$.&.&... . .",
"F M.S.Z.Z.V.P ~ ( ( B.V.V.V.C.V.~ { Z.Z.Z.Z.Z.C.Z.Z.C.Z.Z.Z.{ ~ V.C.V.V.V.B.~ ( Q G d ..&.&.@. .$.&.$...@.&.&.&.$. .$.&.&... . .",
"F { D.L.H.C.P [ { I V.C.C.C.C.V.~ ( ( [ ( ( ( ( ( ( ( ( ( ( ~ ~ V.C.C.C.C.V.~ { } K d @.&.&.@...$.&.$. .#.&.&.&.#. .$.&.$... . .",
"F I { F.D.C.P M.M.~ B.C.C.C.M.( ~ { C.C.C.C.C.C.V.C.C.C.C.C.{ ~ ( ( [ C.C.B.~ V.M.K d ..&.&.#...$.&.$. .@.&.&.&.#. .#.&.$. . . .",
"F ( B.( [ ~ P M.B.I ( [ [ ( { M.~ B.S.D.S.S.D.S.D.D.D.S.S.S.Z.V.( I ~ ( [ ( I B.M.K d @.&.&.@...&.&.$...#.&.&.&.#...#.&.&. . . .",
"F M.S.M.{ [ P ( ( I [ { { I [ C.~ [ M.M.{ M.{ M.M.{ M.M.M.{ M.{ ~ ( [ I [ [ I [ ( G p ..&.&.@...$.&.$...#.&.&.&.#. .#.&.&...|  .",
"F M.D.J.G.C.P ( { { V.C.C.~ } V.~ [ M.M.M.{ M.{ M.{ M.{ { M.M.{ ( { C.~ M.V.[ } ( G p @.&.&.@...$.&.$. .@.&.&.&.#...$.&.$... . .",
"F ( V.D.C.{ F M.C.C.C.C.C.~ ( M.~ B.D.S.D.S.S.D.S.S.S.D.S.S.S.Z.( [ { I M.C.C.C.{ G p @.&.&.@. .&.&.$...#.&.&.&.#. .$.&.$... . .",
"F ~ { ~ ~ ~ F M.C.C.B.B.B.[ ( ~ ~ { C.C.C.V.C.C.C.C.C.V.C.C.C.V.~ I ~ I [ V.C.Z.M.G n | &.&.@...$.&.$. .#.&.&.&.#...$.&.&. . . .",
"G C.K.G.D.C.P [ V.B.[ ( ( V.B.[ ( ( ( ( ( ( ( ( ( ( ( ( ( ( ( ( ( ( ~ ~ ( [ B.B.{ F o # o.&.@...$.&.$...@.&.&.&.$. .$.&.$... . .",
"F { G.L.H.C.P ~ ( ~ B.C.C.( B.S.S.S.S.S.S.S.S.S.S.S.S.S.S.S.S.Z.S.{ ( V.C.B.~ ( I G o   . O.%...&.&.#...#.&.&.&.#. .$.&.&... . .",
"F M.S.S.S.V.P { B.I B.C.V.( M.Z.Z.S.S.Z.S.Z.Z.S.Z.S.S.Z.S.S.S.S.S.{ ( V.C.B.~ M.{ P o   . + w ..$.&.$. .@.&.&.&.#. .#.&.$. . . .",
"F { Z.~ I I F M.B.~ B.B.( ~ ( ( ( ( ( ( ( ( ( ( ( ( ( ( ( ( ( ( ( ( ~ ( B.B.~ B.{ G O l %.%.....$.&.$...#.&.&.&.#. .#.&.&. . . .",
"F I [ G.S.M.P M.B.I ( ( ~ V.Z.C.C.C.C.C.C.C.C.C.C.C.C.C.C.C.C.C.C.C.V.~ ( ~ ~ B.M.G t X.&.&.@...$.&.$. .$.&.&.&.$. .$.&.&... . .",
"F ( C.G.J.G.P ~ ( I { [ ( Z.S.S.D.S.D.D.S.S.D.D.D.D.D.D.S.S.D.D.S.D.Z.( [ { I ( ~ G p @.&.&.@...&.&.$. .#.&.&.&.#...$.&.$... . .",
"F M.D.S.H.S.P ( M.M.V.B.~ { { { { { { { { { { { { { { { { { { { { { [ ~ M.C.M.{ ' G p ..&.&.@...$.&.$...@.&.&.&.#...#.&.&. . . .",
"F ~ { [ C.C.P M.C.C.C.B.~ { M.B.M.B.M.B.B.B.M.B.M.B.B.M.B.M.B.B.B.M.{ ( M.C.C.Z.N.K p @.&.&.@...$.&.$. .#.&.&.&.#. .#.&.$. . . .",
"F ~ { V.B.[ P M.Z.C.B.[ ~ Z.D.D.D.D.D.D.D.D.D.D.D.D.D.D.D.D.D.D.D.D.Z.( [ M.C.Z.M.G d ..&.&.@...&.&.$. .@.&.&.&.$. .$.&.&... . .",
"F M.D.K.C.~ F [ B.M.[ ( ~ V.V.V.V.V.V.V.V.V.V.V.V.V.V.V.V.V.V.V.V.V.B.~ ( [ M.M.[ K d @.&.&.@. .$.&.$...#.&.&.&.#. .$.&.$... . .",
"F M.D.D.D.V.P ~ ( I V.M.~ ( [ ( ( ( [ ( ( ( [ ( ( ( [ ( ( ( [ ( [ ( ' ~ M.B.~ ~ ~ K d @.&.&.@...&.&.$. .@.&.&.&.#. .#.&.$. . . .",
"F [ C.C.S.C.P M.M.I V.B.( Z.S.S.S.S.S.S.D.S.S.S.S.S.S.S.D.S.S.S.S.S.Z.~ B.V.~ B.{ F d @.&.&.@...$.&.$. .#.&.&.&.#...#.&.&. . . .",
"F P I ~ B.V.P M.B.I B.M.( C.S.Z.Z.Z.Z.Z.Z.Z.Z.Z.Z.Z.Z.Z.S.Z.Z.Z.Z.S.C.~ { M.~ B.M.G p @.&.&.@...#.&.#...@.&.&.&.#...#.&.&... . .",
"F { Z.Z.[ I F M.B.~ ~ ~ ~ ~ ( ( ( ( ( ( ( ( ( ( ( ( ( ( ( ( ( ( ~ ( ( ( ( ~ I B.{ G p @.&.&.@...&.&.#...#.&.&.&.@.| #.&.&...|  .",
"F M.D.S.Z.B.P ~ ( I V.B.~ C.Z.C.Z.C.Z.Z.Z.Z.Z.C.Z.C.Z.Z.C.Z.Z.C.Z.Z.C.Z.{ I ~ ~ ~ G d @.&.&.@...&.&.#...@.&.&.r $ $ o.&.&... . .",
"F { S.S.D.C.P [ V.B.{ ( ~ Z.D.S.S.D.S.S.S.S.S.S.D.S.S.S.S.S.S.S.S.S.D.S.{ ( B.V.[ G d ..&.&.@...#.&.#...@.&.&.%.e   $ y #... .| ",
"F I ( [ ( ~ P M.C.C.( ~ I [ [ [ { [ { [ { [ { { [ [ { [ [ { [ { { [ } { ( ( C.Z.M.K d @.&.&.@...&.&.#...@.&.&.&.|   r %.&...|  .",
"F ( M.M.B.[ P M.C.C.( ( V.B.B.V.B.B.V.B.B.B.B.B.V.B.V.B.V.B.B.B.B.V.B.B.( ( C.C.M.K p @.&.&.@...&.&.#. .@.&.&.i # o o.&.&... . .",
"F M.D.S.S.C.P ( [ { ~ M.S.D.D.S.S.D.S.D.S.D.S.D.S.D.S.D.D.S.S.D.S.D.D.S.M.~ { } ( K d ..&.&.@...#.&.#...#.#.t r r 8 w O.#...|  .",
"F V.H.D.D.C.P ( ( I I M.D.D.S.S.D.S.D.S.D.S.D.S.D.S.D.S.D.S.D.D.D.S.S.D.{ ~ I ( ~ G d @.&.&.@...&.&.#...#.o.o X.&. .+ z &... . .",
"F Z.L.V.V.M.P M.B.I ~ [ V.V.V.C.V.V.V.V.C.C.V.V.V.C.V.C.V.V.V.V.V.V.V.C.[ I I B.M.G O.@.&.&.@...&.&.#. .@.%.z i p e 8 y &... . .",
"F V.G.( ~ I G M.B.I ~ ~ ( [ ( ( ( [ ( ( ( ( ( [ ( ( ( ( ( [ ( ( ( [ ( ( [ [ ~ V.M.G n | &.&.@...&.&.#...@.&.&.r @ # o.&.&...|  .",
"F P [ Z.S.C.P { B.( ~ [ S.S.S.S.S.S.S.S.S.S.S.S.S.S.Z.S.S.S.S.S.Z.S.S.Z.S.C.~ M.{ F O # %.&.@...#.&.&. .@.&.&.&.@. .@.&.&... . .",
"F { Z.D.D.C.P I { C.( { S.S.S.S.S.S.S.S.S.S.S.S.S.D.S.S.S.S.S.S.D.S.D.D.S.Z.~ ( I F o . + O.@...&.&.#...#.&.&.&.#...&.&.#...|  .",
"F { S.S.J.G.P { B.( ~ { Z.S.S.S.Z.S.S.S.Z.S.S.Z.S.S.S.S.S.S.S.S.S.S.S.S.Z.C.~ M.{ F O     $ w ..&.&.#...#.&.&.&.@...#.&.&...|  .",
"F I I ~ G.H.P M.V.~ ~ ~ ( ( ( ( ( ( ( ( ( [ [ ( ( ( ( ( ( ( ( ( ( ( ( ( [ ( ~ V.M.F O # o.+. ...#.&.#...@.&.&.&.#. .&.&.&... . .",
"F [ V.V.M.[ P M.B.~ B.C.C.C.C.C.C.C.C.C.C.C.C.V.C.C.C.C.V.C.C.C.C.C.C.C.C.B.~ B.M.G n | &.&.#...&.&.#...#.&.&.&.#...#.&.#...|  .",
"F M.D.S.C.[ G ( [ ~ C.D.D.S.D.S.D.S.D.S.S.S.D.S.S.S.S.D.S.S.S.D.D.S.S.S.S.Z.( ( ( G d @.&.&.@...&.&.#...@.&.&.&.#...#.&.&... . .",
"F M.D.J.G.C.P I ~ ~ Z.D.S.S.S.S.S.S.S.S.S.D.S.S.S.S.S.S.S.S.S.S.S.S.S.S.S.C.~ I I G i @.&.&.@...#.&.#...#.&.&.&.#.| #.&.&...|  .",
"F ~ B.Z.V.[ P I ( M.Z.S.S.S.D.S.S.S.S.D.D.S.D.S.D.D.D.D.D.S.D.D.D.D.D.S.D.S.B.( I G p @.&.&.@. .&.&.#. .#.&.&.&.#...&.&.&... . .",
"F I ( ( ( ~ P P ( V.V.V.V.V.V.V.V.V.V.V.V.V.V.V.V.V.V.V.V.V.V.V.V.V.V.V.V.V.V.[ I G p ..&.&.@...&.&.#...@.&.&.&.$...#.&.#...|  .",
"F M.D.D.S.C.P P ~ [ ( [ [ [ [ [ [ [ [ [ [ [ [ ( [ ( [ [ ( [ [ [ [ [ [ ( [ [ [ ~ I G p @.&.&.@...&.&.#...#.&.&.&.$.| #.&.&... . .",
"F [ C.D.S.C.P I { D.S.S.S.S.S.S.S.S.S.S.S.S.S.S.S.S.S.S.S.S.S.S.S.S.S.S.S.S.S.{ I G p @.&.&.@...#.&.$. .#.&.&.&.#. .&.&.&... . .",
"F I [ C.Z.V.F I { S.S.S.S.S.S.S.S.S.S.S.S.S.S.S.S.S.S.D.S.S.S.D.S.S.S.S.D.S.S.[ P G p ..&.&.@...&.&.#...#.&.&.&.#...#.&.#... . .",
"F C.H.~ I I F I [ Z.S.Z.Z.S.Z.S.Z.S.S.Z.S.Z.Z.S.S.Z.S.Z.S.Z.S.Z.Z.S.Z.S.S.Z.Z.} I G p @.&.&.@. .#.&.#...@.&.&.&.#...#.&.&... . .",
"F B.G.Z.Z.B.P I ~ ~ ( ~ ( ~ ( ~ ^ ( ^ ( ~ ( ( ~ ~ ( ~ ( ~ ( ~ ( ( ~ ( ~ ~ ( ( I I G p ..&.&.@...&.&.$. .#.&.&.&.#. .#.&.#...|  .",
"F C.K.D.S.C.P P P P P P P J P P P P P P P P P P K P P P P P P P P P K P P P P J P F d  ...$.@...&.&.#...#.&.&.&.#...&.&.&... . .",
"J ^ ' ^ ^ Q J J F G F F F J F J F J F J F J J F J F F H F J F F F F F J J F F J J F v b x o.....$.&.$. .@.&.&.&.#. .#.&.#... . .",
"< w.e.u.u.e.1.u.t.w.w.< u.< w.< e.i.< e.;.< e.i.< w.u.u.> > > - w.e.e.< e.i.> > ;.< w.w.< c s  .@.#.#. .#.&.&.&.#. .#.&.&... . .",
"0.*.2.3.3.8.3.8.2.=.,.*.0.q.*.>.*.* ,.3.3.2.* *.8.*.2.2.& 2.*.,.* * *.2.8.3.*.2.2.*.3.3.3.u.Z M M a @. .#.&.&.&.#...#.&.#... .| ",
"0.8.*.2.2.2.2.3.2.& *.,.8.8.2.*.3.& *.2.3.8.,.*.q.*.2.2.* *.8.8.2.2.2.3.2.3.3.2.3.2.8.8.8.2.<.5 J v m m o.@.@.&.#...$.&.&...|  .",
"8.8.3.2.* * =.2.2.* 2.-.2.3.,.=.q.*.3.*.2.2.*.2.9.& * 2.3.2.-.2.8.8.3.2.-.2.8.2.3.3.8.3.2.* 2.3.y.6 1 5 V s s %.@. .#.&.&... . .",
"3.3.2.*.,.,.,.*.* * 2.8.-.,.*.2.3.*.2.8.*.,.*.2.2.& >.*.* =.2.3.3.8.2.=.3.*.,.-.2.8.8.3.2.& *.2.3.3.3.3.e.; 3 k d p %.$.@... . .",
"8.8.8.2.& & * 2.8.2.=.8.8.& & ,.*.,.*.3.0.*.2.2.* % & ,.2.2.3.8.3.3.2.=.q.& * 3.*.2.3.8.2.*.3.*.2.3.3.3.3.2.3.r.A A s a a p 0 p ",
"I.I.I.I.I.I.I.I.I.I.I.I.I.I.I.I.I.I.I.I.I.I.I.I.I.I.I.I.I.I.I.I.I.I.I.I.I.I.I.I.I.I.I.I.I.I.I.I.I.I.I.I.I.I.I.I.I.I.K G K L K K "
};
