/* XPM */
static char *result[] = {
/* columns rows colors chars-per-pixel */
"64 64 210 2 ",
"   c #030202",
".  c #0C0605",
"X  c #080907",
"o  c #0C0C0C",
"O  c #190B08",
"+  c #0F1110",
"@  c #111111",
"#  c gray10",
"$  c #271908",
"%  c #341E0B",
"&  c #3C1E0C",
"*  c #321110",
"=  c #172B0B",
"-  c #19320A",
";  c #18370C",
":  c #2D240A",
">  c #242D0B",
",  c #2A280A",
"<  c #35250C",
"1  c #3B220C",
"2  c #392C0C",
"3  c #24340C",
"4  c #2B370C",
"5  c #31300B",
"6  c #343434",
"7  c #520D0E",
"8  c #5C0D0D",
"9  c #47180B",
"0  c #5B130B",
"q  c #4F0F11",
"w  c #441213",
"e  c #4E1414",
"r  c #541314",
"t  c #5D1717",
"y  c #650E0F",
"u  c #6B0C0D",
"i  c #760D0D",
"p  c #7D0E0E",
"a  c #64130C",
"s  c #6C130D",
"d  c #74130E",
"f  c #79130E",
"g  c #741B0E",
"h  c #790F10",
"j  c #681416",
"k  c #631919",
"l  c #6C1C1A",
"z  c #7E1718",
"x  c #741D1C",
"c  c #46220C",
"v  c #652616",
"b  c #792912",
"n  c #582628",
"m  c #74292B",
"M  c #723333",
"N  c #703435",
"B  c #773737",
"V  c #184A0D",
"C  c #1C540E",
"Z  c #1A5A0E",
"A  c #1E5710",
"S  c #1A5B11",
"D  c #29440E",
"F  c #20580E",
"G  c #1C630F",
"H  c #1C6D0F",
"J  c #1E760F",
"K  c #1A6511",
"L  c #1C6D11",
"P  c #1D7512",
"I  c #1E7C12",
"U  c #7B3E40",
"Y  c #484848",
"T  c #565656",
"R  c #6B4646",
"E  c #754344",
"W  c #7D4445",
"Q  c #7B4B4C",
"!  c #765252",
"~  c #7A5A5A",
"^  c #666666",
"/  c #796465",
"(  c gray44",
")  c #7C7C7C",
"_  c #820D0E",
"`  c #8A0E0E",
"'  c #9F0F0F",
"]  c #84110F",
"[  c #8D110F",
"{  c #980E10",
"}  c #8C1B1B",
"|  c #951615",
" . c #981716",
".. c #B00F0E",
"X. c #A7110E",
"o. c #B5110F",
"O. c #A40F11",
"+. c #B40F11",
"@. c #A41212",
"#. c #AC1212",
"$. c #A31C1D",
"%. c #B51213",
"&. c #BB1112",
"*. c #B71819",
"=. c #853817",
"-. c #973E17",
";. c #933D18",
":. c #881F21",
">. c #991F20",
",. c #A31D20",
"<. c #862526",
"1. c #843232",
"2. c #853A3B",
"3. c #9C3B3A",
"4. c #A93E3D",
"5. c #DF120F",
"6. c #C31212",
"7. c #CB1213",
"8. c #C91818",
"9. c #D41213",
"0. c #DB1212",
"q. c #D1181A",
"w. c #EF110F",
"e. c #F5120F",
"r. c #F40F11",
"t. c #E31212",
"y. c #ED1111",
"u. c #E81C1B",
"i. c #F41212",
"p. c #FC1212",
"a. c #F61C1C",
"s. c #D32828",
"d. c #EC2223",
"f. c #F12524",
"g. c #F92322",
"h. c #F32A29",
"j. c #F82A2B",
"k. c #ED3132",
"l. c #F83839",
"z. c #9E441B",
"x. c #B24B1E",
"c. c #B54D1C",
"v. c #CD571E",
"b. c #ED631F",
"n. c #F4661E",
"m. c #DD5F21",
"M. c #E76220",
"N. c #F36720",
"B. c #8D4747",
"V. c #9D4E4D",
"C. c #815657",
"Z. c #B54B4A",
"A. c #B55353",
"S. c #846969",
"D. c #8D6E6F",
"F. c #887877",
"G. c #937A7A",
"H. c #C04042",
"J. c #F94746",
"K. c #FA5554",
"L. c #FA5C5B",
"P. c #FA605F",
"I. c #DA6464",
"U. c #E36867",
"Y. c #FB6363",
"T. c #F46F6F",
"R. c #FC6D6D",
"E. c #FE706F",
"W. c #FE6F71",
"Q. c #FD7070",
"!. c #1F8113",
"~. c #1F8B13",
"^. c #208613",
"/. c #218A13",
"(. c #219313",
"). c #239B14",
"_. c #24A414",
"`. c #26AD15",
"'. c #27B216",
"]. c #28B417",
"[. c #28B917",
"{. c #29BB18",
"}. c #2AC217",
"|. c #888586",
" X c #9A8E8E",
".X c #939393",
"XX c #9C9292",
"oX c #9B9B9B",
"OX c #A18B8C",
"+X c #A49B9B",
"@X c #AE9FA0",
"#X c #A5A3A2",
"$X c #ADA4A5",
"%X c #AEADAC",
"&X c #B2ABAA",
"*X c #B3B2B2",
"=X c #BCB7B6",
"-X c #BCBABA",
";X c #C2BDBD",
":X c #C6C5C5",
">X c #CBCBCB",
",X c #D2D2D1",
"<X c #DBDBDC",
"1X c #DFE0E0",
"2X c #E3E4E4",
"3X c #E7E9E8",
"4X c #EBEBEB",
"5X c #F3F4F3",
"6X c #F7F8F8",
"7X c #FEFEFE",
/* pixels */
"`.`.'.`.`.'._.I P I _.'._.!._._.!._.'.`.`.'.`.`.'.'.`.`._.^.].!._._.I _.'.P I ).'.].!._.`.!._.[.!._.`.'.`.'.`.'.`.'.`.'.`.'.`.`.",
"`.'.'._.`.`.`._._._.`.`.`.).~._._.].'.'.'.`.`.`.`.`.'.`.).^._.]./.).!._._.I (.!.I I _.'._._.!.`.'.~._.`.'.`._.`.`.`.`.'.'.`.`.'.",
"'.`._.^._.`._.I _.`.'.'.`.!.`.!._._._._.`._.`.`.`.'.`._.^.(.~.'.'.^._._.!.P I _.).I _.`.'.).P `.'._.'.`.`._.!._.`.`.`.`.`.`.'.`.",
"`._.^.`.^.).I L I _.`.`._.!.{.I ).!.!.!.).!.`.`.`.'._.!.`./._._._.I ).!.)._._._.!.`./.`._.!.P _.'.`.'.`.`._.J !._.`.'.`.`.`.`.`.",
"`._.!.{.I !.`.^.`./._._.I _.'.I I ).`.`.!.P `./._.`._.~.[.!.)./.{.I _._./._.`._.^.{.!.)./.].!._.'.`.'.`.`._.I _.~._.`.'._.!._.`.",
"_.I _.`.!._._.!._.'./.).!._._.I (.I I !.).!._.].~._._.`._.P I _.].!.`._.'./._._.`._.P I `.'.!._.'.`._.`.'._.!._.`.~._.`.`.J I _.",
"_.!._.!._._.!.).^.`.'.~._._.!.).!.)._._.`._.^.`.'.I I _.I I )._./._._.~.'.'.I !._.I J )._./._.`.`._.!._.`.`._.!.!.`.!._.).I _.~.",
"!.)._.I ).!._.`._.`.`.`.`.`.`._.P !._.].`._.`.`.`.I )._.!._.'.`._.`.`._.'._.!._._.!._.`.`.`.`.`.'._.J !._.`.`.).!.[.I ).!.J ~._.",
"'.~._._.!._.`.'.'.`.`.`.'.'.`._.I `./._._.^.`.].`._.^.)._.`.'._.^.'.^._.`._.).`.'._.`.'.'.`.`.`.'._.I _.^._._.!._.'.P !.)._.`.!.",
"'._.`.`.`.`.'.`.`.`.'.`.`.`.`._.^._.'.I ).I _._.I ).P !._.`.'.).^.{.I ).!.I !._.`.'.'.`.`._.^._.'._.J I ).~.).!._._.I (.!.I !._.",
"`.'.'.`.`.`.'._.I ).'.`.'.'._.^.).^._.P I ).`.^.I ).I `./._._.^._.'.P I ).`.`.!._._.`.`._.^.`./._.`._.I _.'.~._._.!.J !._._._.'.",
"`.'.'._._._.`._.J !._.`.`._.!.`./._._.!.`./.)._.`._.!._.'././.L ~.!.L !.P I P J '.~._.'._.^.{.^.).~.[.!._.`._.`.'._._._.`.'.'.'.",
"`.`._.!.I ^.).).I `./._.`.).^.[.^._.`._._.`.^._.`.`.).I P V = = $ $ $ $ - V H J _.'./._._.`._.P I _.'.^._.'.'.`._.`.`.'.`._.`.`.",
"'._.^.).).).^.I I _.'./.).!._.`.^.).`._.I ^.`.!.).H 3 9 f %.8.d.d.f.u.u.7.X.i 9 ; I _.I !._.I J _._.^._.`.`.`._.~._.`.`._.!.`.`.",
"`.`._.!.I I )._._.^._.'.I J _.!.`.^.).!.(.^.].S 4 s +.u.k.J.K.Y.Y.Y.P.L.J.g.w.t.o.g 4 C )._.!._._.!._._.`.`._.!.'.~._.`._.I _.`.",
"`.`.`._._._.I I ^.).!.).!._._.!.{.I P L I /.A 8 +.f.l.P.E.Q.Q.Q.E.E.E.E.E.L.g.p.e.7.' 0 C (.`.`._.I './._.'.`.!.[.!.).~.}.^._.`.",
"`.'.`._.`.`.`._._._.P !.)._.!._._.^.(.I ~.< ] 9.' Z.R.Q.E.E.Q.Q.E.Q.R.W.R.R.j.p.e.' u ..} , ~._.J !._.'.~._._._.`.J I _.'.^._.'.",
"`.`._.^._.`.`.`.`._.I `./.).!._.!._._.S < 6.0.j N U.R.E.Q.Q.R.E.Q.Q.Q.R.P.J.a.p.p.p.O.8 O.*.& L !.'./.'.'.I !._.I J _._.~._.`.`.",
"'.`.J ).!._.`.`._.P I _.'.~.)._.I ).L & +.6.j B.I.Q.Q.R.R.R.Y.L.K.J.l.l.g.p.p.i.w.i.i.7.u _ #.& I '._.'._.I _._.!._.`.`._.`.'.`.",
"`.`.J _.I _.`.`.!.P ).~.`.'./._._.L : &.O.n A.Q.T.I.A.V.4.s.a.a.p.p.p.p.p.7.} 1.1.<.o.y.t.` ' %.< L _._.^._.`.'.`._.'.`.'.`.`.'.",
"`._.!._._.J ).~.'.!._._.`.'.`.'._.D ' d.3.U.T.I.B./ #X=XoX! } t.p.p.p.i.$.~ -X2X3X,XG.m t.r.i.i.@.3 (.^._.`.`.`.`.`.`.`.'.`.'.`.",
"`.`._.!.`.I J _.'.!._.'.`.`.`._.L s u.L.R.Q.U.! %X6X7X7X7X5X$X<.y.p.i.%.G.4X7X7X7X7X6X>XB 9.p.p.i.s Z ).`.`.`._.~._.`.'.'.`.'.`.",
"`.`._.!.[.[.~._.!._.'.'.`.'.`.(.1 8.J.E.Q.U.Q ,X6X7X7X7X7X7X7X+X .p.7.C.4X7X7X6X7X7X7X7X-Xm i.p.p.9.< (.`.`.`.!.`.^._._._._.`.`.",
"`.'.`.`.`.'._.).!._.`._._._.`.G ] f.Y.Q.Q.V. X7X7X2X%X-X5X7X7X4XE 0.$.+X7X7X<X#X%X3X7X7X6XF.&.p.p.i.f F `.'.).^.[.I ).^.J ^._.`.",
"`.`.`.`.`.`._.^.`.!.).!.P I (.2 9.J.Q.Q.T.~ <X7X<X( ( # ^ 5X7X7XXX%.1.,X7X,X) ^ o T 4X7X7X<X:.p.p.p.7.1 (._.!._.'.J I )._.`.~._.",
"'._.!._.`.`._.^.[.J !.'.I (.K s f.Y.Q.Q.I.|.6X7X|.T .Xo @ :X7X7X;X} W 2X6X) ^ .X    >X7X7X7XB t.p.p.e.d G ).!._._.J (.!.I !._.`.",
"`._.J I _._.I _.`.I _.`.I P C @.l.E.Q.Q.A.#X7X7X) o +   @ ;X7X7X;X} W 2X6X) @ @     >X7X7X7XC.5.p.p.p.o.Z ^._._.!.J !._._._.`.'.",
"`._.I `.~.).!._.!._._.!._.~., 8.L.Q.Q.Q.A.%X7X7X,X#     Y 4X7X7X&X@.1.>X7X:X6     Y 5X7X7X7XC.5.p.p.p.5.4 _.`.`._._._.'.'.'.`.`.",
"`.`.J _.'.~.)._.I ).^._.`.~.9 d.Y.E.Q.W.H.XX7X7X7X>X|..X2X7X7X7XS.6.$.XX6X7X<XoX$X4X7X7X7X6XB y.p.p.p.w.c )._.`.`.'.'.`.`._.`.'.",
"`.`._.~._.'.~._.P I ).'.`.P 0 f.Y.E.E.R.k./ 4X7X7X7X7X7X7X7X7X<XM y.9.Q 4X7X7X7X7X7X7X7X7X:X} e.p.p.p.e.a ^.!._.`.`.`.'._.~._.`.",
"`.'.`.).~._._._.I _./._._.C u h.R.E.E.Y.h.<.$X7X7X7X7X7X7X7X4XS.6.p.p.%.G.5X7X7X7X7X7X7X2X! 9.p.p.e.p.p.d J J !._.`.`._.^.`.^._.",
"`.`._.~.'.^._._.I _.'./.).C d h.R.R.E.Y.g.6.W 3X7X7X7X7X7X6X+X<.i.p.p.y.<.XX5X7X7X7X7X6XF.,.p.p.w.w.i.e.f H I _.~._.`._.I '.I _.",
"`.'._.^.{.I ).I J ^._.`./.G f f.Y.E.E.P.a.p.9.U #X<X4X2X;X~  .i.p.p.p.p.i.#.U XX-X;X.XQ +.r.p.r.y.y.r.i._ L !._.'./.).P L ^.P _.",
"`._.I _.'.J I )._.`./.`.`.H s a.P.E.E.K.a.p.p.9.$.M R N :.q.i.p.p.p.p.p.p.p.9.*.>.>.*.9.p.p.p.y.y.y.r.i.d K ).(.'.'.I P P _.^._.",
"!.).!._._.I (.!.P ^._.`.`.J 0 u.J.Q.E.K.p.p.p.p.p.i.r.i.p.p.p.p.p.p.p.p.p.p.p.p.p.p.p.i.i.p.i.w.y.y.y.i.a !._.`._._.I (.^._.{.].",
"'.!.).`.I P !.`.^.).`.'.`.(.c y.j.Y.R.l.p.9.O.6.y.p.p.p.p.p.p.p.p.p.p.p.p.p.p.p.p.y.*.z p 9.p.y.y.y.r.y.9 K I I ^._.^._._.^.`.}.",
"'.`.`.`.`._._.'._.`.`.`.`._.3 9.p.j.j.p.p.h w n M #.t.i.p.p.p.p.p.p.p.p.p.p.p.r.&.1.|.D.e i y.y.y.y.i.9.: P )._._.`.`.`._.`.`.'.",
"'.`.'.`.`.`.'.`.`.I ).`.]._.C #.p.p.p.p.p.y k S.>X+XC.:.*.t.i.i.r.p.p.p.r.t.8.m D.:X1XG.k 8 y.y.y.y.i.#.C `./._.'.`.`.`.'.'.`.`.",
"'.`.`.`._.`._.`.`.P !._.`.`.I j i.p.p.p.p.p k B $X4X3X:XXXC.2.<.|  . .:.1.~ XX,X5X3XOXM k u y.y.y.y.y.s C I ).`._.'.'.`.`.`.`.`.",
"`.`.`._.I I ^._.).I _./._.`.(.1 9.p.p.p.p.O.t x m D.;X3X4X2X>X;X&X@X@X*X>X1X3X2X=XD.m x r { y.y.y.y.7.9 L P _._.~._.`.`.'.'.`.'.",
"'.`._.~.)._.).I I I _.].^.).!.A [ i.p.p.p.t.y l x x m R ( |.oX%X*X-X-X*X#X|.^ 6 w x x x r 7.w.y.y.i._ V '.!.).!.`./.`.`.`.`.`.'.",
"'.`.`._.!.J I )._._.^.].].I I ~.< 9.p.p.p.p.6.q x x x k O o o + @ @ + o o X X   e m x t _ t.y.y.i.7.< P `.!.).!.[.!._.'.`.'.'.`.",
"`.`.`._._._._.!.P !.).]._.!.).).V s y.p.p.p.i.[ r x x x w O   . O O O O .   . * x x k 7 9.w.y.y.y.d L `./.).I _.`.!._.`.'.`.`.`.",
"`._.!._.'.`.`.).I `.!.`.]._._.!.(.D ' p.p.p.p.y.` r j x l v ;.c.v.v.m.v.c.=.v k x k 8 %.y.y.y.i.' D ^._.'.I I _.!._.`.'.`.'.`.'.",
"`.`.J !._.`.`._.^.].I )._.]._.P !.!.< 7.p.p.p.p.y.` e v x.M.N.n.N.N.n.n.n.N.b.z.e 7 &.y.y.y.i.&.% L _.!.).!.)._.^._.'.`.`.`.`.`.",
"`._.J `.~._.`.!.(.^.L P I _.).I `.~.P & %.p.p.p.p.i.o.d ;.v.m.b.N.N.n.n.M.m.c.b ] 7.y.w.w.i.&.c P !.{.I !.`.!._._.`.`.'.`.`.`.'.",
"'._.I _.'.~.(.J I `.I (.I P I I _.]./.P % 6.i.p.p.p.r.0...p b =.;.z.-.=.b g { 6.t.y.w.y.i.&.< I I _.`.!._._.J !._.`.'._.!._.`.'.",
"'.`._.!._.'.~.(.!.{.I I `.I )._.~._.`.I S < [ y.p.p.r.y.y.t.9.o.#.O.X.o.7.0.t.y.w.w.i.y.[ 5 L (.I _.!._._.!.J `.(._._.`.I _.'.`.",
"`.`._.J !._._.I _.`.I )._.I I ^.(./.).!.).S ; y 6.i.p.w.w.w.y.y.y.y.y.y.y.y.y.w.i.i.&.a C (.'.!.P ].^.).^.).^.{.^.(./.{.!._.`.`.",
"'.`._.I `.~.).I ).I P )./._._.).^.`.!._._.I _.S - j +.t.w.w.w.y.w.y.y.i.y.i.r.y.o.a = P _.~._.'.!._.'./.)._._.`.P I _.].!.`.'.`.",
"`.`._.!._.'.~.)._.J P ^.).`.'._.!.[.I ).I I !.`.I G > q i ..9.t.y.y.y.t.9...p 9 4 G ).)./.'.~._._./.`.].I ^._.I I _._.^._.`.`.'.",
"'.'.'._.^.`.'.~._.).I _./._._.I _.'.I I )._.`./.`.^._.).G ; - > : : , > = V Z (.'./.).I _.`.!._.`._.'._.I _._.^.).'.`.`.`.'.`.`.",
"`._.`.`._.'.'.).^.).^._.]./.).^._._.P (.^.I ^._._.`.`.`._._.).).~.H H P (._._.^.`.'.I I _.!.).'.`.'.`.`._._.`._.`.`._.'.`.`.'.`.",
"_.!._._.`.'._.!.`.^.(.I _.`.^._.`.!.P I _._._._.!._.`.`.'.'.'._._.).).).!.I !._.'._.I _._.P P _.`.`.'.`._.~._.'.`._.!._.`.'.'.`.",
"_.J !._.`.'._.^.{.I ).I I ^.).`.`._._._._.`.]._.P ^._.`._._._.!.I !.I _.`._._.`._.^.)._.`.).P !._.`.`._.!.`./._._.!.J _.'.'.`.'.",
"_.!.`.~._._.I _.'.I ^.)._._./._.`._.^._._.!.)._.I _./.).!.P P ).`._.P I _.`.'._.^.`.^.!._._.P `./._.`._.~.[.^.(.~.'.!._.`._.`.`.",
"_.!._.'./.).!._._.P /.^.I I _.`._.I P _._.I ^.).^._.'./.(.I P I P P P _.(._.`.).^.[.I (.I I J _.]./.).!._.`.J I _.[.!._.`._.^.).",
"_._./.`.'.^._.`.I P I ).).I _.)./.].I _._.I _./.(.^.'.].!.(.).).P P I _.]./.).!._.`.I !.)._._.~.`._.I I _.I P (.~._.`.`.`.I ).^.",
"!._._.`.'.`.`.`._._.).^.`./.).^.).].^._._.^._.`./.).`._.P I P I ).`._.!.'.'.I I _.!.)._.!.!.^._._.!.I )._.!.).!.`./._.`.`.J _.[.",
"'./._.`.`.`.`.'._.^.).^.'.{./.(.^.I ).`.'._.I ^.`.^._._.I _.^.).!.I !._.'._.!.)._.!._.`._._._.`._.I _.~._._._.~.[.!.)./.{.J I _.",
"[.'.^.`._._._.`._.P I ).`.'._.!._.I I _.`.`.(.^.{.I _._.!.~.`.'._._._.`._.`._.'.`._.'.'.'._.`.`._.!._.'.~._._._.`.J !._.'.!.).!.",
"`.'.`.).I I ^._.).I `./._.`._.^.{.^.`./._._.^._.'.P I _._.`./._.'.'.`._./._.`.`.`.'.'.`._.I _.`.'._.^.`.'.I I _.P J _._./._.`._.",
"`.`._.^.).).(.^.I I _.'./.).I _._.^._.]./.).^._._.P (.^.!.!._.`.'.`._.!.`.!.).!._.`.`.'._.J !._.'.`._.'.`.!._._.!._.`.`._.`.'.'.",
"'.`.`._.I P I _.]._.^.`.'.I P ).^.).^._.'.^._._.P L I )._._.`.`.`.'._.^.{.I I `.!._.'.'._.!.`.!._.`.`.'.`._.`.'._.`.`.'.'.'.`.`."
};
