/* XPM */
static char *_945269270c84d5fb36cbfbb91c79599m4MCf8hoTimLS7Fv[] = {
/* columns rows colors chars-per-pixel */
"64 64 224 2 ",
"   c #0A0A0A",
".  c #1A191B",
"X  c #3D1B0A",
"o  c #3C290B",
"O  c #363709",
"+  c #3C360D",
"@  c #343B0C",
"#  c #3A3D0B",
"$  c #272729",
"%  c #4B0C0A",
"&  c #510C07",
"*  c #530E0B",
"=  c #5B0D0A",
"-  c #471706",
";  c #4D140A",
":  c #431A0A",
">  c #561607",
",  c #54140A",
"<  c #5C110D",
"1  c #581814",
"2  c #620B0B",
"3  c #63120B",
"4  c #611B0E",
"5  c #600E10",
"6  c #621413",
"7  c #691717",
"8  c #6E1C13",
"9  c #711C15",
"0  c #751B1B",
"q  c #781818",
"w  c #42260B",
"e  c #452809",
"r  c #433309",
"t  c #79221B",
"y  c #7E1E23",
"u  c #512A2A",
"i  c #7A2627",
"p  c #7B2F36",
"a  c #743936",
"s  c #28480B",
"d  c #34430A",
"f  c #39440A",
"g  c #334C0C",
"h  c #3A490D",
"j  c #29530B",
"k  c #27590E",
"l  c #35570C",
"z  c #355810",
"x  c #1F660F",
"c  c #1C6E12",
"v  c #1D7512",
"b  c #1E7C12",
"n  c #27680D",
"m  c #34620D",
"M  c #306D0F",
"N  c #2C780F",
"B  c #317A0F",
"V  c #256810",
"C  c #237411",
"Z  c #217A11",
"A  c #62403E",
"S  c #515153",
"D  c #754444",
"F  c #737675",
"G  c #8E100F",
"H  c #881815",
"J  c #851E1E",
"K  c #961B1A",
"L  c #A01715",
"P  c #88261E",
"I  c #912319",
"U  c #851E22",
"Y  c #891C24",
"T  c #852524",
"R  c #8A2D26",
"E  c #97272A",
"W  c #922A2A",
"Q  c #93302A",
"!  c #873435",
"~  c #923232",
"^  c #9A3534",
"/  c #A82928",
"(  c #B22D2C",
")  c #AA332E",
"_  c #AD312F",
"`  c #A83636",
"'  c #A63933",
"]  c #AB393B",
"[  c #B73836",
"{  c #C4302F",
"}  c #C43A39",
"|  c #DD3334",
" . c #D93535",
".. c #DF3B3B",
"X. c #E23936",
"o. c #E23638",
"O. c #E33A3B",
"+. c #E73B3B",
"@. c #93423D",
"#. c #BB413E",
"$. c #C9413D",
"%. c #EB433D",
"&. c #F2433E",
"*. c #AC3942",
"=. c #BA3E44",
"-. c #D13E43",
";. c #E63F44",
":. c #EA3F41",
">. c #F33F45",
",. c #864745",
"<. c #8A5555",
"1. c #985658",
"2. c #BB4245",
"3. c #B8494A",
"4. c #A35151",
"5. c #975B64",
"6. c #986964",
"7. c #906E73",
"8. c #B36968",
"9. c #A97875",
"0. c #B37070",
"q. c #CC4443",
"w. c #C74648",
"e. c #C54C4D",
"r. c #CC4A4B",
"t. c #DC4342",
"y. c #D84846",
"u. c #DD4A45",
"i. c #D64448",
"p. c #D24C4C",
"a. c #DC4B4B",
"s. c #CD4D53",
"d. c #D45151",
"f. c #DC5354",
"g. c #D85657",
"h. c #E64544",
"j. c #ED4444",
"k. c #E24945",
"l. c #EA4945",
"z. c #E5464A",
"x. c #EC4449",
"c. c #E44B4A",
"v. c #EA4A4B",
"b. c #F14344",
"n. c #F14A45",
"m. c #F1444A",
"M. c #F34C4C",
"N. c #E3524D",
"B. c #F5524D",
"V. c #FA514D",
"C. c #E54955",
"Z. c #F54E52",
"A. c #E55554",
"S. c #EC5555",
"D. c #E75A5A",
"F. c #E95859",
"G. c #EC5A5B",
"H. c #F55454",
"J. c #FA5554",
"K. c #FB565A",
"L. c #F35B5B",
"P. c #F45959",
"I. c #FA5B5B",
"U. c #C9605C",
"Y. c #EA615F",
"T. c #E55D61",
"R. c #EA5C61",
"E. c #F45C63",
"W. c #F85A63",
"Q. c #DA6767",
"!. c #E96E6F",
"~. c #F56668",
"^. c #F76C72",
"/. c #FB7775",
"(. c #1F8113",
"). c #208613",
"_. c #2B8711",
"`. c #218A13",
"'. c #229313",
"]. c #299613",
"[. c #239B14",
"{. c #24A414",
"}. c #26AD15",
"|. c #29A815",
" X c #27B216",
".X c #28B417",
"XX c #28B917",
"oX c #29BB18",
"OX c #2AC217",
"+X c #998379",
"@X c #F0807C",
"#X c #FD7C82",
"$X c #898989",
"%X c #979898",
"&X c #AC8D92",
"*X c #B49590",
"=X c #B89AA0",
"-X c #B8B1B2",
";X c #FC8785",
":X c #FF8B8B",
">X c #FD948C",
",X c #FF8A93",
"<X c #EC929A",
"1X c #FF9593",
"2X c #FA9597",
"3X c #C59CA3",
"4X c #FF93A3",
"5X c #C9B0AF",
"6X c #D5B7B7",
"7X c #D7BEC2",
"8X c #C7C6C6",
"9X c #D9D1D0",
"0X c #E3CDCC",
"qX c #E0D2C9",
"wX c #E9D5D7",
"eX c #DFDFE0",
"rX c #EBE9EA",
"tX c #F5E8E8",
"yX c #F9ECED",
"uX c #F8F1EC",
"iX c #F6F7F5",
"pX c #FCF4F3",
"aX c #FCF6F9",
"sX c #FDFDFD",
/* pixels */
"}.}.}. X X}.{.b c b {.}.{.(.[.{.(.{. X}. X}.}.}. X X}.}.{.(. X(.{.}.b }. Xv v {. X X(.{.{.(.{.XX`.[.}.}.}. X}.}.}. X X}. X}. X}.",
"}. X}.|.}. X X{.{.{.}. X}.{.`.{.{.}. X}.}. X X}.}.}. X}.{.(.{. X(.[.(.{.{.v '.b b b {.}.}.{.(.}. X`.{. X}.}.}.}.}.}.}. X}.}. X}.",
" X X{.(.{.}.[.b {.}. X}.}.(.}.(.{.}.}.{.}.{.}. X X}.}.[.(.[.(. X X(.[.{.(.v b {.[.(.{.}.}.{.b {.}.}.}.}.}.{.(.{.}.}.}.}.}.}.}.}.",
"}.{.(. X(.[.(.v (.{.}.}.{.(.XX(.[.b b (.[.(.}.{.}. X}.(. X(.{. X Xb {.(.[.{.{.{.). X`.{.{.(.v {.}. X}.}.}.{.v (.{.}. X}.}.}.}.}.",
"}.{.(.oXb (.|.b }.`.{.{.(.{. Xv b [.}.}.b b  X`.{.}.{.(.OX(.[.(.XX(.{.{.(.{.}.{.`.XX(.[.`. X(.{.}. X}.}.}.{.b {.`.{.}.}.}.(.[.}.",
"{.b {.}.(.{.}.(.{. X`.[.b {.{.(.'.(.b (.[.(.{. X(.{.{.{.}.b (.{.XX(.{.}. X'.{.{.{.}.v b {. X(.{.}.}.{.}.}.}.(.{.}.`.[.}.}.v (.[.",
"{.(.{.(.{.{.(.[.`.}. X`.{.}.(.[.b [.{.{.}.{.(. X Xb (.{.b b [.{.(.{.}.(. X Xb (.{.b b {.}.`.{.}. X}.(.{.}.}.{.(.(.}.(.}.[.b }.(.",
"(.[.{.b [.(.{.}.{.}. X{.}.}.{.{.v (.{.}.}.}.{.}.}.(.[.{.b [. X}.{. X{.{. X{.(.{.{.Z {.}.}.{.}.}.}.{.v (.{.}.}.[.(.XX(.[.(.v `.}.",
" X`.{.{.`.{.}.}. X}.}.}. X X}.{.b }.`.{.}.b }.XX|.{.(.[.}.}. X{.(. X(.}.{.{.{.}.}.}.}.}.}.}.}.}.}.{.b {.).{.{.(.{. Xv b [.}.{.`.",
" X}.}.}.{.}.}.}.{.}.}.}.}.}.}.{.(.}.}.(.[.(.{.{.(.[.v (.{.}.}.{.(.OXb [.(.b (.{.}.}.}.}.}.{.).{.}.{.v (.[.).{.(.{.{.v '.(.b `.[.",
"}.}. X}.}.}. X{.(.{.}.}. X}.{.`.[.(.{.v b [.{.(.b [.b |.`.[.'.V _.'.x v '.{.}.(.}.}.}. X}.(.}.`.}.}.{.b {.}.`.{.}.b v b {.{.}.}.",
"}.}.}.{.{.}.}.{.v (.{.}.}.{.(.}.(.{.{.(.}.`.{.{.{.{.C z h o w : X X X o @ @ V Z  X(.{.}.{.`.XX(.[.`.XX).{. X{.}.}.}.{.}.}.}.}.}.",
" X}.{.(.b (.{.[.b }.`.{.}.{.(.XX(.{.}.}.}.}.`._.m + ; 3 7 y U Y U y i i 1 ; - : g N (.{.{.}.}.v b {.}.(.}.}.}.}.}.}.}.}.}.}.}.}.",
"}.}.(.[.[.[.(.b b {. X`.[.(.{.}.(.{.}.{.b C h ; 8 E [ w.g.D.R.R.!.Q.Q.U.e.3.^ q 2 - f n Z {.Z C {.{.`.{.}.}.}.{.).{.}.}.{.(.{.}.",
"}.}.{.(.b (.[.{.{.(.{. Xb v {.(.}.(.[.C @ 5 y 3.T.E.G.G.p.f.#X:X,X,Xw.G { H.K.L.N.) t & # _.C {.{.(.{.}.}.}.{.(.}.`.{.}.}.b {.}.",
"}.}.}.{.{.{.(.b (.[.(.[.(.[.{.`.oXv j o i 3.D.L.E.^.~.[ q ] ,X4X1X,Xg.3.r.u.c.v.J.B.f.' 3 e m {.{.b }.`.{.}.{.`.XX(.[.`.XX(.}.}.",
"}. X}.}.}.}.{.{.{.{.b b [.{.(.{.[.d 4 ] P.E.^.;X>X>X@X4.@.#.~.^.~.~.-.,.1.1.R [ y.M.J.P.s.T , g v b {. X`.{.{.}.|.v b {. X(.}. X",
" X}.{.(.{.}.}.}. X[.b }.(.[.(.`.O 3 e.A.I./.>X<X0.<.6.*X*X6.@.d.a.2.9.0XuXtXqX+X~ #.l.Z.R.g.^ , O }.`.}. Xb (.{.b v {.{.(.{. X X",
"}.}.b [.(.{.}.}.{.v b {.XX`.).e J g.R.^.;X1X@XD +XrXsXsXpXpX9.^ =.8.tXsXsXsXsXpX6X! i.C.P.E.D.] 3 l {.}.{.(.{.{.(.{.}.}.{.}.}.}.",
"}.}.b [.(.{.}.{.(.v [.(.}.{.r q d.G./.:X2X<X6.%XrXsXiXsXpXpXwXD ,.5XsXiXiXsXsXsXiX9.` C.v.v.J.D.` % m {.(.{.}.}.{. X}.}. X}.}. X",
"}.{.(.{.{.(.'.`..XZ {.}.{.# = r.L.~.:X1X2X5.7.pXsXsXsXrXeXsXsX7.a 9XiX8X$XsXsXsXsXwX! i.x.b.M.V.D.T ; Z {.}.}.}.}.}. X}.}.}. X}.",
"}.{.{.).}.(.v {..X).|.}.l < ` L.Y.;X1X1X@Xa 7XsXsXeX%X%XF iXsX=XA 9XsXF   S 8XsXsXtX1.$.+.j.x.M.P.s.0 h |. X}.{.`.{.}.}. X}.}.}.",
"}. X{.). XXX).{.).{.}._.e W A.L./.1X2X#X3.1.tXsXiX-X.   $ eXsX=Xu 8XsX%X  . -XsXsXyX8.} %.j.j.j.v.L.` - B }.{.(.}.(.{.{.}.{.}. X",
"}.}.}.}.}.}.{.{.Z {.{.h 6 s.W.~.:X1X;XE.2.0.pXsXsXrXS $ $XiXsX&X1 =XiXrX8X8XiXsXsXyX8.} %.b.j.j.b.P.g.< h {.{.).XX(.[.(.b (.{.}.",
" X X}.}.}.}.{.(.}.(.b X ~ E.W.#X1X;XL.z.=.0.yXsXsXsXiXrXsXsXpX5.p 5.yXsXsXsXsXsXsXtX4.i.x.j.j.j.%.B.L.Q - '.(.{. Xb b [.{.}.`.{.",
"}.{.(.{.}.}.{.`.XXb @ > r.J.W.:X>XY.v.m.-.! 0XsXsXsXsXsXaXsX3X! r.T 3XaXaXsXsXsXaX6XW y.l.b.b.j.%.%.B.q.2 l (.{.{.v '.(.(.(.{.}.",
"}.{.v (.{.{.(.{.}.b e P N.J.^.>X^.v.v.m.C.*.<.0XpXsXsXsXuX&X! w.k.$.R 3XuXiXpXpX6Xa [ z.h.j.j.%.n.%.M.A.P e {.{.b v (.{.{.}.}.}.",
" X{.(.{.`.[.(.{.(.).; ' I.I./.@XS.x.m.m.>.C.] ~ 0.*X*X6.a i 2.c.%.c.$.^ i ,.@.p 7 ` a.x.x.l.j.j.l.%.l.P.' ; '.}.{.{.{.}.}.}.}.}.",
"}.{.(.{. X`.[.{.b n < w.W.I./.S.v.x.b.z.v.x.z.y.[ Q R P ' y.c.l.j.h.l.z.a.-.[ } -.x.;.;.x.j.b.b.&.%.%.P.=.1 M }.}.}.}.}.}.{.}.}.",
" X}.{.).{. X`.{.b s < a.K.Z.v.x.x.z.x.x.l.b.b.n.%.N.u.k.%.l.m.m.z.x.x.l.l.h.h.h.>.>.m.b.j.&.b.b.b.%.%.P.f.0 @ {.}. X}.}.{.`.{.}.",
"}.}.}.[.`.{.{.{.b j = f.K.Z.>.m.j.j.x.x.x.j.b.b.&.l.l.j.l.b.m.m.x.>.m.b.j.j.j.:.>.>.%.j.&.&.&.+.b.j.l.P.G.0 O (.{.}.}.{.(.}.`.{.",
"}. X{.`.}.(.{.{.b j 3 f.K.m.j.b.b.b.j.b.j.n.x.x.l.n.n.x.b.b.b.b.b.m.b.b.&.j.b.b.j.j.j.j.%.b.b.&.b.j.x.H.G.t @ }.`.{.}.{.(. X(.{.",
"}. X{.(.oXb [.(.C s 3 d.K.j.j.>.m.b.j.x.j.j.b.n.j.b.b.j.j.j.l.c.c.c.c.l.k.u.k.h.l.j.j.l.j.h.j.b.b.j.x.J.G.t # {. X`.[.b c b v {.",
"{.{.(.{. Xb b [.{.n > r.I.j.x.m.b.x.b.b.l.n.x.b.x.z.z.v.t.} ) W U U J U U W ) [ } y.c.z.x.j.b.m.b.x.x.J.S.9 g `. X.Xb c v {.).}.",
").[.(.{.{.b '.(.v k > $.L.m.j.>.b.x.j.j.b.n.n.m.v.q._ K K K / / ( ( ( ( ( / K K H H E =.z.j.&.b.b.b.h.J.A.0 z }.{.{.b [.(.{.oX X",
" X(.{.{.b v (.{.(.(.; ' D.M.j.x.:.j.j.j.z.l.$.[ L G / [ p.a.k.l.l.l.h.h.h.h.a.p.p.( H G x.x.b.+.b.j.j.J.q.4 k b ).{.(.{.{.(.}.OX",
" X{.}.}.{.{.}.}.}.{.: t d.H.j.>.m.x.x.:.l.[ H I [ ..l.l.l.j.j.j.j.j.b.j.h.j.j.l.l.h.;.h.x.b.b.b.b.%.n.P._ > '.{.{.}.}.}.}.|.}. X",
" X X}. X X X X X{.(.f 3 w.Z.h.m.m.x.x.x.c.( { k.h.l.b.h.j.j.b.j.b.j.b.j.b.j.j.j.j.x.l.z.h.j.x.:.%.%.J.F.W r (.}. X}.}.}. X}.}. X",
"}.}.}.}.{.{.|.}.{.v k * E S.x.:.b.z.j.m.j.l.j.h.j.j.x.j.b.j.l.b.j.b.b.j.j.j.j.j.j.j.x.m.j.x.h.j.+.%.J.p.7 g {.}.{. X X}.}. X X}.",
" X X}.{.b b (.{.[.Z {.w = g.Z.;.m.j.j.j.j.x.b.b.&.j.j.j.j.j.b.j.%.j.b.j.j.j.j.j.j.j.b.m.x.j.h.%.X.V.K.] : V {.{.(.{.}.}. X}. X}.",
"}. X{.(.[.{.[.b b b {.m * ^ E.;.+.j.h.j.%.j.&.b.>.j.%.j.j.b.b.j.b.b.b.j.b.j.j.j.j.j.b.b.x.h.:.O.%.J.D.q l b {.(. X(.{. X X X}. X",
"}.}.}.{.(.b b [.{.{.(.[.r 7 3.C.X.X.%.j.l.b.b.b.&.j.j.j.j.j.j.b.j.b.b.j.j.j.j.j.j.j.m.x.x.;.o...B.I.' > N (.[.(.OX(.{.}. X}.}.}.",
" X}.}.}.{.{.{.b b (.[.}.'.% p f.v.O.O.%.b.b.b.b.b.j.j.j.j.j.b.%.j.b.b.j.j.j.j.j.j.x.b.x.;.o...Z.H.d.8 O `.[.b {.}.(.}. X}. X X}.",
"}.{.(.{.}.}.}.{.b }.(.}.|.z * ^ R.c. .| j.>.b.b.j.j.j.j.b.j.j.j.j.j.b.j.b.j.j.j.j.j.x.+...o.Z.K.Y.Q % _. Xb b [.(.[. X}. X}.}. X",
" X{.v (.{.}.}.{.(..Xb [.}.[.d 1 ^ D.v.O.X.+.j.>.b.j.j.j.j.j.j.j.j.b.:.j.j.j.j.j.j.j.O.| O.H.K.R.*., M ).[.(.[.{.(.}. X}.}. X}. X",
"}.{.v }.`.{.{.(.'.(.c b Z [.'.o 5 ) F.H.O.| o.+.>.j.j.j.j.j.j.j.b.j.j.j.j.j.j.x.%.O.| j.Z.K.P.w.7 O XXv (. X(.{.{.}.}.}.{.}.}.}.",
" X{.(.{.}.'.[.b b |.b '.b v b V # < ^ d.P.S.o.| | o.+.%.j.j.j.j.j.j.j.j.x.;.;.| X.%.V.J.W.W.*.= O [.|.).{.{.v (.{.}. X{.(.{. X}.",
" X}.{.(.{.}.(.'.).oXb b }.b [.{.Z h * 0 e.R.P.m.+.X.X.| +...X.| X.X.X.X.O. .-.j.V.V.J.I.f.E = g Z {.(.[.{.(.v }.`.}.{.}.b {.}. X",
"}.}.}.v (.{.[.(.{.}.b {.{.b b b [.(.V X = J 2.A.P.J.V.n.j.O.+.+.+.+.+.%.x.M.I.J.J.J.A.#.8 o N (.v }.).[.).[.).oX(.[.'.oX(.{. X X",
"}. X{.b }.`.[.(.[.b v [.`.{.{.{.(. X(.C X & 5 P [ L.L.L.L.H.H.H.B.H.J.I.I.K.P.A.f.[ 8 e l b {.}.).{..X`.[.{.{.}.v b {. X(.{. X}.",
"}.}.{.(.{. X`.[.{.b c b [.}.}.{.(.XXb [.b j o - & > t @.2.r.f.N.N.N.N.N.q.#.' P > r M '.`.XX(.}.{.(.}..Xb (.{.b b [.{.`.{.}.}.}.",
"}.}.}.{.`.}.}.`.{.[.b }.`.{.{.b {. Xv b [.}.].V l e - > = 3 9 9 9 9 8 8 4 > r m ].).[.(.{.}.(.{. X{.}.|.b {.{.(.{.}. X{.}.}.}. X",
"}.}.}.}.{.}.}.[.(.[.(.{. X`.[.(.{.{.b '.(.b (.{.|.{._.C j s l n z j s x `.{.{.(.|..XZ Z {.(.[.}. X}. X}.{.{.}.{.}.}.{.}. X}.}. X",
"{.(.[.}.}.}.}.(.}.(.[.b {.}.(.{.{.(.v (.{.{.}.{.Z {.}.}.}. X}.{.{.{.[.[.(.b (.{.}.{.b {.{.v b {.}. X}.}.{.`.{. X}.{.(.{.}. X}.}.",
"{.b b {.}.}.{.(.XX(.[.b b `.[.}. X{.[.{.}.{. X{.v (.{.}.|.{.{.(.b b b [.{.{.{. X{.(.[.{.}.[.v (.{. X X{.(.}.(.}.{.(.b {. X}. X}.",
"{.(.{.'.{.}.(.{. Xb (.[.{.{.`.}. X[.(.}.{.(.{.{.b }.`.[.(.v v [.}.}.b (.{. X X|.(. X(.(.{.{.v }.(.{.}.{.`.XX(.[.'. X(.{.}.}.{.}.",
"{.(.{.XX`.[.(.{.{.v '.b b b {.}.}.(.v }.{.v (.[.(.}. X(.'.v v b v v v }.(.{. X{.`.XX(.'.(.b b {. X`.[.b {.{.v b [.XX`.{.}.{.`.[.",
"{.{.`.}.}.`.{.}.(.v (.[.[.b {.{.(..X(.{.{.b }.(.'.(. X X(.[.[.[.v v b }.XX(.[.b [.}.b b [.{.{.(.}.{.b b {.b b '.`.{.{.}.{.(.[.(.",
"(.{.{.}.}.}.}.}.{.{.[.(.{.`.[.(.[..X(.}.{.b {.}.(.{.}.{.v b b b [.{.{.(.}. Xb b [.(.[.{.(.v (.{.{.(.b [.{.(.[.(. X`.{.}.{.b {.XX",
" X`.{.}.}.}.}.}.{.(.[.(.XXXX`.'.b b [. X X{.(.(. X(.}.{.b {.(.[.(.b (.{.}.}.(.[.}.(.}.}.}.{.}.}.{.b }.`.{.{.{.`.XX(.[.`.XXv (.{.",
" X X`.{.{.{.}.}.{.v (.[.}. X{.(.}.v b {. X}.[.(.oX(.[.}.b (.}. X}.{.}.}.{. X}.}.}.}.}.}.}.{.}.}.{.(.{. X`.{.{.{.}.v (.{.XX(.[.(.",
"}. X{.{.(.v (.{.{.b {.'.{.}.{.(.oX(.}.(.[.{.(.{. Xv b {.}.}.(.}.}.}.}.{.(.{.}.}.}.}.}.}.{.(.{.}.}.{.`.}.}.b (.{.b v {.}.`.{.}.{.",
"}.}.}.).[.[.[.(.b b {. X`.[.(.{.}.(.}. X(.[.(.}.[.b '.b (.(.{.}.}.}.{.(.}.(.'.(.{.}. X}.{.b (.{.}.}.{.}.}.(.{.{.(.{.}.}.}.}.}.}.",
"}.}.}.{.b v v {. X{.(.}.}.b v [.(.[.(. XXX(.[.{.b c b [.{.{.}.}.}. X{.(.oXb b  X`.{.}.}.{.b }.(.}.}. X}.}.}.}.}.{.{.}.}.}. X}.}."
};
