/* XPM */
static char *result[] = {
/* columns rows colors chars-per-pixel */
"64 64 174 2 ",
"   c #32312E",
".  c #3B352A",
"X  c #2D2E31",
"o  c gray19",
"O  c #503F1E",
"+  c #423927",
"@  c #483D25",
"#  c #413928",
"$  c #1C6E12",
"%  c #1D7512",
"&  c #1E7C12",
"*  c #27761D",
"=  c #247919",
"-  c #3C5E38",
";  c #2E6C26",
":  c #356B2F",
">  c #2D7324",
",  c #2D7E23",
"<  c #307A27",
"1  c #34732C",
"2  c #377430",
"3  c #3B7534",
"4  c #3A7B32",
"5  c #5D4517",
"6  c #56441E",
"7  c #5B461E",
"8  c #5D481D",
"9  c #74510B",
"0  c #79560E",
"q  c #674C17",
"w  c #6B4E15",
"e  c #644B1A",
"r  c #684E19",
"t  c #6E531E",
"y  c #745413",
"u  c #795611",
"i  c #7D5911",
"p  c #544321",
"a  c #5C4F37",
"s  c #534B3C",
"d  c #415C3E",
"f  c #5F5136",
"g  c #5A503D",
"h  c #6B5325",
"j  c #62512E",
"k  c #725620",
"l  c #605235",
"z  c #685631",
"x  c #695F3B",
"c  c #40653C",
"v  c #426B3D",
"b  c #43723D",
"n  c #444444",
"m  c #4A4741",
"M  c #4E4E4E",
"N  c #524F4B",
"B  c #4E5447",
"V  c #475F44",
"C  c #4C544C",
"Z  c #4C5A4A",
"A  c #585041",
"S  c #55544E",
"D  c #515A4F",
"F  c #4E4F50",
"G  c #4F5051",
"H  c #525252",
"J  c #585652",
"K  c #575D56",
"L  c #5C5C5C",
"P  c #675B43",
"I  c #6E5F41",
"U  c #496845",
"Y  c #4D644B",
"T  c #4D7C47",
"R  c #546B51",
"E  c #5C625B",
"W  c #5C6D5A",
"Q  c #5B7758",
"!  c #736C5A",
"~  c #636363",
"^  c #646864",
"/  c #6B6B6B",
"(  c #677965",
")  c #6E716E",
"_  c #6C7C6B",
"`  c #6E7170",
"'  c #737373",
"]  c #757D74",
"[  c #7B7B74",
"{  c #7B7B7B",
"}  c #855801",
"|  c #8C5E01",
" . c #835C0D",
".. c #885E08",
"X. c #905F00",
"o. c #8E6004",
"O. c #8C6109",
"+. c #936201",
"@. c #986500",
"#. c #9C6801",
"$. c #916308",
"%. c #A36D01",
"&. c #A86F00",
"*. c #A87000",
"=. c #1F8113",
"-. c #208613",
";. c #218913",
":. c #25801A",
">. c #2A8E1E",
",. c #239C14",
"<. c #28961A",
"1. c #2B9A1D",
"2. c #24A314",
"3. c #26AE15",
"4. c #2BA41C",
"5. c #28A819",
"6. c #27B216",
"7. c #29B718",
"8. c #34862A",
"9. c #37832D",
"0. c #348B29",
"q. c #2E9B20",
"w. c #329126",
"e. c #35972A",
"r. c #398230",
"t. c #38A62B",
"y. c #44853C",
"u. c #429A37",
"i. c #4A8143",
"p. c #4D8446",
"a. c #529849",
"s. c #5F8E59",
"d. c #599051",
"f. c #62955C",
"g. c #649D5D",
"h. c #56AE4B",
"j. c #5AA751",
"k. c #65A05E",
"l. c #6E846B",
"z. c #6B9766",
"x. c #6F916A",
"c. c #7B8879",
"v. c #7E987B",
"b. c #68A461",
"n. c #74A26E",
"m. c #73A96C",
"M. c #7CA776",
"N. c #819B7E",
"B. c #838383",
"V. c #868A85",
"C. c #8C8C8C",
"Z. c #859B83",
"A. c #8C968B",
"S. c #90998F",
"D. c #939493",
"F. c #949894",
"G. c #9C9C9C",
"H. c #88A385",
"J. c #8AA986",
"K. c #95A494",
"L. c #9AA799",
"P. c #9CA59B",
"I. c #9DB89A",
"U. c #A0A89F",
"Y. c #A5A5A5",
"T. c #A5A9A4",
"R. c #AAAAAA",
"E. c #A8BDA6",
"W. c #B3B3B3",
"Q. c #BBBBBB",
"!. c #C4C4C4",
"~. c #CBCBCB",
"^. c gray83",
"/. c #DBDBDB",
/* pixels */
"3.3.3.3.3.3.3.& % & 2.6.2.=.2.2.=.2.6.3.3.3.3.b M F M H H H G H H H G H H M M H v 6.=.2.2.=.2.7.=.2.6.6.3.3.3.3.3.3.3.6.3.3.3.6.",
"3.6.3.3.3.3.3.,.2.2.3.3.6.,.-.2.2.6.6.0.v v v c.C.L S B.C.C.C.C.C.C.D.C.c.H L C.] V c v 0.2.=.3.7.=.2.3.3.3.3.3.3.3.3.6.3.6.3.3.",
"3.6.2.-.2.3.,.& 2.3.3.3.3.-.3.= 4 2 4 Q ] i.9.N.R.~ F D.R.Y.Y.R.L.f.b.T.D.H ~ Y.G.{ { { ( 2 : 2 1.2.6.6.6.5.& 2.3.3.3.3.3.3.3.6.",
"3.2.=.3.=.,.-.$ =.2.3.5.8.> e.v / Y - ( V.r.3.M.Y.~ H D.T.v.M.U.K.:.t.P.D.H ~ Y.Y.R.G.C.{ / / / p.w.w.w.5.2.% & 2.3.6.3.3.2.3.3.",
"3.2.=.7.& =.3.& 5.;.<.9.M Z c _ Y.k.t.p.L : 4.x.D.~ H V.S.4 0.Z.Z.< u.S.C.H ~ D.G.D.B.L { Y.K.H.l.K H C 9.1.= 3.;.2.3.6.2.=.2.3.",
"2.& 2.3.=.2.3.-.2.e.Z C S 3 <.s.Y.Y.L.G.D.W C S J N N S S B B J J B B J J N N J J H ` G.G.Y.z.t.j.Z.Q H Z V > ,.3.;.2.3.3.% =.2.",
"2.=.2.=.2.2.-.>.d Q A.D.D._ V _ Y.Y.T.{ E C N h u u u u u u u u u u u u u u u u h N J ~ B.Y.K.H.l.D ] D.a.q.3 d = 3.=.2.,.& 2.-.",
"=.,.2.=.,.= 1 T B.x.h.m.R.D.B._ ) ' ) x t h t ..+.| } +.@.@.@.@.@.@.@.@.X.} | @...k h r I ` ` ' { B.F.R.J.m.N.B.U 4 & ,.=.& ;.2.",
"6.;.5.2.> b ` ' B.x.k.g.B.B.B.! j j j i X.+.+.%.%.| } #.%.%.%.%.%.%.%.%.#.} | %.#.X.+.+. .l j j ! B.B.B.D.Y.C.B.V.N.v ; <.5.3.-.",
"6.5.1.w.Q { Y.D.~ ' D.[ a g s k | | } +.%.%.%.%.%.| } #.%.%.%.%.%.%.%.%.#.} | %.%.%.%.%.+.} | | k A g A [ D.' ~ W.~.{ L > * =.,.",
"3.1.Y R E.!.Y.G.G.N.N j } } } $.%.X.} @.%.%.%.%.%.| } %.%.%.%.%.%.%.%.%.#.} | %.%.%.%.%.@.} X.%.X. .} } z J V.G.G.Y.G.D.E Y 1.5.",
"V R A.C./ ~ E L L P 0 ..%.#.#.%.%.X.} +.%.%.%.%.%.| } #.%.%.%.%.%.%.%.%.@.} | %.%.%.%.%.+.} +.%.#.%.%.%...0 P L L L L ~ C.D.R V ",
"M L G.Y.C.V.C.' M l } | %.%.%.%.%.+.} @.%.%.%.%.%.| } %.%.%.%.%.%.%.%.%.#.| | %.%.%.%.%.@.} +.%.%.%.%.%.+.} f M ' C.V.C.Y.G.L M ",
"M L G.L.b.n.Y.C.H f } +.%.%.%.%.%.+.} @.%.%.%.%.%.} } #.%.%.%.%.%.%.%.%.#.} | %.%.%.%.%.+.} +.%.%.%.%.%.X.} f F D.Y.Y.Y.m.s.D M ",
"M J V.N.y.d.Y.C.G f } | %.%.%.%.%.$.} @.%.%.%.%.%.| } #.%.%.%.%.%.%.%.%.#.} | %.%.%.%.%.@.} $.%.%.%.%.%.X.} l F x.H.P.U.j.y.Z M ",
"M M L ~ D.G.G.V.G l } X.%.%.%.%.%.X.} $.%.%.%.%.%.| } #.%.%.%.%.%.%.%.%.#.} | %.%.%.%.%.@.} X.%.%.%.%.%.| } l M e., N.G.F.D.K M ",
"M L D.C.~ L L L F f } X.%.%.%.%.%.+.} @.%.%.%.%.%.| } #.%.%.%.%.%.%.%.%.@.} | %.%.%.%.%.+.} +.%.%.%.%.%.X.} f M Z C L L L L M M ",
"M L G.Y.C.C.C.{ H l } | %.%.%.%.%.+.} +.%.%.%.%.%.| } #.%.%.%.%.%.%.%.%.#.} | %.%.%.%.%.@.} +.%.%.%.%.%.X.} f G { C.C.C.C.V.J M ",
"M L G.P.f.m.R.C.H f } | %.%.%.%.%.+.} @.%.%.%.%.%.| } #.%.%.%.%.%.%.%.%.#.} | %.%.%.%.%.@.} +.%.%.%.%.%.X.} f F C.R.T.Y.R.G.L F ",
"M J B.c.1 p.B.{ C f } +.%.%.%.%.%.+.} +.%.%.%.%.%.| } #.%.%.%.%.%.%.%.%.@.| | %.%.%.%.%.$.} +.%.%.%.%.%.X.} f H C.R.R.Y.C.B.J M ",
"M M Z E L L L L G f } o.%.%.%.%.%.+.} @.%.%.%.%.%.| } #.%.%.%.%.%.%.%.%.#.} | %.%.%.%.%.+.} +.%.%.%.%.%.} 9 f F B.D.D.D./ L H F ",
"M E I.Q.Y.Y.G.V.G l } o.%.%.%.%.%.+.} $.%.%.%.%.%.| } #.%.%.%.%.%.%.%.%.@.| | %.%.%.%.%.+.} X.#.#.%.#.#.e o n H J L L ~ D.G.L F ",
"M L R.Q.^.~.R.C.G f } +.%.%.%.%.%.+.} @.%.%.%.%.%.| } #.%.%.%.%.%.%.%.%.#.} | %.%.%.%.%.+.| w @ @ @ @ @ . X n H B.D.C.D.!.!.~ M ",
"M L G.R.Q.Q.R.C.G f } +.%.%.%.%.%.o.} @.%.%.%.%.%.o.} #.%.%.%.*.%.%.%.%.#.} | %.%.%.%.%.+.} 5 X X X X X X X n H C.R.!.~.!.W.L M ",
"M L G.G.B.{ B.' M f } X.%.%.%.%.%.+.} +.%.%.%.%.%.| } #.%.%.%.%.%.%.%.%.#.} X.%.%.%.%.%.#.} 9 7 e 7 7 7 # X n M ' B.Q.~.R.G.L F ",
"M K C.C.' / ~ L F f } X.%.%.%.%.%.+.} @.%.%.%.%.%.| } #.%.%.%.%.%.%.%.%.#.} | %.%.%.%.%.+.} +.%.%.%.%.%.q # m F L ~ B.D.D.C.L F ",
"F H L ' ~.~.R.C.H l } X.%.%.%.%.%.+.} +.%.%.%.%.%.| } #.%.%.%.%.%.%.%.%.#.} | %.%.%.%.%.@.} +.%.%.%.%.%.| } f H C.G./ L L L M F ",
"M L C.G.R.Q.^.R.H f } X.%.%.%.%.%.+.} @.%.%.%.%.%.o.} #.%.%.%.%.%.%.%.%.#.} | %.%.%.%.%.$.} +.%.%.%.%.%.| } f H C.R.G.F.D.D.J F ",
"M L G.R.Y.R.Q.G.F f } | %.%.%.%.%.+.} +.%.%.%.%.%.| } #.%.%.%.%.%.%.%.%.#.} | %.%.%.%.%.+.} +.%.%.%.%.%.X.} f H C.R.Y.Y.Y.G.L G ",
"M H { { { V.R.C.H l } | %.%.%.%.%.o.} @.%.%.%.%.%.| } #.%.%.%.%.%.%.%.%.#.} | %.%.%.%.%.+.} +.%.%.%.%.%.X.} f H C.Y.R.Y.R.G.L M ",
"M H ~ / ' { C.{ F l } +.%.%.%.%.%.+.} @.%.%.%.%.#.| } #.%.%.%.%.%.%.%.%.#.} | %.%.%.%.%.+.} +.%.%.%.%.%.X.} f G C.R.D.C.C.B.L F ",
"M L G.R.^.W.~ H F f } | %.%.%.#.@...9 | @.#.%.%.%.| } #.%.%.%.%.%.%.%.%.#.} | %.%.%.%.%.@.} +.%.%.%.%.%.X.} f G B.G./ L L L M M ",
"M L G.R.R.R.G.V.G f } | %.%.%.y # # . # #  .%.%.%.| } #.%.%.%.%.%.%.%.%.#.} X.%.%.%.%.%.#.} +.%.%.%.%.%.o.} f F J L C.G.G.D.L M ",
"M L G.Y.Y.Y.R.C.G f } +.%.%.%.@. .p X 8  .$.%.%.%.| } #.%.%.%.%.%.%.%.%.#.} | %.%.%.%.%.$.} +.%.%.%.%.%.| } l C { D.G.R.~.!.~ F ",
"M J ' ' ' B.R.C.H f } o.%.%.%.%.%.r X u &.%.%.%.%...} %.%.%.%.%.%.%.%.%.%.} | %.%.%.%.%.@.} X.%.%.%.%.%.+.} f H C.R.Y.Y.Q.Q.L M ",
"F H / / / ` B.{ C l } o.%.%.%.$. .O o p  .$.%.%.%.| } #.%.%.%.%.%.%.%.%.#.} } %.%.%.%.%.@.} +.%.%.%.%.%.o.} f G { C.V.C.V.B.J M ",
"F L G.Y.R.D.~ J F f } X.%.#.$.w # # # # + y X.%.%.| } @.%.%.%.%.%.%.%.%.#.} | %.%.%.%.%.@.} +.%.%.%.%.%.X.} l F L L L L L L H G ",
"F L G.Y.Y.Y.G.C.H f } X.%.y   r $...} ..#.7 .  .%.| } %.%.%.%.%.%.%.%.%.#.} | %.%.%.%.%.+.} +.%.%.%.%.%.X.} f G C.Y.G.G.G.G.L M ",
"M L G.R.Y.Y.R.C.H l } | %.y X r &.X.} #.&.p X  .%.| } #.%.%.%.%.%.%.%.%.#.} | %.%.%.%.%.@.} +.%.%.%.%.%.+.} f H C.R.R.Y.R.G.L M ",
"M H / ' ' / ' ~ F f } X.%.O.y r 8 p O O 7 t y X.%.| } #.%.%.%.%.%.%.%.%.#.} | %.%.%.%.%.+.} $.%.%.%.%.%.| } f G Y.~.R.Y.{ / H M ",
"M H / ' ' ' / ~ F f } +.%.%.%. .7 p O 6 7 ..&.%.%.| } #.%.%.%.%.%.%.%.%.#.} | %.%.%.%.%.@.} X.%.%.%.%.%.X.} f H C.Y.C.B.' / H F ",
"H L G.R.Y.Y.R.C.H l } | %.%.%.%.&.X.} @.%.%.%.%.%.| } #.%.%.%.%.%.%.%.%.%.} | %.%.%.%.%.@.} X.%.%.%.%.%.X.} f M L L ~ ~ G.G.L F ",
"M L G.R.R.Y.R.C.F l } +.%.%.%.%.&.+.} @.%.%.%.%.%.| } #.%.%.%.%.%.%.%.%.#.} } %.%.%.%.%.@.} X.%.%.%.%.%.X.} f H C.Y.G.G.R.Y.L F ",
"M ~ ~.~.Y.Y.Y.C.F f } | %.%.%.%.%.X.} @.%.%.%.%.%.| } #.%.%.%.%.%.%.%.%.#.} | %.%.%.%.%.@.} X.%.%.%.%.%.X.} f H C.Y.R.R.~.!.~ M ",
"M ~ ^.~.' / / ~ F l } +.%.%.%.%.%.+.} +.%.%.%.%.%.} } #.%.%.%.%.%.%.%.%.#...| %.%.%.%.%.$.} X.%.%.%.%.%.X.} f M ~ ' D.R.W.W.L M ",
"M L D.D.{ ' ' / F l } | %.%.%.%.%.+.} @.%.%.%.%.%.| } %.%.%.%.%.%.%.%.%.#.} | %.%.%.%.%.@.} X.%.%.%.%.%.0 5 s H / ' { { { { H F ",
"M H L ' Y.R.R.C.F l } X.%.%.%.%.%.+.} +.%.%.%.%.%.| } #.%.%.%.%.%.%.%.%.#.} X.%.%.%.%.%.X.}  . . . . . .O X n H C.Y.' ~ ~ ~ H F ",
"M L G.Y.Y.Y.R.D.H f } X.%.%.%.%.%.+.} @.%.%.%.%.%.X.} #.%.%.%.%.%.%.%.%.#.} | %.%.%.%.%.#.} e           o o n H C.Y.Y.Y.R.Y.L M ",
"N L G.Y.G.W.^.W.G a } X.%.%.%.%.%.+.} +.%.%.%.%.%.| } #.%.%.%.%.%.%.%.%.@.} | %.%.%.%.%.+.} e             X n H C.Y.R.R.~.~.~ M ",
"F H ~ ~ ~ B./.Q.H f } X.%.%.%.%.%.+.} +.%.%.%.%.%.| } #.%.%.%.%.%.%.%.%.#.} | %.%.%.%.%.+.} }  . . . . .@ X n H L ^ D.R.^.^.~ N ",
"G J ' { { B.C.{ G f } X.%.%.%.%.%.+.} @.%.%.%.%.%.| } %.%.%.%.%.%.%.%.%.#.} | %.%.%.%.%.@.} +.&.%.%.&.%.0 5 s F ' B.' ' C.C.L F ",
"M L G.R.Y.G./ ~ G f } X.%.%.%.%.%.X.} @.%.%.%.%.%.| } #.%.%.%.%.%.%.%.%.#.} | %.%.%.%.%.+.} $.%.%.%.%.%.+.} l F C.Y.[ / / ~ H M ",
"M L G.R.W.R.R.C.H l } X.%.%.%.%.%.+.} +.%.%.%.%.%.} } %.%.%.%.%.%.%.%.%.#.} | %.%.%.%.%.+.} X.%.%.%.%.%.X.} l H C.Y.Y.Y.Y.G.L H ",
"M L G.R.^.!.Y.V.F l } X.%.%.%.%.%.$.} @.%.%.%.%.%.| } #.%.%.%.%.%.%.%.%.#.} | %.%.%.%.%.@.} +.%.%.%.%.%.X.} l F C.Y.R.R.Y.D.L M ",
"M H L ~ / ~ ~ L F f } X.%.%.%.%.%.X.} @.%.%.%.%.%.| } #.%.%.%.%.%.%.%.%.#.| | %.%.%.%.%.+.} +.%.%.%.%.%.X.} f H C.R.!.~.' ~ H M ",
"M J { B.B.B.B.' F l } X.%.%.%.%.%.X.} +.%.%.%.%.%.| } #.%.%.%.%.%.%.%.%.#.} | %.%.%.%.%.@.} +.%.%.%.%.&.X.} f F ~ ' B.V.B.{ H M ",
"F L G.Y.Y.R.R.C.H f } | %.%.%.%.%.$.} @.%.%.%.%.%.| } %.%.%.%.%.%.%.%.%.#.} X.%.%.%.%.%.X.} +.%.%.%.%.%.X.} f G / ' / ' W.W.~ F ",
"F L C.G.Y.Y.R.C.H l } $.%.%.%.%.&.X.} @.%.%.%.%.%.| } @.%.%.%.%.%.%.%.%.#.} | %.%.%.%.%.@.} +.%.%.%.%.%.X.} f G C.Y.W.W.~.!.~ M ",
"F M L / G.G.Y.V.F l } X.%.%.%.%.%.$.} @.%.%.%.%.%.| } #.%.%.%.%.%.%.%.%.%.} | %.%.%.%.%.X.} X.%.%.%.%.%.X.} f H C.G.~.^.W.G.L M ",
"M ~ Q.W.~ L L J F f } | %.%.%.%.%.X.} X.%.%.%.%.%.| } #.%.%.%.%.%.%.%.%.#.} } %.%.%.%.%.@.} $.%.%.%.%.%.X.} f M L ~ !./.R.G.L M ",
"M L W.R.C.V.V.{ M f } | | X.| X.X.| } | X.X.X.X.| } } X.X.X.X.| X.| X.X.| } } X.| X.X.X.| } } X.| X.X.| | } f M ' C.B.{ / ~ H H ",
"M L Q.Q.R.R.R.C.F A h h h h h h h h h h h h h h h h h h h h h h h h h h h h h h h h h h h h h h h h h h h h A H D.Y.B.' D.C.L M ",
"M L R.W.C.C.C.{ H M M M M M M M M M M M G F M M M M F F M M M M F F M M M M H F M M F F H N M M M M F F M M M H { C.C.D.W.R.L M ",
"M H H H H H H H M M M H M M M H M M G M M M M M M M M M M H M M M M M M H M M M F M F N F F H M M M M M M M M M M H H H H H M N "
};
