/* XPM */
static char *afff0b74fdbc4acea53671c5c8d8549c2eQA3Fzwkpl5M6Hb[] = {
/* columns rows colors chars-per-pixel */
"64 64 167 2 ",
"   c #26AF15",
".  c #26AE15",
"X  c #24A814",
"o  c #1E7B12",
"O  c #1D7312",
"+  c #24A714",
"@  c #1F8112",
"#  c #23A014",
"$  c #1F8213",
"%  c #24A614",
"&  c #1F7E13",
"*  c #27B217",
"=  c #208713",
"-  c #24A514",
";  c #1E7A12",
":  c #25A814",
">  c #26B015",
",  c #1D7512",
"<  c #1E7812",
"1  c #27B216",
"2  c #27B317",
"3  c #1F8413",
"4  c #24A314",
"5  c #28B917",
"6  c #25AE14",
"7  c #25AD14",
"8  c #23A114",
"9  c #239C14",
"0  c #24A114",
"q  c #1F7F12",
"w  c #24A515",
"e  c #218B13",
"r  c #239A14",
"t  c #1F8012",
"y  c #1D7812",
"u  c #219213",
"i  c #1E7C12",
"p  c #1E7D13",
"a  c #1F8113",
"s  c #25AC15",
"d  c #208913",
"f  c #24A214",
"g  c #208813",
"h  c #27AD16",
"j  c #229714",
"k  c #208613",
"l  c #27B116",
"z  c #1D7412",
"x  c #229A14",
"c  c #1F8013",
"v  c #25AE15",
"b  c #239F14",
"n  c #1E7912",
"m  c #26B115",
"M  c #1F8313",
"N  c #1C6E12",
"B  c #208513",
"V  c #29BB18",
"C  c #1F7F13",
"Z  c #229914",
"A  c #1E7D12",
"S  c #239B14",
"D  c #25A815",
"F  c #25A914",
"G  c #27AE17",
"H  c #218B14",
"J  c #26AC15",
"K  c #1F8613",
"L  c #218C14",
"P  c #29BC18",
"I  c #1E7913",
"U  c #26AB16",
"Y  c #26A916",
"T  c #1D7612",
"R  c #1D7712",
"E  c #229913",
"W  c #218C13",
"Q  c #29BA18",
"!  c #229813",
"~  c #28B417",
"^  c #1E7C13",
"/  c #26AA16",
"(  c #26AC16",
")  c #26AB15",
"_  c #25A515",
"`  c #1E7E12",
"'  c #229413",
"]  c #25AB15",
"[  c #24A415",
"{  c #239E14",
"}  c #26AD15",
"|  c #1E7F12",
" . c #27AE16",
".. c #25A316",
"X. c #25AC14",
"o. c #208413",
"O. c #208714",
"+. c #208A13",
"@. c #1F8513",
"#. c #27B716",
"$. c #28B317",
"%. c #24A414",
"&. c #1E7B13",
"*. c #25A915",
"=. c #25A615",
"-. c #27B016",
";. c #25A714",
":. c #26AF14",
">. c #26AD16",
",. c #25A715",
"<. c #24A215",
"1. c #25AA15",
"2. c #25AA14",
"3. c #229713",
"4. c #27B316",
"5. c #1E7813",
"6. c #26AA15",
"7. c #28B517",
"8. c #29B917",
"9. c #27B416",
"0. c #26AE16",
"q. c #26B215",
"w. c #1E7712",
"e. c #1F7D13",
"r. c #249F15",
"t. c #24A015",
"y. c #1C6F12",
"u. c #239D14",
"i. c #229313",
"p. c #28B217",
"a. c #1C6D12",
"s. c #229513",
"d. c #229014",
"f. c #1C7012",
"g. c #219313",
"h. c #229814",
"j. c #27B415",
"k. c #26A816",
"l. c #25A415",
"z. c #2AC217",
"x. c #1C7112",
"c. c #1C6C12",
"v. c #27AC16",
"b. c #1E7A13",
"n. c #208814",
"m. c #218D14",
"M. c #24A115",
"N. c #25A315",
"B. c #208414",
"V. c #28B817",
"C. c #24A315",
"Z. c #1D7212",
"A. c #27AD17",
"S. c #229613",
"D. c #28B717",
"F. c #27AF16",
"G. c #218A13",
"H. c #26A917",
"J. c #25A616",
"K. c #208514",
"L. c #29BA17",
"P. c #25A116",
"I. c #26B315",
"U. c #24A014",
"Y. c #26B016",
"T. c #2ABC18",
"R. c white",
/* pixels */
"  .         X o O o +   + @ # + $ +                 .   % & * = # - ; : > , < # 1 2 3 + X @ 4 5 = # 6   .       .               ",
".   6 : 6   7 8 - + 7   7 9 = 0 + 6           .   .   6 # q w 1 e r t + 0 y u t i p 0 6 6 8 a s 1 d :     7 : 6   .             ",
"  6 f g f 6 # q 8       + 3 h 3 % + % + 7 : 7       6 f = j k . l $ # 0 q z q # x c 4 v 6 b n % m : 7     + t # 6   . .       . ",
"  + M h M r a N c f 6 6 # B V C Z a A 3 S a D F 6   + M G H 0 F J i # K x % X % 3 G L : 4 a , %       .   % z c f 6     7 : 6   ",
"6 # B P I a U C Y e f % t 4 1 T A r D U C R l L 0   + k V c E W Q C - 4 g f   + k V c ! e ~ & %           % ^ / e f 6   + t # 6 ",
"% t f ( a f ) a _ 1 e x t + f ` ' t A 3 S t w 1 e 0 % F U , A - ~ M % ] l e 0 % F U , A - ~ M +   7 : 6   + t [ ( d f 6 + z a # ",
"{ @ # a 8 0 = S = } 1 g f + = r | Z - + 7 f = } 1 ^ t f o < 0 : d f X g } 1 ^ t f o < 0 : d f 6   + t # 6 6 f q c  .3 + # ; ..= ",
"M 9 - t x K 0 7 : v m : 6 6 : - , a 4   6 X + > ] q r % t 8 v X.f . : +   ] a 8 % t 8 6 7 : 6     % z a f 6 7 x o.V C Z t R O.( ",
"1 +.+ f @.0 6       6       > % p / e 4 + @ F #.F # q b : 6   + B $.B % + %.8 7 6 : 6     6 : 6   % &...= f + t 4 1 R A r *.U k ",
"m : 7 6 : 6   7 : 6   . .   6 # t =.-.$ ! t + f t b , c 4 6 6 # B Q C Z a A 3 4 6       6 f g 4   X ; ^ S d r t + 0 y u t A 3 # ",
"6             + t # 6     6 f = j = 4 , C 9 + t o { p / e f % t 4 1 R A r D Y $ : F 6   + M G H ;.: f ; : 1 g f : t z q 8 % + 6 ",
".   6 + % + 6 + z c f 6   + M G H f % M U L 8 % : % a _ 1 e x t + 0 y u t p &.< l L 0   + k V c ! W V C % m : 6 6 + % + 6 >     ",
"  6 f t o t 0 { &./ e f 6 # B V a % 6 : ] U d 4 :.7 S k } 1 g f : t z q 8 % b q w 1 e 0 % F U , A - ~ M +     6 : 6     6 : 7   ",
"  : @.Z { Z t o i =.1 e r | f >.M 0 6 4 q c  .3 % 4 = 9 7 m F 6 6 + % + 6   6 f k } 1 ^ t f o < # f g 4 6   6 f g 4 v   + @ +   ",
"  6 f t o q r ,.<.k ,.l o n # B h M Z | u o.V c { 3 h o.% + % + 6             6 : v 1.c 8 % t 0 + a f : 6   + M G H ;.2.*.o %   ",
".   6 + % 8 a i $ r t 9 t # # B P I T N c b -.i 3.k V C Z a A M 4 6   .   6 : 6     7 f 7 6 : 7 b ^ l L 0   + k V c ! W V C %   ",
".   6 : 6 6 + % + % , C 9 % t f ( $ ! ^ / L 9 n y %.1 R A r D Y a +     6 f g 4 v 6 # t +     X ; p =.1 e 0 % F U , A - ~ M +   ",
"  6 f @.f 6       # &./ L x @ # a 8 # q _ 1 +.' q + 0 y u t A p ; # 6   + M G H : 4 a O b 6 6 # M ~ e } 1 ^ t f o < 0 : d f 6   ",
"  + t Z t +   6 8 < n =.1 d 9 - t x k S = } 4.g f : t z q 8 % % f g f   + k V c ! e ~ 5.c 4 % t f 4.F 7 4 q 8 % t 8 6 7 : 6   . ",
"  % o b t 8 6 4 a z Z = } 1 d + f @.0 7 : v m : 6 7 # - + 6 6 X *.l e 0 % F U , A - ~ k U e x @ # M + f @.f 6 6 F 6         .   ",
"  + t # 0 q x e ~ & - : v m : 7 6 : 6       :.  6 f K f 6   X o o.  1 ^ t f o < 0 : d 0 J 1 d 9 - t x @.0 6   6 : 6   .         ",
"  6 # $ 6.C < 4 7.3 +     6           .   6 : 6 + t Z t + v # M 8.J F c 8 % t 8 6 7 : + g } 1 d % 9 3 f 6   6 f g f 6         . ",
".   + $ 9.V o.# M 0 6         7 : 6     6 f g 4 - o b t 0 + t f 0.g + F 6 6 F 6       6 : v m F % q x 6     + M h 3 % + % + 6   ",
".   6 F > q.: # a f 7 + % + 6 + t # 6   + M h o.b @ # 0 q Z @ # a # 6 6 + % + 6   6 : 6 > 6 + % { O a f 6 6 # B V C Z a A M f 6 ",
"  7 : 6 :.:.+ 3 h M r $ z q 0 b O c f 6 # B V C - 0 $ 6.C n f % @ +   f t o t 8 % 0 g 0 + 8 @ A ^ w./ e f % t 4 1 R A r D / g + ",
"  + t # 6 6 # B P I a U &.u t ; w./ L r | f ( $ + X $ 9.Q p % 6 : 7 f 3 Z { Z t o e. .^ O a S *.Y a _ 1 e x t + 0 y u t A M f 6 ",
"  % z c 4 % t f ( a f ) o ` S r.n [ l o n # c r 7 6 F   =.$ f v   # q Z ; O | S t.B P 5.; U e.o 3 9 = } 1 g f : t z q 8 % + 6   ",
"  % ^ / W x @ # $ 8 0 k 0 # o ^ y.t %.a 0 + ; | f 6 > + M G L : 4 a , { z n ' q o 4 ( a f ) c b + 7 : v m F 6 6 + % + 6       . ",
"  + t _ 1 +.9 %.; Z k 0   % p / p { - b % 7 : 0 g f   + k V c ! e ~ C u.p / e i.t # a 8 0 k f 6         6 6 : 6         6 : 6   ",
"  6 f k =.1 +.# , C 9 7 6 # B V c Z a A M f 7 1.l e 0 % F U , A - ~ 3 b a _ 1 +.9 - t x K 0 6   .         + t # 6     6 f g f 6 ",
".   7 9 = %.: - p / e f % t 4 1 R A r D / g 0 g } 1 ^ t f o < f : d f 7 f k } 1 d + 4 @.0 6   .   .       % z c f 6   + 3 h o.% ",
".   + 3 h 3 + # n [ 1 e x t + 0 < u t A M f X.f   %.q 8 - ; 0 F X.0 7   6 : v m F 7 + + 6   .   .   6 : 6 % p / e f 6 b e.p.C %.",
"  6 # B V C Z t T M ,.l g 8 f ` a.| 8 % + 6 + M Y $ 8   % & 2 o.r d 0 X 6     6 6 f g 4 6   .     6 0 K 8 # t ,.1 e S y N e.T - ",
"+ % t 4 1 R A r *./ g 1.F % t Z ` r 7     6 0 n O O +   # B V I a ( &.y 8 6     + 3 h 3 +     6 : + K s.q @ u.d.  1 &.f., Y k % ",
"3 r t + 0 y g.$ T $ f 6   + t 8 0 t +     + t h.O ; f + t f ( a f ) n a.a 4 6 6 b C Q C -   6 f g 0 8 @.Z b % *.: : ; ! t w 5 j.",
"1 g f : t z $ / a # 6     6 # $ 6.k 0 6 6 # t { p / W x @ # a 8 0 = Z ^ k.$ 8 + < , l.M + > + M h 3 % S R O o i $ # $ + f k . z.",
"m F 6 6 + % : > : X 6   .   + a >.V +.: : k f % a _ 1 d 9 - t r K f + a u.&.n Z x.c.a 9 7 6 # B V C Z t , &.Z - + X.: 6 6 : 6 q.",
"6         >     + t # 6     7 9 d ,.: 7 7 : 6 7 S k } 1 d + 0 q 8 6 6 8 $ v.T x.z T / e f % t 4 1 R A r *.U g : >             6 ",
"  .   6 + % + 6 + z c f 6   + 3 G H F       6 f = 9 7 m : 6 % n b 6 6 8 B P 5.; / ^ [ 1 e x t + 0 < g.q , ^ 0 7 : 6   .         ",
"    6 f t o t 0 { &./ e f 6 # B V c b 6     + M / 3 +       % , c 4 % t f ( a f ) o t . 4.g f : q a.R ' b.O % 4 g 4 v           ",
"    : @.Z { Z t o i =.1 e r | f >.; < 8 6   % A D A % >   > % p / W x @ # a # 0 k 0 + 7 *.# % 7 # O O & ~ C { 3 G H :           ",
".   6 f t o q r D <.= } 1 ; n 8 $ h.z c f 6 8 a # ; { % % + # t _ 1 +.S b $ S K f     f t o @ 0 b ^ Y n.h 3 E k V a %           ",
"  7 : 7 + % 8 t R $ 9 6 1.c # # @ { p / L r | # # ; ; i i z < ' k } 4.a p  .M # + % # @.Z { Z t o i =.4.m.s.` f ( $ +           ",
"  + t #     6 b ^ ( o.+ 6 F % q r % a _ l &.o 9 ` h.u.b M.C N c 9 7 m # B V C Z a A $ s.t o q r ,.N.g ,.l o ; # a 8 6           ",
"  % z c f 6 6 8 o.$.e.{ :   + z a f 0 = f & G B.z ; o o M S ^ / m.: :.6 ] l T A r 1.l g # + 8 a o C h M 9 a S % @ +         .   ",
"  % ^ / e f + q s.o.y.y n # { &./ e 0 + b k P c { % % - 8 - a w V.> 6   . f ` ' t M 1.F 7 : 7 % ! o.P I c >.M b : 6   7 : 7     ",
"  + t =.1 e r n ^ ( ^ u ; z ; i =.1 e S ` 9 U $ + > 6 4 g f 0 = s >     : = S k # :   F + d f + @ f ( a f 6., c %.v   + @ +     ",
"  6 8 q _ 1 = g.o.P b.a U ^ t.C.k =.l &.Z.O ; f 6   + M h 3 - 8 %.+ 7 + % + 7 : 6 q.5 m.1.4.e Z o 0 $ # f q w.A.L ;.2.*.o %     ",
".   + z c - # | f U o 0 ) i o a S.g { t Z O ; f 6 6 # B V C Z $ A 3 u.M o X       v J D.> } 1 M w.F.k r k x k P c ! W V C -     ",
"    % ^ / e r @ # ; O x = 0 + b M h M # b ; ..G.f % t 4 1 R A r *.Y o.H.p - F   F + g ] 4 d D -.$ w 1 +.r - F U , A - ~ M +     ",
"    + t _ 1 d 9 % < a.C 9 6   8 B V C Z t R O.J.G.r t + 0 y u q T ^ T ^ z 3.M l L # + # +.~ B *.4 k } 1 ^ t f o < 0 : d f 6     ",
"    6 f k } 4.d 8 b ^ / e f % t 4 1 R A r *./ m.( g f : t z t r ` 3.{ ! n ; i =.1 e S | f >.$ + 6 : v 1.c 0 % t 8 v 6 : 6   .   ",
"7 : 6 6 : v > 9 = S t =.1 e r t + 0 y u t A M f 1.: 6 6 + % + 6 4 @ o q S ,.<.= } 1 o n # c S 7       7 X + 7 : 6 6 : 6   .     ",
"% t # 6     + 3 h M Z q [ U = f X t z q 8 % + % t 8 6     > 6 + - { b # a i $ f 6 4 q f + n n 8 6     6 4 g 4   6 # t +         ",
"- , c f 6 6 # B V C ! o i B 9 7 6 % # % 7 F   % z c f 7 + + 0 a A p o # + % + 7 f = 9 + 6 # O c f 6   + M G H : 4 a , %         ",
"%.p / e f % t 4 1 R A S *./ g :   8 t : + t 8 - p / e S t O R Z *.Y , c 4   > + M G K.c 0 b &./ e f 6 # B V c ! e ~ & %   6 : 6 ",
"% a _ 1 e x t + 0 y u t i p 0 7 4 a , + + z a S t _ 1 +.' y z ; T z T / e f 6 # B V C u t o i =.1 e r | f U , i b L.B + 6 f @.b ",
"% 0 = } 1 g f : t z ` S { n % f e ~ & % % ^ / e s.k } 1 a ! b h.y O o =.1 e r | f ( i ` r ,.<.= J U n ; 8 o y ' g w : 6 + t S o.",
"3 0 X v m : 6 6 % # b $ 1.= r @.{ $.3 + + t [ ( d S 6 *., o , ` S D <.= } 1 o n # a # 0 a i $ f + p ; S - t Z M G H : 2.*.; 0 5 ",
"* e f 6         + @ Z $ 9.P g s.a &.S 7 6 f q c G o.X % o P.o.S a i $ f   1.c 0 % @ + 6 + % + 6 % ^ / W 8 F % k V c ! W V I ` %.",
"j.1 d + + % + 6 + z C 9   I.0 M ( w.c f 6 7 x o.V C b + p O.>.  + % + 7 : 7 F 6 6 : 7   6 F 6   + t _ 1 e 0 % F U , A - ~ M x @ ",
"  m : 8 t o t 0 { &./ e f 7 8 B V $ Y e f + t 4 1 R ` 0 6./ e :     6 f g f 7 : 6       + t # 6 6 f k } 1 ^ t f o < 0 : d f 7 + ",
"6 :.: K Z { Z t o i =.1 e r q f ( $ _ 1 e r t + 0 < g.t A 3 f 6     + 3 h M r d f 6     % z c f 6 6 : v 1.c 8 % t 8 6 7 : 6     ",
"    6 # ; z ; U.Y.*.M } 2 &.O b M Z a } 2 M # + ; c.n b - % 6   .   - c T.I &.U 3 +     % p Y 3 +       7 + 6 7 X 6         .   "
};
